<svg width="113" height="105" viewBox="0 0 113 105" fill="none" xmlns="http://www.w3.org/2000/svg">
<path d="M72.2783 68.2128L70.3252 71.1488L54.2764 78.1303C54.2764 78.1303 52.0432 78.5509 52.0432 79.2479C52.0432 79.9448 51.623 81.9035 52.0432 82.1839C52.4634 82.4643 55.245 81.4829 55.245 81.4829C55.245 81.4829 54.4085 82.4603 55.245 82.7406C56.0814 83.021 56.9179 81.7633 56.9179 81.7633C57.7374 81.2466 58.5295 80.6878 59.2912 80.089C59.6844 79.5719 60.0124 79.0082 60.2677 78.4107L75.0759 74.6416L78.1455 70.0313C78.1455 70.0313 71.8621 69.3303 72.2783 68.2128Z" fill="#B5B5B5" stroke="#263238" stroke-width="0.3" stroke-linecap="round" stroke-linejoin="round"/>
<path d="M73.3951 61.6278L71.5781 67.596L76.3287 70.4278L78.2458 65.7735L73.3951 61.6278Z" fill="white" stroke="#263238" stroke-width="0.3" stroke-linecap="round" stroke-linejoin="round"/>
<path d="M71.7662 65.6733L77.5293 69.114L76.5168 70.9325L71.0618 68.1006C71.0995 67.2468 71.3411 66.4145 71.7662 65.6733Z" fill="white" stroke="#263238" stroke-width="0.3" stroke-linecap="round" stroke-linejoin="round"/>
<path d="M60.3599 97.2204C60.3599 97.2204 56.3177 99.2432 55.2051 100.152C54.0924 101.062 53.8923 100.954 54.1925 101.671H67.1316L66.8274 97.0161L60.3599 97.2204Z" fill="white" stroke="#263238" stroke-width="0.3" stroke-linecap="round" stroke-linejoin="round"/>
<path d="M67.0836 100.974H54.1926C54.0165 101.162 54.0365 101.314 54.1926 101.683H67.1317L67.0836 100.974Z" fill="white" stroke="#263238" stroke-width="0.3" stroke-linecap="round" stroke-linejoin="round"/>
<path d="M77.7415 73.1596C77.7415 73.1596 72.7907 71.1368 68.7485 70.7322C64.7063 70.3277 56.3177 70.528 55.9135 72.3344C55.5093 74.1409 61.8768 93.964 61.8768 93.964C61.8768 93.964 60.7641 94.673 60.6761 95.1656C60.588 95.6583 60.3759 97.1684 60.3759 97.1684L66.8435 98.1778C66.8435 98.1778 67.0436 96.155 67.0436 94.2364C67.0436 92.3177 64.8224 80.4776 64.8224 80.4776L77.8575 84.6272L73.0069 94.9413C73.0069 94.9413 71.494 97.9775 73.211 99.4955C74.9279 101.014 77.7575 100.697 77.7575 100.697L100.802 101.002L100.402 97.2565C100.402 97.2565 97.0681 96.7518 96.4597 96.7518C95.8514 96.7518 84.229 93.8198 84.229 93.8198C84.229 93.8198 93.5301 84.1065 94.5387 82.4883C95.1388 81.5924 95.5475 80.5819 95.7389 79.5204C95.9304 78.4589 95.9005 77.3693 95.6513 76.3199C95.0429 73.8926 94.6387 73.3839 94.6387 73.3839C94.6387 73.3839 87.5468 76.7925 83.9088 75.9914C81.6805 75.4814 79.5811 74.5174 77.7415 73.1596Z" fill="#263238" stroke="#263238" stroke-width="0.3" stroke-linecap="round" stroke-linejoin="round"/>
<path d="M61.2683 42.1051C61.2683 42.1051 61.9767 44.4323 61.9767 44.7367C61.9767 45.0411 61.4684 46.5552 61.8766 47.0599C62.2849 47.5646 63.4775 47.6687 63.4775 47.6687C63.4775 47.6687 65.2945 49.7916 66.1029 50.6007C66.9114 51.4098 67.8199 51.7142 68.8324 51.2095C69.845 50.7049 70.7535 49.3871 70.7535 49.3871L72.6745 51.3097L77.121 46.1506L75.5201 44.1279C75.5201 44.1279 75.9203 41.8007 74.4075 38.7685C72.8947 35.7364 67.6358 34.9233 64.1979 35.5321C60.76 36.1409 59.9556 38.1597 59.9556 38.5643C59.9556 38.9688 61.2683 42.1051 61.2683 42.1051Z" fill="white" stroke="#263238" stroke-width="0.3" stroke-linecap="round" stroke-linejoin="round"/>
<path d="M63.0893 32.9005C63.0893 32.9005 60.9642 31.2983 59.5514 31.9913C58.1386 32.6842 58.751 33.3051 58.5388 34.5187C58.3267 35.7324 54.8008 35.8325 54.8008 37.8553C54.8008 39.8781 57.3262 40.587 57.8304 40.6872C58.3347 40.7873 57.9345 43.0144 59.4313 43.0144C60.9281 43.0144 61.2523 42.1051 61.2523 42.1051C61.2523 42.1051 60.1397 38.8687 61.3524 38.364C62.5651 37.8593 65.2946 36.8459 64.8903 38.7645C64.4861 40.6832 65.9029 41.292 66.7113 41.0917C67.5198 40.8914 68.5283 40.9876 68.7124 41.3921C68.8965 41.7967 69.9131 42.5057 69.9131 41.4963C69.9131 40.4869 70.4174 39.5736 71.3259 39.5736C72.2344 39.5736 72.9267 41.0917 72.8427 42.3054C72.7745 43.0363 72.4965 43.7318 72.0423 44.3081L75.4801 44.1038C75.4801 44.1038 76.3886 39.5536 75.5802 36.3172C74.7717 33.0808 70.9657 31.2823 68.6444 30.9779C66.3231 30.6735 63.3895 31.9913 63.0893 32.9005Z" fill="#263238" stroke="#263238" stroke-width="0.3" stroke-linecap="round" stroke-linejoin="round"/>
<path d="M63.9578 43.9116C64.21 44.3122 64.27 44.7127 64.0979 44.8128C63.9258 44.913 63.5736 44.7127 63.3255 44.3282C63.0774 43.9437 63.0093 43.5271 63.1854 43.4269C63.3615 43.3268 63.7057 43.5471 63.9578 43.9116Z" fill="#263238"/>
<path d="M65.2705 48.4538C65.7535 48.3576 66.1911 48.1044 66.5154 47.7335C66.8397 47.3626 67.0324 46.8948 67.0635 46.403" stroke="#263238" stroke-width="0.3" stroke-linecap="round" stroke-linejoin="round"/>
<path d="M62.1929 43.0664C62.1929 43.0664 62.361 42.1252 63.4736 42.5537" stroke="#263238" stroke-width="0.3" stroke-linecap="round" stroke-linejoin="round"/>
<path d="M72.8906 53.0281C72.8906 53.0281 72.0902 59.7052 72.9907 61.728C73.8912 63.7507 77.1369 71.8418 77.1369 71.8418C77.1369 71.8418 76.4286 76.7925 78.4497 78.1143C80.4708 79.4361 88.151 79.6324 91.0846 77.8099C94.0182 75.9874 95.2269 74.5735 95.2269 73.2597C95.2269 71.9459 93.3058 66.178 90.2762 60.4141C88.0576 56.1929 84.9952 52.4735 81.2792 49.4872C79.158 47.7689 78.3496 46.9598 77.9454 46.9598C77.5412 46.9598 72.6905 51.1094 72.8906 53.0281Z" fill="white" stroke="#263238" stroke-width="0.3" stroke-linecap="round" stroke-linejoin="round"/>
<path d="M77.137 45.646L71.678 51.8144L72.7906 55.155L78.954 47.164L77.137 45.646Z" fill="white" stroke="#263238" stroke-width="0.3" stroke-linecap="round" stroke-linejoin="round"/>
<path d="M77.237 68.2008C77.237 68.2008 66.1189 74.5735 64.7061 75.0822C63.2934 75.5909 58.7429 75.5869 57.4262 75.4827C57.2647 75.4539 57.0988 75.461 56.9404 75.5036C56.782 75.5462 56.6349 75.6232 56.5096 75.7291C56.3842 75.835 56.2838 75.9673 56.2153 76.1164C56.1468 76.2656 56.1121 76.4281 56.1134 76.5922L55.9133 80.4375C55.9133 80.4375 57.0219 80.7419 57.5142 80.4375C58.0065 80.1331 58.5228 79.0196 58.5228 79.0196C58.5228 79.0196 60.3438 79.2238 60.9481 78.8193C61.3447 78.5492 61.717 78.245 62.0607 77.9101C63.9281 77.7549 65.7845 77.4873 67.6198 77.109C69.6409 76.6003 78.938 73.5681 80.3547 73.2637C81.7715 72.9593 82.2758 72.1502 82.3758 71.6615C82.4759 71.1728 77.237 68.2008 77.237 68.2008Z" fill="white" stroke="#263238" stroke-width="0.3" stroke-linecap="round" stroke-linejoin="round"/>
<path d="M64.5621 75.1222C63.0172 75.5829 58.7029 75.5829 57.4262 75.4867C57.2647 75.4579 57.0988 75.465 56.9404 75.5076C56.782 75.5502 56.6349 75.6272 56.5096 75.7331C56.3842 75.839 56.2838 75.9713 56.2153 76.1205C56.1468 76.2696 56.1121 76.4321 56.1134 76.5962L55.9133 80.4415C55.9133 80.4415 57.0219 80.7459 57.5142 80.4415C58.0065 80.1371 58.5228 79.0236 58.5228 79.0236C58.5228 79.0236 60.3438 79.2278 60.9481 78.8233C61.3447 78.5532 61.717 78.249 62.0607 77.914C62.0607 77.914 63.7576 77.7658 65.4746 77.5135L64.5621 75.1222Z" fill="#92E3A9" stroke="#263238" stroke-width="0.3" stroke-linecap="round" stroke-linejoin="round"/>
<path d="M78.0455 53.1322C78.0455 53.1322 76.3286 55.0508 76.5287 56.4688C76.7288 57.8867 77.2371 68.2008 77.2371 68.2008L82.9962 70.528L84.5971 62.3368C84.5971 62.3368 85.9138 60.2099 85.7097 58.1871" fill="white"/>
<path d="M78.0455 53.1322C78.0455 53.1322 76.3286 55.0508 76.5287 56.4688C76.7288 57.8867 77.2371 68.2008 77.2371 68.2008L82.9962 70.528L84.5971 62.3368C84.5971 62.3368 85.9138 60.2099 85.7097 58.1871" stroke="#263238" stroke-width="0.3" stroke-linecap="round" stroke-linejoin="round"/>
<path d="M76.7328 68.7095L82.592 72.2463C82.592 72.2463 83.3924 72.2463 83.5045 70.9325C83.6165 69.6187 84.2089 69.4144 83.7046 68.7095C83.2003 68.0045 77.8414 65.7735 77.3371 65.7735C76.8328 65.7735 76.3285 66.9871 76.7328 68.7095Z" fill="white" stroke="#263238" stroke-width="0.3" stroke-linecap="round" stroke-linejoin="round"/>
<path d="M100.382 97.3326C100.382 97.3326 103.411 94.705 103.92 94.8052C104.428 94.9053 108.466 98.7506 108.466 98.7506C108.466 98.7506 112.204 100.773 112.204 101.078C112.204 101.382 111.6 101.478 111.6 101.478L100.794 101.078L100.382 97.3326Z" fill="white" stroke="#263238" stroke-width="0.3" stroke-linecap="round" stroke-linejoin="round"/>
<path d="M112.188 101.078C112.188 100.773 108.45 98.7505 108.45 98.7505C108.45 98.7505 104.408 94.9052 103.904 94.8051C103.724 94.7691 103.219 95.0815 102.651 95.4981L107.542 98.9508L111.104 101.462L111.584 101.482C111.584 101.482 112.188 101.378 112.188 101.078Z" fill="white" stroke="#263238" stroke-width="0.3" stroke-linecap="round" stroke-linejoin="round"/>
<path d="M77.8413 84.6913L76.8328 80.4415" stroke="#999999" stroke-width="0.3" stroke-linecap="round" stroke-linejoin="round"/>
<path d="M42.6781 67.8523C41.4775 67.1714 39.7125 66.2501 39.7125 66.2501C39.7125 66.2501 37.3352 60.2419 35.4702 57.4381C33.6052 54.6342 32.5005 54.2938 30.4634 54.1256C28.4263 53.9573 22.323 55.5675 22.0588 55.9921C22.0588 55.9921 16.3757 58.6237 14.9349 60.4943C13.4941 62.3648 13.9984 76.8766 13.9984 76.8766C13.9984 76.8766 7.89904 81.0103 6.29016 85.6046C5.2656 88.5165 6.45826 93.3271 11.9733 94.7731C13.8132 95.2659 15.7446 95.3085 17.6044 94.8973C19.0372 96.1069 20.6238 97.1211 22.323 97.9134C28.0061 100.629 31.7361 101.138 35.214 101.31C38.692 101.482 42.2539 100.377 42.9343 99.7078C43.6146 99.0389 44.9714 96.3953 41.4935 92.5781C38.4958 89.2816 29.4509 85.6126 27.0095 84.6633C27.2524 83.2376 27.3861 81.7954 27.4098 80.3494C27.4098 80.3494 32.6686 74.3412 33.0128 72.9633C33.357 71.5854 34.2135 66.0018 34.2135 66.0018C34.2135 66.0018 37.0991 71.269 37.9475 72.03C38.796 72.7911 43.7147 72.2023 44.223 72.2023C44.7313 72.2023 44.9874 69.9952 44.9874 69.9952C44.3425 69.157 43.562 68.4327 42.6781 67.8523Z" fill="white" stroke="#263238" stroke-width="0.3" stroke-linecap="round" stroke-linejoin="round"/>
<path d="M41.4935 92.5581C38.4958 89.2616 29.4509 85.5926 27.0095 84.6433C27.0856 84.1987 27.1496 83.7661 27.1976 83.3575C24.9154 83.8621 22.5458 83.8141 20.2858 83.2173C13.8383 81.519 12.4816 78.0382 12.4816 78.0382H12.4335C10.5085 79.6004 7.37475 82.4963 6.29016 85.5926C5.2656 88.5045 6.45826 93.3151 11.9733 94.7611C13.8132 95.2539 15.7446 95.2965 17.6044 94.8853C19.0372 96.0949 20.6238 97.1091 22.323 97.9014C28.0061 100.617 31.7361 101.126 35.214 101.298C38.692 101.47 42.2539 100.365 42.9343 99.6958C43.6146 99.0269 44.9714 96.3753 41.4935 92.5581Z" fill="#696969" stroke="#263238" stroke-width="0.3" stroke-linecap="round" stroke-linejoin="round"/>
<path d="M9.67992 86.1894C9.67992 86.1894 12.7336 82.4523 16.7238 83.9824C30.6634 89.3297 34.1974 95.2738 35.1339 97.649C36.0704 100.024 35.7262 101.302 34.9658 101.811C34.2054 102.319 26.229 100.453 22.4109 99.095C18.5928 97.7372 13.502 98.4141 9.17564 94.7651C4.84927 91.1161 5.52964 87.5552 6.88639 84.4911" fill="#696969"/>
<path d="M9.67992 86.1894C9.67992 86.1894 12.7336 82.4523 16.7238 83.9824C30.6634 89.3297 34.1974 95.2738 35.1339 97.649C36.0704 100.024 35.7262 101.302 34.9658 101.811C34.2054 102.319 26.229 100.453 22.4109 99.095C18.5928 97.7372 13.502 98.4141 9.17564 94.7651C4.84927 91.1161 5.52964 87.5552 6.88639 84.4911" stroke="#263238" stroke-width="0.3" stroke-linecap="round" stroke-linejoin="round"/>
<path d="M44.9714 69.9832C44.3296 69.1535 43.5546 68.4361 42.6781 67.8603C41.4774 67.1794 39.7125 66.2582 39.7125 66.2582C39.7125 66.2582 39.0281 64.5278 38.1116 62.489C37.083 63.3462 35.3981 64.9924 34.7498 66.9911C35.6302 68.5533 37.3192 71.4773 37.9515 72.03C38.796 72.7951 43.7187 72.2023 44.227 72.2023C44.7352 72.2023 44.9714 69.9832 44.9714 69.9832Z" fill="white" stroke="#263238" stroke-width="0.3" stroke-linecap="round" stroke-linejoin="round"/>
<path d="M34.1976 65.9817L34.1135 61.3995" stroke="#263238" stroke-width="0.3" stroke-linecap="round" stroke-linejoin="round"/>
<path d="M47.7248 77.5095C46.7718 77.8513 45.857 78.2916 44.9953 78.8233C44.1948 79.4281 44.0868 79.9368 44.0868 80.846C44.0868 81.7553 42.2658 82.969 43.1783 82.969C44.0908 82.969 44.7792 82.6645 45.6036 81.1505C46.4281 79.6364 47.4206 79.1878 47.4206 79.1878C47.4835 79.9201 47.6175 80.6445 47.8208 81.3507C48.1034 81.9538 48.1407 82.6432 47.9249 83.2734C47.7208 84.0745 48.7253 83.8822 49.0335 81.6712C49.1966 80.2602 48.9882 78.831 48.4292 77.5255L47.7248 77.5095Z" fill="white" stroke="#263238" stroke-width="0.3" stroke-linecap="round" stroke-linejoin="round"/>
<path d="M47.5248 75.0742C47.5248 75.0742 47.825 76.7805 47.7249 77.1691C47.6248 77.5576 46.2081 78.6431 45.7038 79.5723C45.5022 79.9505 45.3805 80.366 45.3461 80.7932C45.3116 81.2204 45.3653 81.6502 45.5037 82.0557C45.7038 82.6766 46.3041 84.6913 46.6123 84.1506C46.9205 83.6099 47.0125 82.985 47.0125 81.8234C47.0125 80.6618 46.8124 79.6484 47.4127 79.1838L48.0211 78.7192C48.3145 79.3967 48.5514 80.0974 48.7295 80.814C49.1297 82.2881 48.4253 83.5298 48.6254 83.7621C48.8255 83.9944 49.6379 83.8382 49.738 83.2173C49.8381 82.5965 50.2423 81.8995 50.2423 80.6578C50.2359 79.9005 50.0092 79.1614 49.5899 78.5309C49.401 78.0081 49.2485 77.4727 49.1337 76.9287C48.9536 75.9914 48.3332 74.221 47.5248 75.0742Z" fill="white" stroke="#263238" stroke-width="0.3" stroke-linecap="round" stroke-linejoin="round"/>
<path d="M50.6544 72.3504C51.0936 73.0931 51.4944 73.8578 51.8551 74.6416C52.1072 75.3225 52.2793 76.0876 51.8551 76.2438C51.4309 76.4 51.0907 75.2264 50.8345 74.7177C50.5784 74.209 49.7219 72.01 50.6544 72.3504Z" fill="#92E3A9" stroke="#263238" stroke-width="0.3" stroke-linecap="round" stroke-linejoin="round"/>
<path d="M50.6545 72.3505C50.1462 71.249 47.2606 69.5466 46.4962 69.1261C45.9639 68.8256 44.263 68.7816 43.2945 68.7776C43.0624 68.7415 42.8261 68.7415 42.5941 68.7776C42.5941 68.7776 41.2373 69.795 41.3214 70.9005C41.3528 71.2157 41.4877 71.5116 41.7049 71.7421C41.9221 71.9725 42.2094 72.1245 42.522 72.1742H42.9223C42.8574 72.5863 42.9291 73.0084 43.1264 73.3759C43.8029 74.4214 44.215 75.6161 44.327 76.8566C44.327 77.9621 45.5997 77.5376 45.7678 76.6884C45.9359 75.8392 45.5157 74.3131 45.5157 73.9727C45.5157 73.6322 46.1921 72.6989 46.1921 72.6989C46.1921 72.6989 48.0611 74.6496 48.3132 75.0742C48.5654 75.4988 48.6534 77.7058 49.3338 77.878C50.0142 78.0503 50.0102 76.6764 50.0102 76.6764C50.1507 76.688 50.2922 76.6703 50.4256 76.6245C50.559 76.5787 50.6815 76.5056 50.7853 76.41C50.8891 76.3144 50.972 76.1983 51.0287 76.0691C51.0854 75.9398 51.1147 75.8002 51.1148 75.659C51.2551 74.5348 51.0963 73.3935 50.6545 72.3505Z" fill="#92E3A9" stroke="#263238" stroke-width="0.3" stroke-linecap="round" stroke-linejoin="round"/>
<path d="M48.7896 72.6068C48.7896 72.6068 50.0583 73.3678 50.0583 74.1328C50.0583 74.8979 49.9742 76.6803 49.9742 76.6803" stroke="#263238" stroke-width="0.3" stroke-linecap="round" stroke-linejoin="round"/>
<path d="M35.386 99.6237C35.386 100.825 36.0624 100.982 33.433 102.596C30.8035 104.21 26.8173 103.104 22.9152 102.255C19.013 101.406 14.3465 100.725 12.5655 100.725C10.7845 100.725 6.53019 101.386 4.92931 101.386C3.32843 101.386 0.690978 101.218 1.03116 100.369C1.37135 99.5196 5.69372 98.1577 6.03391 97.8213C6.3741 97.4848 6.29006 96.7999 7.13852 95.5261C7.33044 95.1769 7.64109 94.908 8.01412 94.7684C8.38714 94.6288 8.79782 94.6276 9.17164 94.7651C10.6701 96.1389 12.5317 97.0524 14.5346 97.3967C17.7363 97.9054 23.6076 98.1577 25.9008 98.1577C28.1941 98.1577 31.0757 99.1791 31.3278 99.1791" fill="#696969"/>
<path d="M35.386 99.6237C35.386 100.825 36.0624 100.982 33.433 102.596C30.8035 104.21 26.8173 103.104 22.9152 102.255C19.013 101.406 14.3465 100.725 12.5655 100.725C10.7845 100.725 6.53019 101.386 4.92931 101.386C3.32843 101.386 0.690978 101.218 1.03116 100.369C1.37135 99.5196 5.69372 98.1577 6.03391 97.8213C6.3741 97.4848 6.29006 96.7999 7.13852 95.5261C7.33044 95.1769 7.64109 94.908 8.01412 94.7684C8.38714 94.6288 8.79782 94.6276 9.17164 94.7651C10.6701 96.1389 12.5317 97.0524 14.5346 97.3967C17.7363 97.9054 23.6076 98.1577 25.9008 98.1577C28.1941 98.1577 31.0757 99.1791 31.3278 99.1791" stroke="#263238" stroke-width="0.3" stroke-linecap="round" stroke-linejoin="round"/>
<path d="M14.5347 97.3967C12.5375 97.0495 10.6818 96.1362 9.18777 94.7651C8.81395 94.6276 8.40327 94.6288 8.03025 94.7684C7.65722 94.908 7.34657 95.1769 7.15465 95.5261C6.30618 96.7999 6.39023 97.4808 6.05004 97.8213C5.70986 98.1617 1.38348 99.5196 1.0473 100.369C0.711114 101.218 3.32855 101.386 4.92943 101.386C6.53031 101.386 10.7846 100.705 12.5656 100.705C13.4909 100.731 14.4141 100.807 15.3311 100.934C15.3311 100.857 15.2991 100.781 15.2791 100.705C15.031 99.6478 15.7434 98.2659 16.1396 97.609C15.5513 97.5449 15.003 97.4728 14.5347 97.3967Z" fill="white" stroke="#263238" stroke-width="0.3" stroke-linecap="round" stroke-linejoin="round"/>
<path d="M9.17171 94.7651C8.79789 94.6276 8.38721 94.6288 8.01419 94.7684C7.64116 94.908 7.33051 95.1769 7.13859 95.5261C6.29012 96.7999 6.37417 97.4808 6.03398 97.8213C5.69379 98.1617 1.36742 99.5196 1.03123 100.369C0.907166 100.669 1.16331 100.881 1.61156 101.034C2.6081 99.9642 5.77384 99.075 6.65833 98.4301C7.54281 97.7852 6.88245 97.5649 7.81496 96.2912C8.04718 95.9937 8.33632 95.7455 8.66548 95.5612C8.99465 95.3769 9.35722 95.2601 9.73201 95.2177C9.36381 94.9533 9.17171 94.7651 9.17171 94.7651Z" stroke="#263238" stroke-width="0.3" stroke-linecap="round" stroke-linejoin="round"/>
<path d="M16.9759 58.7679C16.9759 58.7679 13.498 60.1257 12.8216 62.9256C12.1452 65.7254 13.4139 83.1332 13.4139 83.5578C13.4139 83.9824 15.7032 84.4069 19.2691 84.7594C22.8351 85.1119 29.4467 85.184 29.4467 85.184C29.4467 85.184 32.3323 86.4537 32.9246 86.4537C33.517 86.4537 34.7896 85.6927 34.7896 85.6927C34.7896 85.6927 34.6216 86.4537 35.2979 86.2855C35.9743 86.1173 38.2676 84.2467 38.2676 83.9102C38.2676 83.5738 36.7427 81.9556 35.8102 81.7873C34.8777 81.6191 30.7194 83.2293 30.2952 83.2293C29.871 83.2293 22.4909 81.6271 21.1342 81.0223C20.0553 80.5843 18.9498 80.2151 17.8243 79.9168L18.4207 65.2327" fill="white"/>
<path d="M16.9759 58.7679C16.9759 58.7679 13.498 60.1257 12.8216 62.9256C12.1452 65.7254 13.4139 83.1332 13.4139 83.5578C13.4139 83.9824 15.7032 84.4069 19.2691 84.7594C22.8351 85.1119 29.4467 85.184 29.4467 85.184C29.4467 85.184 32.3323 86.4537 32.9246 86.4537C33.517 86.4537 34.7896 85.6927 34.7896 85.6927C34.7896 85.6927 34.6216 86.4537 35.2979 86.2855C35.9743 86.1173 38.2676 84.2467 38.2676 83.9102C38.2676 83.5738 36.7427 81.9556 35.8102 81.7873C34.8777 81.6191 30.7194 83.2293 30.2952 83.2293C29.871 83.2293 22.4909 81.6271 21.1342 81.0223C20.0553 80.5843 18.9498 80.2151 17.8243 79.9168L18.4207 65.2327" stroke="#263238" stroke-width="0.3" stroke-linecap="round" stroke-linejoin="round"/>
<path d="M35.8102 81.7753C34.8737 81.6031 30.7194 83.2173 30.2951 83.2173C29.8709 83.2173 22.4909 81.6151 21.1341 81.0103C20.0552 80.5723 18.9498 80.2031 17.8243 79.9048L18.1485 71.8578L12.7495 71.6495C12.9776 77.2131 13.4139 83.3094 13.4139 83.5578C13.4139 83.9824 15.7031 84.4069 19.2691 84.7594C22.8351 85.1119 29.4467 85.184 29.4467 85.184C29.4467 85.184 32.3323 86.4537 32.9246 86.4537C33.5169 86.4537 34.7896 85.6927 34.7896 85.6927C34.7896 85.6927 34.6215 86.4537 35.2979 86.2855C35.9743 86.1173 38.2675 84.2467 38.2675 83.9103C38.2675 83.5738 36.7427 81.9436 35.8102 81.7753Z" fill="white" stroke="#263238" stroke-width="0.3" stroke-linecap="round" stroke-linejoin="round"/>
<path d="M38.2676 83.8982C38.2676 83.5578 36.7428 81.9436 35.8102 81.7754C34.8777 81.6071 30.7195 83.2173 30.2952 83.2173C30.1632 83.2173 29.3547 83.0611 28.2621 82.8168C27.8619 83.2173 27.4817 83.9063 27.6098 85.1239L29.4468 85.16C29.4468 85.16 32.3323 86.4297 32.9247 86.4297C33.517 86.4297 34.7897 85.6687 34.7897 85.6687C34.7897 85.6687 34.6216 86.4297 35.298 86.2615C35.9743 86.0933 38.2676 84.2347 38.2676 83.8982Z" fill="#92E3A9" stroke="#263238" stroke-width="0.3" stroke-linecap="round" stroke-linejoin="round"/>
<path d="M19.7774 42.1251C19.7774 42.1251 16.5517 39.5817 15.279 40.4308C14.0063 41.28 8.66334 48.0693 8.15506 49.9358C7.64678 51.8024 10.4443 52.231 9.42776 53.757C8.4112 55.2831 6.45813 55.8799 7.22255 57.7625C7.98697 59.6451 11.0406 59.8013 11.717 60.2259C12.3934 60.6505 13.498 62.2647 15.9593 61.5837C18.4207 60.9028 17.9084 57.7625 19.7774 57.3379C21.6465 56.9134 21.4744 54.3699 20.6259 52.3311C19.7774 50.2923 19.2692 47.4925 20.2857 46.2187C21.3023 44.945 19.7774 42.1251 19.7774 42.1251Z" fill="#263238" stroke="#263238" stroke-width="0.3" stroke-linecap="round" stroke-linejoin="round"/>
<path d="M21.6586 40.3788C21.6586 40.3788 19.0572 40.527 17.8285 43.7794C16.5999 47.0318 17.8285 51.8785 18.1887 52.6756C18.5489 53.4727 20.43 54.2778 21.5866 53.6129C22.7432 52.9479 24.3321 50.4325 25.4847 49.7796C26.6374 49.1267 28.9546 46.383 28.9546 46.383L30.6156 48.4778C30.6156 48.4778 31.7002 48.3336 32.1324 46.2388C32.5646 44.1439 30.9798 41.9008 28.3783 40.5991C25.7769 39.2973 22.9594 39.3694 21.6586 40.3788Z" fill="#263238" stroke="#263238" stroke-width="0.3" stroke-linecap="round" stroke-linejoin="round"/>
<path d="M21.3022 55.0308C21.3022 55.0308 21.3863 57.5783 21.9826 58.6838C22.5789 59.7893 24.1038 64.692 26.0529 64.8802C28.0019 65.0685 27.9179 58.0028 27.9179 58.0028C27.9179 58.0028 25.6286 58.087 24.2719 56.645C22.9151 55.203 21.4743 54.3619 21.3022 55.0308Z" stroke="#263238" stroke-width="0.3" stroke-linecap="round" stroke-linejoin="round"/>
<path d="M29.2426 44.2841C29.2426 44.2841 26.209 47.8289 23.8237 49.347C21.4383 50.8651 20.3578 51.0814 20.3578 51.0814C20.3578 51.0814 21.2943 50.9372 20.6459 51.5901C19.9976 52.243 19.8455 52.3912 19.4893 51.8064C19.1331 51.2216 17.6843 50.6488 17.3921 52.0948C17.268 52.6984 17.3604 53.3264 17.6532 53.8686C17.946 54.4107 18.4204 54.8321 18.993 55.0588C19.6095 55.3187 20.2941 55.3693 20.9421 55.203C20.9421 55.203 21.1582 57.6624 24.0478 59.1084C26.9374 60.5543 29.6148 58.5316 30.4073 57.0135C31.1997 55.4954 30.9156 48.626 30.7675 47.4684C30.6194 46.3109 29.2426 44.2841 29.2426 44.2841Z" fill="white" stroke="#263238" stroke-width="0.3" stroke-linecap="round" stroke-linejoin="round"/>
<path d="M28.5141 51.1255C28.5141 51.1255 28.342 52.4833 28.5982 52.5674C28.8543 52.6515 29.7988 52.992 29.4467 53.5047C29.0945 54.0174 28.5982 54.3539 28.0059 54.0975" stroke="#263238" stroke-width="0.3" stroke-linecap="round" stroke-linejoin="round"/>
<path d="M24.6963 55.2871C24.6963 55.2871 25.3767 56.3886 28.0061 55.7958" stroke="#263238" stroke-width="0.3" stroke-linecap="round" stroke-linejoin="round"/>
<path d="M26.2252 51.6782C26.2252 52.0787 26.0331 52.3992 25.8009 52.3992C25.5688 52.3992 25.3767 52.0747 25.3767 51.6782C25.3767 51.2817 25.5648 50.9572 25.8009 50.9572C26.0371 50.9572 26.2252 51.2776 26.2252 51.6782Z" fill="#263238"/>
<path d="M29.8712 51.2536C29.8712 51.6542 29.6831 51.9746 29.4469 51.9746C29.2108 51.9746 29.0227 51.6502 29.0227 51.2536C29.0227 50.8571 29.2108 50.5326 29.4469 50.5326C29.6831 50.5326 29.8712 50.8531 29.8712 51.2536Z" fill="#263238"/>
<path d="M24.54 50.3564C24.7715 50.0718 25.0727 49.852 25.4143 49.7186C25.7559 49.5853 26.1262 49.5428 26.4891 49.5954" stroke="#263238" stroke-width="0.3" stroke-linecap="round" stroke-linejoin="round"/>
<path d="M28.5984 49.5113C28.5984 49.5113 29.1067 48.4097 30.1993 49.1748" stroke="#263238" stroke-width="0.3" stroke-linecap="round" stroke-linejoin="round"/>
<path d="M56.8219 79.3279C56.8219 79.3279 48.6335 81.9595 46.4162 82.7687C44.199 83.5778 36.915 83.6779 36.4107 84.487C35.9065 85.2961 32.2805 89.8704 31.5721 92.4979C30.8637 95.1255 31.8042 102.243 32.4806 102.688C35.1981 104.486 42.346 103.934 45.3717 103.817C50.9067 103.613 56.2656 105.612 59.3793 99.9722C60.3879 98.1497 58.9311 91.7689 58.731 89.646C58.5309 87.5231 57.8185 83.9823 57.7184 83.4736C57.6184 82.9649 58.3388 79.7325 56.8219 79.3279Z" fill="#0E9769" stroke="#263238" stroke-width="0.3" stroke-linecap="round" stroke-linejoin="round"/>
<path d="M46.5803 89.61C50.9107 88.0799 54.6047 83.6018 55.7534 82.8488C56.902 82.0958 57.5303 80.4455 57.5303 80.4455C55.7163 81.6688 53.7472 82.6441 51.6751 83.3455" stroke="#263238" stroke-width="0.3" stroke-linecap="round" stroke-linejoin="round"/>
<path d="M57.4102 81.1746C56.5914 83.705 55.1441 85.9859 53.2039 87.8036" stroke="#263238" stroke-width="0.3" stroke-linecap="round" stroke-linejoin="round"/>
<path d="M38.0435 84.7434C38.0435 84.7434 39.3162 85.3802 43.6465 85.3802" stroke="#263238" stroke-width="0.3" stroke-linecap="round" stroke-linejoin="round"/>
<path d="M37.531 84.8716C37.531 84.8716 38.5516 89.3337 44.2867 91.1201" stroke="#263238" stroke-width="0.3" stroke-linecap="round" stroke-linejoin="round"/>
<path d="M36.5149 86.4057C37.3846 87.9407 38.5537 89.2852 39.9528 90.3591" stroke="#263238" stroke-width="0.3" stroke-linecap="round" stroke-linejoin="round"/>
</svg>
