<svg width="61" height="100" viewBox="0 0 61 100" fill="none" xmlns="http://www.w3.org/2000/svg">
<path d="M21.8599 63.4809C21.8599 63.4809 24.0256 69.6682 24.0256 72.1646C24.0256 74.661 25.7582 88.3375 25.9728 89.8583C26.1167 90.8029 26.4104 91.7183 26.843 92.5698C28.3226 93.9399 30.0032 95.0746 31.8261 95.9342C34.9654 97.4705 34.8581 97.0211 34.3176 97.6702C33.7772 98.3192 28.7902 98.4383 26.5171 98.2155C24.2441 97.9928 21.9672 98.7571 21.8599 97.7815C21.7525 96.806 21.7487 92.8963 21.7487 91.1603C21.7487 89.4243 17.1987 80.8521 16.6583 78.1329C16.1178 75.4137 16.3324 71.1891 16.3324 71.1891L13.6262 64.66L21.8599 63.4809Z" fill="white" stroke="#263238" stroke-width="0.3" stroke-linecap="round" stroke-linejoin="round"/>
<path d="M26.0994 93.6567V95.1929L21.7756 94.3595C21.7756 95.8267 21.814 97.2592 21.8753 97.8161C21.9826 98.7916 24.2557 98.0312 26.5326 98.2501C28.8095 98.469 33.7888 98.3576 34.3331 97.7047C34.8774 97.0518 34.9809 97.4896 31.8415 95.9688C30.0195 95.1075 28.3392 93.973 26.8584 92.6044C26.8584 92.6044 26.0994 92.6773 26.0994 93.6567Z" fill="#263238" stroke="#263238" stroke-width="0.3" stroke-linecap="round" stroke-linejoin="round"/>
<path d="M12.9747 64.1338C12.9747 64.1338 13.289 70.9356 12.2081 73.6855C6.79184 87.577 6.57718 92.7887 6.57718 92.7887C6.57718 92.7887 12.0011 96.9097 13.1932 97.3668C14.3853 97.8238 15.0331 98.0158 14.2742 98.5574C13.5152 99.0989 6.69218 98.9913 5.50006 98.9913C4.30795 98.9913 1.38325 98.1234 1.06126 97.5818C0.739275 97.0403 1.82789 92.6966 1.82789 92.6966C1.82789 92.6966 2.3722 81.8429 2.3722 79.3465C2.3722 76.8501 5.07841 71.9687 5.07841 71.0969C5.07841 70.2251 4.53794 63.719 4.53794 63.719C4.53794 63.719 11.0275 65.3283 12.9747 64.1338Z" fill="white" stroke="#263238" stroke-width="0.3" stroke-linecap="round" stroke-linejoin="round"/>
<path d="M14.2741 98.5381C15.0407 97.9966 14.3852 97.77 13.1931 97.3475C12.001 96.925 6.58475 92.7887 6.58475 92.7887C6.58475 92.7887 6.04427 93.0037 6.04427 93.8717C6.06867 94.3287 5.95513 94.7824 5.71845 95.1737C5.71845 95.1737 3.98586 94.8511 1.92746 94.4056C1.75496 94.371 1.5978 94.3364 1.44448 94.298C1.16466 95.5923 0.869504 97.2361 1.06116 97.5549C1.38315 98.0964 4.30785 98.9644 5.49996 98.9644C6.69208 98.9644 13.5189 99.0835 14.2741 98.5381Z" fill="#263238" stroke="#263238" stroke-width="0.3" stroke-linecap="round" stroke-linejoin="round"/>
<path d="M21.9674 31.4616L25.973 37.3224L42.5476 34.9374V38.0828C42.5476 38.0828 26.0995 42.6417 25.4325 42.1001C24.7656 41.5586 19.2573 38.9508 19.2573 38.9508L21.9674 31.4616Z" fill="#B5B5B5" stroke="#263238" stroke-width="0.3" stroke-linecap="round" stroke-linejoin="round"/>
<path d="M7.12528 23.7573C7.12528 23.7573 5.93317 30.7049 5.93317 33.524V43.5096C5.93317 43.5096 2.48332 49.0478 1.92752 53.9292C1.37171 58.8107 1.27588 64.2413 1.27588 64.2413C1.27588 64.2413 6.47748 66.5226 10.7016 66.1962C13.2151 66.004 15.7125 65.6396 18.1763 65.1054L24.133 63.6959L19.6904 43.5096C19.6904 43.5096 21.86 37.7487 22.1819 37.4337C22.5039 37.1188 23.7152 33.209 23.2667 30.2671C22.8182 27.3252 21.2083 21.2609 17.8505 19.6324C14.4926 18.004 8.64321 19.9589 7.12528 23.7573Z" fill="#5E5E5E" stroke="#263238" stroke-width="0.3" stroke-linecap="round" stroke-linejoin="round"/>
<path d="M12.0623 43.598C11.8275 45.3683 11.0844 47.0321 9.92344 48.3872C8.00686 50.6033 6.4276 51.0296 6.4276 51.0296C6.4276 51.0296 5.49997 60.0512 5.85646 63.5692" stroke="#263238" stroke-width="0.3" stroke-linecap="round" stroke-linejoin="round"/>
<path d="M13.0666 43.8976C12.8742 45.5617 12.3391 47.1677 11.495 48.6138C10.1381 50.8299 7.27856 51.6172 7.27856 51.6172" stroke="#263238" stroke-width="0.3" stroke-linecap="round" stroke-linejoin="round"/>
<path d="M19.8014 22.9968C19.2341 21.0573 17.5897 19.7784 16.7847 19.2522C14.2817 18.6339 10.9851 19.5096 8.86924 21.3723C8.83091 21.6027 8.80408 21.8101 8.75041 22.0213C8.64308 22.4553 7.01782 31.8956 7.01782 31.8956C7.01782 31.8956 7.40114 31.9724 7.99911 32.0799C7.40114 35.1332 8.07194 40.2259 8.07194 40.2259C8.07194 40.2259 11.2726 41.259 13.7489 41.1553C16.2251 41.0516 19.1153 39.6191 19.1153 39.6191C19.1153 38.7473 19.8397 34.3728 20.1809 32.3603H20.3419C20.3419 32.3603 20.5565 25.6008 19.8014 22.9968Z" fill="white" stroke="#263238" stroke-width="0.3" stroke-linecap="round" stroke-linejoin="round"/>
<path d="M15.2975 31.3348C15.2975 31.3348 11.4643 35.1755 9.51709 35.7784Z" fill="white"/>
<path d="M15.2975 31.3348C15.2975 31.3348 11.4643 35.1755 9.51709 35.7784" stroke="#263238" stroke-width="0.3" stroke-linecap="round" stroke-linejoin="round"/>
<path d="M15.2973 33.2974C15.2973 33.2974 13.1277 35.2638 11.376 36.7117Z" fill="white"/>
<path d="M15.2973 33.2974C15.2973 33.2974 13.1277 35.2638 11.376 36.7117" stroke="#263238" stroke-width="0.3" stroke-linecap="round" stroke-linejoin="round"/>
<path d="M23.6462 61.4837C21.7293 62.5087 19.5901 63.0455 17.4173 63.0469C17.4173 63.0469 14.1668 64.4602 9.07636 64.2413C6.36065 64.0936 3.71641 63.3153 1.35254 61.9677C1.29504 63.3503 1.27588 64.2413 1.27588 64.2413C1.27588 64.2413 6.47748 66.5226 10.7016 66.1962C13.2151 66.0041 15.7125 65.6396 18.1763 65.1055L24.133 63.6959L23.6462 61.4837Z" fill="white" stroke="#263238" stroke-width="0.3" stroke-linecap="round" stroke-linejoin="round"/>
<path d="M17.5247 65.3282L17.7431 53.4953" stroke="#263238" stroke-width="0.3" stroke-linecap="round" stroke-linejoin="round"/>
<path d="M28.2499 8.6713V11.4903C28.2499 11.4903 29.6567 12.5772 28.7904 13.3377C28.4422 13.6893 28.0396 13.9824 27.5983 14.2056C27.5983 14.2056 27.0578 16.7021 25.8657 17.8965C24.6736 19.0909 24.0258 18.872 22.2932 17.6776C20.5606 16.4831 19.4758 15.7265 19.4758 15.7265C19.4758 15.7265 20.5568 10.4073 21.3157 8.6713C22.0747 6.93534 24.4589 6.71642 25.6511 6.9315C26.8432 7.14657 28.2499 8.6713 28.2499 8.6713Z" fill="white" stroke="#263238" stroke-width="0.3" stroke-linecap="round" stroke-linejoin="round"/>
<path d="M27.0651 11.2791C27.0651 11.6055 26.9195 11.8705 26.7431 11.8705C26.5668 11.8705 26.4211 11.6055 26.4211 11.2791C26.4211 10.9526 26.563 10.6838 26.7431 10.6838C26.9233 10.6838 27.0651 10.9526 27.0651 11.2791Z" fill="#263238"/>
<path d="M26.0417 9.87723C26.0417 9.87723 26.6359 8.9094 27.4409 9.71593" stroke="#263238" stroke-width="0.3" stroke-linecap="round" stroke-linejoin="round"/>
<path d="M25.2368 14.4092C25.5929 14.7721 26.0746 14.9839 26.5823 15.0007" stroke="#263238" stroke-width="0.3" stroke-linecap="round" stroke-linejoin="round"/>
<path d="M23.4162 7.75724C23.4162 7.75724 21.1393 13.2263 21.2543 15.8494C21.3693 18.4726 24.3208 25.9964 23.075 28.5043C21.8293 31.0122 19.1997 32.8442 17.2831 29.8716C15.3666 26.8989 14.6651 25.9964 13.4155 27.8168C12.1659 29.6373 10.6863 32.9479 7.84206 32.9479C4.99785 32.9479 1.56717 29.1879 3.27293 25.1975C4.97869 21.2071 8.85018 19.498 11.2382 15.6228C12.9916 12.8692 14.2259 9.81655 14.8797 6.61658L23.6385 6.95839L23.4162 7.75724Z" fill="#263238" stroke="#263238" stroke-width="0.3" stroke-linecap="round" stroke-linejoin="round"/>
<path d="M14.6494 8.32563H28.3031C28.3031 8.32563 28.3031 2.51092 27.1532 1.60069C26.0032 0.690459 17.0298 0.917056 16.0063 1.60069C14.9829 2.28432 14.2163 7.642 14.6494 8.32563Z" fill="#0E9769" stroke="#263238" stroke-width="0.3" stroke-linecap="round" stroke-linejoin="round"/>
<path d="M23.9412 8.26419C23.9412 8.26419 27.1265 9.51623 29.9707 9.51623C32.8149 9.51623 34.2945 8.26419 34.2945 8.26419H23.9412Z" fill="#0E9769" stroke="#263238" stroke-width="0.3" stroke-linecap="round" stroke-linejoin="round"/>
<path d="M46.3383 34.3805C46.3383 34.3805 47.5304 34.1654 47.5304 35.0334C47.5304 35.9013 46.1236 35.8015 44.9315 35.3598C43.7394 34.9181 45.3647 34.6109 46.3383 34.3805Z" fill="#B5B5B5" stroke="#263238" stroke-width="0.3" stroke-linecap="round" stroke-linejoin="round"/>
<path d="M46.5569 35.4789C46.5569 35.4789 47.749 35.26 47.749 36.1318C47.749 37.0036 46.3384 36.8999 45.1501 36.4544C43.9618 36.0089 45.5832 35.6978 46.5569 35.4789Z" fill="#B5B5B5" stroke="#263238" stroke-width="0.3" stroke-linecap="round" stroke-linejoin="round"/>
<path d="M46.7756 36.5658C46.7756 36.5658 47.9639 36.3469 47.9639 37.2148C47.9639 38.0828 46.5572 37.983 45.365 37.5413C44.1729 37.0996 45.7982 36.7809 46.7756 36.5658Z" fill="#B5B5B5" stroke="#263238" stroke-width="0.3" stroke-linecap="round" stroke-linejoin="round"/>
<path d="M46.5608 37.6757C46.5608 37.6757 47.7529 37.4568 47.7529 38.3248C47.7529 39.1927 46.3423 39.0929 45.154 38.6512C43.9657 38.2095 45.5872 37.8908 46.5608 37.6757Z" fill="#B5B5B5" stroke="#263238" stroke-width="0.3" stroke-linecap="round" stroke-linejoin="round"/>
<path d="M41.3554 35.4789C41.3554 35.4789 34.6396 50.2384 34.6396 51.2254C34.6396 52.2125 34.6397 54.8049 35.2913 56.3258C35.9429 57.8467 39.8412 60.6657 41.5738 60.9922C43.3064 61.3186 50.6738 59.5826 51.5401 59.3637C52.4064 59.1448 54.6833 53.0689 54.5721 51.8745C54.4609 50.6801 51.6474 46.1136 51.2142 45.3646C50.7811 44.6157 47.2086 39.7189 46.7754 38.8356C46.3423 37.9522 45.039 35.6901 45.039 35.6901L41.3554 35.4789Z" fill="white" stroke="#263238" stroke-width="0.3" stroke-linecap="round" stroke-linejoin="round"/>
<path d="M42.5475 38.0828L41.6812 44.489" stroke="#263238" stroke-width="0.3" stroke-linecap="round" stroke-linejoin="round"/>
<path d="M44.0654 37.3224V45.791" stroke="#263238" stroke-width="0.3" stroke-linecap="round" stroke-linejoin="round"/>
<path d="M45.1504 36.4544L48.1824 46.006" stroke="#263238" stroke-width="0.3" stroke-linecap="round" stroke-linejoin="round"/>
<path d="M23.7994 36.3469C23.7994 36.3469 18.4943 22.9047 17.0837 22.2364C15.6731 21.5681 11.4605 21.7064 11.8936 26.6992C12.3268 31.692 20.6677 42.1116 21.7487 42.2192C22.8296 42.3267 39.8412 36.6848 39.8412 36.6848C39.8412 36.6848 45.591 37.453 46.0164 36.7924C46.4419 36.1318 46.5569 33.7544 46.5569 33.7544C46.5569 33.7544 47.3235 32.126 46.5569 31.5845C45.7903 31.043 42.3404 31.3656 41.7923 31.3656C41.2442 31.3656 38.6491 33.9695 38.6491 33.9695L23.7994 36.3469Z" fill="white" stroke="#263238" stroke-width="0.3" stroke-linecap="round" stroke-linejoin="round"/>
<path d="M46.0319 36.7809C46.465 36.1318 46.5724 33.7429 46.5724 33.7429C46.5724 33.7429 47.339 32.1145 46.5724 31.573C45.8057 31.0314 42.3559 31.354 41.8077 31.354C41.2596 31.354 38.6645 33.958 38.6645 33.958L35.8472 34.4112L36.3263 37.8332C38.4077 37.1534 39.8567 36.681 39.8567 36.681C39.8567 36.681 45.5834 37.453 46.0319 36.7809Z" fill="#0E9769" stroke="#263238" stroke-width="0.3" stroke-linecap="round" stroke-linejoin="round"/>
<path d="M47.9636 30.0521L54.1388 33.3089L52.9467 35.4789L47.9636 30.0521Z" fill="white" stroke="#263238" stroke-width="0.3" stroke-linecap="round" stroke-linejoin="round"/>
<path d="M42.8733 31.139L43.7396 28.8576C43.7396 28.8576 44.3912 28.5312 46.7755 29.1841C49.1597 29.837 53.8131 36.4544 53.8131 36.4544C53.8131 36.4544 50.4553 38.8433 49.9148 38.9508C49.3743 39.0583 47.4233 33.1899 47.2086 32.656C47.0368 32.2695 46.8179 31.9057 46.557 31.573L42.8733 31.139Z" fill="white" stroke="#263238" stroke-width="0.3" stroke-linecap="round" stroke-linejoin="round"/>
<path d="M46.557 31.573L44.6404 30.3248" stroke="#263238" stroke-width="0.3" stroke-linecap="round" stroke-linejoin="round"/>
<path d="M59.3367 55.55H32.0139V98.4498H59.3367V55.55Z" fill="#0E9769" stroke="#263238" stroke-width="0.3" stroke-linecap="round" stroke-linejoin="round"/>
<path d="M59.2716 70.0983H32.0791C31.886 70.0983 31.7007 70.0214 31.5641 69.8846C31.4276 69.7477 31.3508 69.5621 31.3508 69.3686C31.3508 69.175 31.4276 68.9894 31.5641 68.8526C31.7007 68.7157 31.886 68.6389 32.0791 68.6389H59.2716C59.4647 68.6389 59.65 68.7157 59.7866 68.8526C59.9231 68.9894 59.9999 69.175 59.9999 69.3686C59.9999 69.5621 59.9231 69.7477 59.7866 69.8846C59.65 70.0214 59.4647 70.0983 59.2716 70.0983Z" fill="#0E9769" stroke="#263238" stroke-width="0.3" stroke-linecap="round" stroke-linejoin="round"/>
<path d="M59.2716 56.1952H32.0791C31.886 56.1952 31.7007 56.1183 31.5641 55.9815C31.4276 55.8446 31.3508 55.659 31.3508 55.4655C31.3508 55.272 31.4276 55.0864 31.5641 54.9495C31.7007 54.8127 31.886 54.7358 32.0791 54.7358H59.2716C59.4647 54.7358 59.65 54.8127 59.7866 54.9495C59.9232 55.0864 59.9999 55.272 59.9999 55.4655C59.9999 55.659 59.9232 55.8446 59.7866 55.9815C59.65 56.1183 59.4647 56.1952 59.2716 56.1952Z" fill="#0E9769" stroke="#263238" stroke-width="0.3" stroke-linecap="round" stroke-linejoin="round"/>
<path d="M59.2716 84.6312H32.0791C31.886 84.6312 31.7007 84.5544 31.5641 84.4175C31.4276 84.2807 31.3508 84.0951 31.3508 83.9015C31.3508 83.708 31.4276 83.5224 31.5641 83.3855C31.7007 83.2487 31.886 83.1718 32.0791 83.1718H59.2716C59.4647 83.1718 59.65 83.2487 59.7866 83.3855C59.9231 83.5224 59.9999 83.708 59.9999 83.9015C59.9999 84.0951 59.9231 84.2807 59.7866 84.4175C59.65 84.5544 59.4647 84.6312 59.2716 84.6312Z" fill="#0E9769" stroke="#263238" stroke-width="0.3" stroke-linecap="round" stroke-linejoin="round"/>
</svg>
