<svg width="140" height="88" viewBox="0 0 140 88" fill="none" xmlns="http://www.w3.org/2000/svg">
<path d="M107.928 43.0612L103.596 51.4471C103.596 51.4471 94.0525 53.9613 91.4876 54.5132C90.0789 54.862 88.6163 54.9331 87.1807 54.7227L83.2242 54.1811C83.2242 54.1811 79.3033 56.4909 79.0696 56.6135C78.836 56.7362 78.8817 57.191 79.4709 57.1757C80.0464 57.0709 80.5997 56.8669 81.1063 56.5726C81.1063 56.5726 79.2525 57.6305 79.3947 57.9269C79.4403 58.0118 79.5023 58.0867 79.5771 58.1473C79.6519 58.2078 79.7379 58.2527 79.8301 58.2793C79.9223 58.306 80.0189 58.3139 80.1142 58.3025C80.2095 58.2911 80.3016 58.2607 80.3851 58.213C81.0627 57.9451 81.7586 57.7265 82.4674 57.5589C82.4674 57.5589 80.121 59.5366 81.0047 59.649C81.8884 59.7614 82.7468 58.6832 82.7468 58.6832C82.7468 58.6832 81.8427 60.1038 82.4674 59.9505C83.1252 59.677 83.7463 59.3217 84.3162 58.8927C84.3162 58.8927 87.2823 58.6167 88.3082 58.4941C88.9777 58.3911 89.6161 58.1398 90.1773 57.7582C90.1773 57.7582 96.917 57.5385 99.7003 57.0428C102.484 56.5471 105.993 55.8061 106.354 55.3871C106.714 54.968 112.337 44.5943 112.337 44.5943L107.928 43.0612Z" fill="white"/>
<path d="M82.3813 60.2367C82.3204 60.2383 82.2601 60.2252 82.2053 60.1986C82.1505 60.1719 82.1029 60.1324 82.0664 60.0834C82.0295 60.0219 82.0059 59.9532 81.9971 59.8819C81.9884 59.8105 81.9947 59.7382 82.0156 59.6695C81.7051 59.8656 81.3398 59.9552 80.9744 59.925C80.8836 59.9221 80.7958 59.8911 80.7231 59.8363C80.6504 59.7814 80.5963 59.7053 80.5681 59.6184C80.4665 59.2606 80.9236 58.673 81.5077 58.0853C81.1603 58.1754 80.8206 58.2933 80.4919 58.4379C80.3755 58.5058 80.2462 58.5486 80.1125 58.5636C79.9787 58.5785 79.8433 58.5653 79.7148 58.5248C79.5917 58.4867 79.4774 58.4241 79.3788 58.3407C79.2802 58.2573 79.1993 58.1548 79.1409 58.0393C79.1003 57.9422 79.0241 57.7838 79.3796 57.4363C79.2289 57.4473 79.0787 57.4083 78.9521 57.3253C78.8255 57.2422 78.7295 57.1196 78.6787 56.9764C78.6494 56.8647 78.6585 56.7463 78.7046 56.6405C78.7508 56.5347 78.8311 56.4477 78.9327 56.3938C79.1105 56.2967 81.721 54.7636 83.072 53.9665C83.1214 53.9386 83.1785 53.9279 83.2346 53.9358L87.1961 54.4724C88.6013 54.6782 90.0327 54.6088 91.4117 54.268C93.7937 53.7569 102.331 51.4931 103.403 51.2018L107.73 42.9437C107.757 42.8875 107.804 42.8436 107.861 42.8209C107.919 42.7981 107.983 42.7982 108.04 42.821L112.449 44.3541C112.483 44.3666 112.514 44.3863 112.541 44.4118C112.567 44.4374 112.587 44.4682 112.601 44.5023C112.616 44.536 112.624 44.5726 112.624 44.6096C112.624 44.6466 112.616 44.6832 112.601 44.7169C112.027 45.7799 106.948 55.1214 106.588 55.5506C106.12 56.1025 102.123 56.8793 99.7868 57.2983C97.1407 57.7685 91.0764 57.9882 90.2994 58.0137C89.7191 58.3935 89.0643 58.6427 88.3795 58.7445C87.4501 58.8569 84.9005 59.0971 84.4484 59.138C83.8745 59.5776 83.2419 59.9337 82.5692 60.1958C82.5094 60.2202 82.4458 60.234 82.3813 60.2367ZM82.747 58.4481C82.8004 58.4477 82.8524 58.4657 82.8943 58.4992C82.9211 58.5172 82.9441 58.5404 82.9619 58.5674C82.9798 58.5944 82.9922 58.6247 82.9983 58.6565C83.0044 58.6884 83.0042 58.7211 82.9977 58.7529C82.9912 58.7847 82.9785 58.8148 82.9603 58.8416C82.7914 59.1064 82.6485 59.3871 82.5337 59.6797C83.1105 59.4144 83.6571 59.0872 84.164 58.7036C84.2022 58.6786 84.2457 58.6629 84.291 58.6576C84.3215 58.6576 87.2672 58.3817 88.278 58.259C88.9036 58.1641 89.5005 57.9302 90.0251 57.5743C90.0671 57.5447 90.1162 57.527 90.1673 57.5232C90.2334 57.5232 96.9223 57.2983 99.6548 56.8128C103.611 56.1127 105.922 55.4893 106.161 55.2389C106.425 54.9118 109.716 48.892 111.971 44.7578L108.055 43.373L103.82 51.5493C103.803 51.5807 103.779 51.6082 103.751 51.6302C103.723 51.6521 103.691 51.6681 103.657 51.6771C103.566 51.6771 94.0832 54.1964 91.5437 54.7432C90.1002 55.1019 88.6008 55.1731 87.1301 54.9527L83.2752 54.4417C82.7114 54.7739 79.4101 56.7157 79.212 56.8333C79.2481 56.8693 79.2926 56.8956 79.3414 56.9099C79.3902 56.9242 79.4417 56.9259 79.4914 56.915C80.0294 56.8182 80.5456 56.6243 81.0151 56.3427C81.0737 56.3096 81.1429 56.3012 81.2077 56.3194C81.2724 56.3376 81.3273 56.3809 81.3604 56.4398C81.3933 56.4988 81.4016 56.5685 81.3835 56.6336C81.3655 56.6987 81.3224 56.754 81.2639 56.7873C80.7024 57.0901 80.1775 57.457 79.6996 57.8809C79.7602 57.9476 79.8373 57.997 79.9231 58.024C79.984 58.0451 80.0489 58.0524 80.113 58.0453C80.1771 58.0383 80.2389 58.017 80.2938 57.9831C80.9919 57.7022 81.7101 57.475 82.4422 57.3034C82.4985 57.2875 82.5585 57.2916 82.6122 57.315C82.6658 57.3384 82.7098 57.3797 82.7366 57.432C82.7635 57.4842 82.7716 57.5442 82.7596 57.6018C82.7476 57.6594 82.7162 57.711 82.6708 57.748C82.0724 58.2136 81.5483 58.7685 81.1166 59.3935C81.716 59.4191 82.3813 58.7752 82.5845 58.5197C82.6286 58.4773 82.6861 58.452 82.747 58.4481Z" fill="#263238"/>
<path d="M81.2333 57.84H81.2079C80.7 57.84 80.5578 57.5742 80.5121 57.4261C80.4795 57.2309 80.5039 57.0305 80.5824 56.8491C80.6608 56.6677 80.7899 56.5131 80.9539 56.404C81.3552 56.0974 84.2807 54.8198 84.6108 54.6767C84.6415 54.6632 84.6745 54.6559 84.708 54.6553C84.7414 54.6546 84.7747 54.6607 84.8059 54.673C84.837 54.6854 84.8654 54.7038 84.8895 54.7272C84.9135 54.7507 84.9327 54.7787 84.946 54.8096C84.9718 54.8721 84.9724 54.9422 84.9478 55.0051C84.9232 55.0681 84.8752 55.1189 84.8139 55.1469C83.5798 55.6835 81.5228 56.6084 81.2587 56.8128C81.1836 56.8614 81.1206 56.9268 81.0748 57.004C81.029 57.0811 81.0015 57.1678 80.9946 57.2574C80.9946 57.283 81.0657 57.3187 81.218 57.3187C81.792 57.3494 83.6813 56.7515 84.367 56.5266C84.4116 56.5123 84.4593 56.5105 84.5049 56.5213C84.5505 56.5321 84.5924 56.5551 84.626 56.588C84.9217 56.8827 85.305 57.0722 85.7176 57.1275C86.1302 57.1829 86.5494 57.1011 86.9116 56.8946L88.359 56.0718C88.3881 56.0532 88.4207 56.0407 88.4548 56.0351C88.4889 56.0295 88.5237 56.031 88.5572 56.0394C88.5907 56.0478 88.6221 56.063 88.6496 56.0841C88.677 56.1051 88.6999 56.1316 88.7169 56.1619C88.7338 56.1921 88.7444 56.2256 88.7481 56.2601C88.7518 56.2946 88.7484 56.3296 88.7382 56.3627C88.728 56.3959 88.7112 56.4267 88.6888 56.4531C88.6664 56.4795 88.6389 56.5011 88.6079 56.5164L87.1655 57.329C86.7301 57.5789 86.228 57.6861 85.7292 57.6357C85.2304 57.5853 84.7596 57.3799 84.3822 57.0479C83.3601 57.4124 82.3057 57.6777 81.2333 57.84Z" fill="#263238"/>
<path d="M109.904 73.8094L111.631 80.7031C111.631 80.7031 109.005 82.5121 108.304 82.8954C107.603 83.2787 105.033 83.9175 104.393 84.1883C103.753 84.4591 103.307 85.0877 104.073 85.5374C104.84 85.9871 108.878 86.3142 110.676 86.2477C112.474 86.1813 115.161 85.8593 115.161 85.8593C115.161 85.8593 117.787 85.8593 118.046 85.2819C118.305 84.7044 118.107 82.7012 117.594 82.0573C116.939 81.1996 116.425 80.2421 116.07 79.2212C115.923 78.5773 115.349 74.7037 115.349 74.7037L109.904 73.8094Z" fill="white"/>
<path d="M110.168 86.5135C108.238 86.5135 104.734 86.2222 103.946 85.7623C103.789 85.6881 103.658 85.5692 103.567 85.4201C103.477 85.2711 103.432 85.0986 103.439 84.9242C103.484 84.6962 103.59 84.4849 103.746 84.313C103.902 84.141 104.101 84.0149 104.322 83.9481C104.576 83.8459 105.104 83.6875 105.714 83.5087C106.563 83.2902 107.394 83.0101 108.203 82.6706C108.792 82.3486 110.803 80.9791 111.362 80.5958L109.676 73.8708C109.666 73.8295 109.667 73.7867 109.678 73.7458C109.688 73.7049 109.709 73.6672 109.737 73.6357C109.765 73.6049 109.801 73.5817 109.841 73.5684C109.881 73.555 109.924 73.5518 109.965 73.559L115.41 74.4584C115.462 74.4683 115.51 74.4942 115.548 74.5326C115.585 74.571 115.609 74.6201 115.618 74.6731C115.618 74.714 116.197 78.5415 116.324 79.1752C116.678 80.1536 117.178 81.0721 117.807 81.8989C118.371 82.6041 118.594 84.6993 118.289 85.3841C117.985 86.0689 116.014 86.1149 115.176 86.1149C115.176 86.1149 112.484 86.4368 110.701 86.5032L110.168 86.5135ZM110.244 74.1263L111.88 80.6418C111.892 80.6927 111.89 80.7464 111.871 80.7956C111.853 80.8448 111.821 80.8874 111.778 80.9178C111.666 80.9893 109.132 82.7319 108.426 83.1203C107.586 83.4779 106.72 83.7717 105.836 83.9992C105.262 84.1679 104.724 84.3263 104.49 84.4234C104.175 84.5511 103.936 84.776 103.926 84.9651C103.916 85.1541 104.068 85.241 104.2 85.3177C104.861 85.706 108.731 86.0638 110.661 85.9922C112.423 85.9309 115.1 85.6089 115.125 85.6089C116.436 85.6089 117.7 85.3994 117.807 85.1797C118.02 84.6993 117.858 82.8034 117.39 82.2209C116.707 81.331 116.172 80.3351 115.806 79.2723C115.689 78.705 115.242 75.7207 115.125 74.9337L110.244 74.1263Z" fill="#263238"/>
<path d="M118.041 85.2819C118.295 84.6993 118.102 82.7012 117.589 82.0573C117.487 81.9296 117.365 81.7507 117.238 81.5463C115.745 82.226 112.596 82.3639 112.596 82.3639C112.467 81.984 112.36 81.5966 112.276 81.2039C112.21 80.8207 111.631 80.6929 111.631 80.6929C111.631 80.6929 109.005 82.5019 108.304 82.8852C107.603 83.2685 105.033 83.9072 104.393 84.1781C103.753 84.4489 103.307 85.0775 104.073 85.5272C104.84 85.9769 108.878 86.3039 110.676 86.2375C112.474 86.1711 115.161 85.8491 115.161 85.8491C115.161 85.8491 117.782 85.8593 118.041 85.2819Z" fill="white"/>
<path d="M110.168 86.5135C108.238 86.5135 104.734 86.2222 103.946 85.7623C103.789 85.6882 103.658 85.5692 103.567 85.4201C103.477 85.2711 103.432 85.0986 103.439 84.9242C103.484 84.6962 103.59 84.4849 103.746 84.313C103.902 84.141 104.101 84.0149 104.322 83.9481C104.576 83.8459 105.104 83.6875 105.714 83.5087C106.562 83.2878 107.393 83.0078 108.203 82.6706C108.888 82.2975 111.484 80.5141 111.509 80.4936C111.538 80.4744 111.57 80.4613 111.604 80.4552C111.638 80.449 111.673 80.4499 111.707 80.4579C111.783 80.4579 112.454 80.6367 112.545 81.1784C112.611 81.4945 112.694 81.8067 112.794 82.1136C113.495 82.0727 115.928 81.8836 117.152 81.3266C117.207 81.303 117.268 81.2993 117.326 81.3161C117.383 81.3328 117.433 81.369 117.467 81.4186C117.589 81.6025 117.71 81.7712 117.807 81.8989C118.371 82.6041 118.594 84.6993 118.289 85.3841C117.985 86.0689 116.014 86.1149 115.176 86.1149C115.176 86.1149 112.484 86.4368 110.701 86.5032L110.168 86.5135ZM111.692 80.9842C111.184 81.3215 109.076 82.7728 108.441 83.1203C107.601 83.4779 106.735 83.7717 105.851 83.9992C105.282 84.1679 104.739 84.3263 104.505 84.4234C104.19 84.5511 103.952 84.776 103.941 84.9651C103.931 85.1541 104.084 85.241 104.216 85.3177C104.876 85.706 108.746 86.0638 110.676 85.9922C112.438 85.9309 115.115 85.609 115.14 85.609C116.451 85.609 117.716 85.3994 117.822 85.1797C118.035 84.6993 117.873 82.8034 117.406 82.2209C117.33 82.1238 117.248 82.0062 117.157 81.8785C115.582 82.4968 112.743 82.6297 112.621 82.6348C112.565 82.6405 112.509 82.6262 112.463 82.5945C112.416 82.5627 112.383 82.5154 112.367 82.4611C112.235 82.069 112.125 81.6698 112.037 81.2653C112.002 81.1375 111.819 81.0353 111.677 80.9842H111.692Z" fill="#263238"/>
<path d="M125.659 77.4173L129.631 79.0934C129.647 80.2566 129.384 81.4066 128.864 82.4457C128.031 83.9277 127.518 85.0008 126.558 85.5374C125.598 86.074 124.572 86.8303 125.212 87.3464C125.852 87.8625 131.937 87.7961 132.643 87.5355C133.349 87.2749 135.527 83.9277 136.035 83.0283C136.543 82.1289 137.381 79.354 137.051 78.9401C136.721 78.5262 134.938 76.5536 134.938 76.5536L134.364 76.2317L127.061 75.2096L125.659 77.4173Z" fill="white"/>
<path d="M129.219 87.9903C127.391 87.9903 125.461 87.8728 125.054 87.5457C124.955 87.4747 124.876 87.379 124.824 87.2679C124.773 87.1569 124.751 87.0343 124.76 86.9121C124.816 86.304 125.705 85.7061 126.436 85.3126C127.167 84.9191 127.69 84.035 128.351 82.8443L128.64 82.3333C129.12 81.383 129.372 80.333 129.377 79.2672L125.562 77.6574C125.528 77.6442 125.497 77.623 125.472 77.5954C125.448 77.5679 125.43 77.5349 125.42 77.499C125.408 77.4637 125.404 77.4259 125.408 77.3887C125.413 77.3515 125.425 77.3158 125.446 77.2844L126.858 75.0921C126.885 75.0524 126.923 75.0209 126.966 75.0011C127.01 74.9813 127.059 74.9739 127.106 74.9797L134.41 76.0017C134.44 76.0074 134.469 76.0177 134.496 76.0324L135.07 76.3543C135.095 76.3667 135.118 76.3841 135.136 76.4054C135.212 76.4872 136.939 78.4087 137.259 78.797C137.726 79.3643 136.706 82.3742 136.243 83.1458C136 83.5751 133.602 87.4486 132.714 87.7706C131.558 87.9519 130.388 88.0255 129.219 87.9903ZM126.04 77.2997L129.732 78.8584C129.776 78.8771 129.814 78.9082 129.841 78.9481C129.868 78.988 129.883 79.0349 129.885 79.0832C129.898 80.2969 129.616 81.4953 129.062 82.5735L128.772 83.0845C128.102 84.3007 127.569 85.2666 126.654 85.7572C125.639 86.2937 125.268 86.7383 125.247 86.9529C125.247 86.9785 125.248 87.0449 125.349 87.1318C125.857 87.5406 131.764 87.5713 132.536 87.2851C133.079 87.0858 135.131 84.0606 135.796 82.8903C136.304 81.9705 137.01 79.4614 136.838 79.1087C136.553 78.7664 134.999 77.0289 134.771 76.7734L134.263 76.4974L127.152 75.4754L126.04 77.2997Z" fill="#263238"/>
<path d="M137.061 78.9657C136.741 78.5773 134.948 76.5792 134.948 76.5792L134.375 76.2572H134.329C134.329 76.7683 134.329 77.3151 134.329 77.7443C134.329 78.843 132.983 80.1308 132.983 80.1308C132.245 79.6267 131.448 79.2148 130.611 78.9043C129.331 78.4546 129.651 79.0985 129.651 79.0985C129.667 80.2618 129.404 81.4117 128.884 82.4508C128.051 83.9328 127.538 85.0059 126.578 85.5425C125.618 86.0791 124.592 86.8354 125.232 87.3515C125.872 87.8677 131.957 87.8012 132.663 87.5406C133.369 87.28 135.548 83.9328 136.056 83.0334C136.564 82.134 137.381 79.354 137.061 78.9657Z" fill="white"/>
<path d="M129.219 87.9903C127.391 87.9903 125.461 87.8728 125.054 87.5457C124.955 87.4746 124.876 87.3789 124.824 87.2679C124.773 87.1569 124.751 87.0343 124.76 86.9121C124.821 86.3039 125.705 85.706 126.436 85.3126C127.167 84.9191 127.69 84.035 128.351 82.8443L128.64 82.3333C129.135 81.3518 129.387 80.2652 129.377 79.1649C129.342 79.0811 129.331 78.9895 129.343 78.8997C129.356 78.8099 129.392 78.7251 129.448 78.6539C129.646 78.4291 130.022 78.4291 130.677 78.6539C131.468 78.9474 132.224 79.3278 132.932 79.7884C133.262 79.4358 134.054 78.5108 134.054 77.7443C134.054 77.315 134.054 76.7631 134.054 76.2521C134.056 76.2161 134.065 76.1808 134.081 76.1483C134.097 76.1158 134.119 76.0868 134.146 76.063C134.173 76.0403 134.205 76.0235 134.239 76.0138C134.273 76.0042 134.309 76.0018 134.344 76.0068C134.39 76.0115 134.434 76.0236 134.476 76.0426L135.05 76.3645C135.075 76.3769 135.098 76.3943 135.116 76.4156C135.192 76.4974 136.919 78.4188 137.239 78.8072C137.706 79.3745 136.685 82.3844 136.223 83.156C135.979 83.5853 133.582 87.4588 132.693 87.7808C131.544 87.9574 130.381 88.0276 129.219 87.9903ZM129.869 78.9963C129.873 79.0251 129.873 79.0544 129.869 79.0832C129.888 80.2955 129.611 81.494 129.062 82.5735L128.772 83.0845C128.102 84.3007 127.569 85.2666 126.654 85.7571C125.639 86.2937 125.268 86.7383 125.247 86.9529C125.247 86.9785 125.248 87.0449 125.349 87.1318C125.857 87.5406 131.764 87.5713 132.536 87.2851C133.079 87.0858 135.131 84.0605 135.796 82.8903C136.304 81.9756 137.005 79.4818 136.843 79.1138C136.538 78.7459 134.999 77.0289 134.771 76.7733L134.557 76.6558C134.557 77.034 134.557 77.4173 134.557 77.729C134.557 78.9248 133.191 80.2432 133.135 80.2841C133.089 80.3223 133.032 80.3433 132.973 80.3433C132.913 80.3433 132.856 80.3223 132.81 80.2841C132.094 79.7924 131.319 79.3924 130.504 79.0934C130.299 79.0261 130.085 78.9933 129.869 78.9963Z" fill="#263238"/>
<path d="M121.819 60.0834L121.433 61.2434C121.433 61.2434 116.501 57.5027 111.57 55.7652C106.638 54.0278 102.936 53.6394 101.514 55.5046C100.091 57.3698 101.006 61.2434 102.407 63.1699C103.809 65.0965 107.339 74.3205 107.339 74.3205L109.457 74.4482L111.631 76.2521C111.631 76.2521 118.233 77.7852 119 78.1225C119.767 78.4597 123.993 80.5703 123.993 80.5703C124.901 79.789 125.758 78.9491 126.558 78.056C127.087 77.2396 127.558 76.3857 127.965 75.5009L135.461 76.339C135.461 76.339 138.986 73.6306 139.433 69.5066C139.88 65.3827 139.113 62.5465 138.666 61.8413C138.219 61.1361 137.254 59.5877 137.254 59.5877L136.487 58.6218L121.819 60.0834Z" fill="#263238"/>
<path d="M123.983 80.836C123.944 80.8348 123.907 80.8261 123.871 80.8105C123.831 80.8105 119.646 78.6846 118.894 78.3678C118.3 78.1225 113.84 77.0442 111.565 76.5128C111.528 76.503 111.493 76.4856 111.463 76.4616L109.356 74.7037L107.324 74.5811C107.276 74.5775 107.23 74.5602 107.191 74.5312C107.153 74.5023 107.123 74.4629 107.106 74.4176C107.07 74.3256 103.576 65.2191 102.204 63.3284C100.833 61.4376 99.7818 57.375 101.311 55.3513C102.702 53.5014 106.085 53.5576 111.651 55.5251C115.892 57.0172 120.179 60.0118 121.301 60.8295L121.576 60.0016C121.591 59.9544 121.62 59.9128 121.659 59.8819C121.698 59.8511 121.745 59.8323 121.794 59.8279L136.462 58.3459C136.504 58.3414 136.546 58.3474 136.585 58.3635C136.624 58.3795 136.659 58.4051 136.685 58.4379L137.452 59.4088C137.452 59.4088 138.427 60.9777 138.88 61.6829C139.332 62.3881 140.144 65.2907 139.687 69.522C139.23 73.7532 135.761 76.4105 135.624 76.5281C135.571 76.5657 135.506 76.5837 135.441 76.5792L128.127 75.7615C127.74 76.6139 127.287 77.4341 126.771 78.2145C125.962 79.1237 125.093 79.9773 124.171 80.7696C124.146 80.7928 124.116 80.8107 124.084 80.8221C124.051 80.8335 124.017 80.8382 123.983 80.836ZM111.738 76.0273C112.433 76.1908 118.34 77.5603 119.087 77.8976C119.833 78.2349 123.15 79.8855 123.947 80.2739C124.798 79.5415 125.599 78.7528 126.345 77.9129C126.864 77.1039 127.326 76.2585 127.726 75.3834C127.748 75.3344 127.785 75.2937 127.832 75.267C127.878 75.2404 127.932 75.2293 127.985 75.2352L135.375 76.0631C135.883 75.6389 138.778 73.0991 139.169 69.4709C139.611 65.4133 138.854 62.618 138.438 61.9639C138.021 61.3098 137.031 59.7052 137.031 59.7052L136.376 58.862L122.007 60.3133L121.672 61.3354C121.66 61.3732 121.639 61.4076 121.611 61.4352C121.582 61.4628 121.548 61.483 121.51 61.4938C121.471 61.5057 121.431 61.5086 121.391 61.5024C121.352 61.4962 121.314 61.481 121.281 61.458C121.23 61.4171 116.324 57.7224 111.484 56.0156C106.227 54.1606 102.941 54.0431 101.717 55.6681C100.493 57.2932 101.179 61.0645 102.616 63.032C103.941 64.8563 107.04 72.8385 107.517 74.0905L109.472 74.208C109.525 74.2131 109.575 74.2345 109.615 74.2694L111.738 76.0273Z" fill="#263238"/>
<path d="M135.664 69.6191C135.613 69.6187 135.564 69.6027 135.522 69.5731C134.968 69.1994 134.393 68.8581 133.8 68.551C133.741 68.5204 133.695 68.4672 133.674 68.403C133.653 68.3389 133.659 68.269 133.689 68.2086C133.703 68.1784 133.724 68.1513 133.749 68.1292C133.774 68.107 133.803 68.0902 133.835 68.0797C133.867 68.0692 133.9 68.0653 133.934 68.0681C133.967 68.071 133.999 68.0805 134.029 68.0962C134.64 68.4036 135.233 68.7448 135.807 69.1183C135.834 69.1372 135.858 69.1616 135.877 69.1899C135.895 69.2182 135.908 69.2499 135.914 69.2832C135.92 69.3165 135.92 69.3507 135.912 69.3838C135.905 69.4169 135.892 69.4482 135.873 69.476C135.854 69.5163 135.824 69.5509 135.788 69.576C135.751 69.6012 135.709 69.616 135.664 69.6191Z" fill="white"/>
<path d="M108.812 73.6152C108.774 73.6144 108.737 73.6052 108.703 73.5885C108.669 73.5717 108.638 73.5477 108.614 73.5182C108.538 73.4211 106.73 71.1112 107.695 69.246C108.711 67.2939 119.534 65.2498 125.812 65.8222C128.307 65.9999 130.753 66.6138 133.039 67.6363C133.073 67.6471 133.104 67.6649 133.131 67.6887C133.158 67.7125 133.179 67.7418 133.194 67.7745C133.209 67.8072 133.216 67.8426 133.217 67.8785C133.217 67.9144 133.209 67.95 133.195 67.9828C133.181 68.0157 133.16 68.0452 133.133 68.0693C133.107 68.0934 133.076 68.1117 133.042 68.1228C133.008 68.134 132.972 68.1379 132.936 68.1342C132.901 68.1305 132.867 68.1193 132.836 68.1013C130.601 67.113 128.215 66.515 125.781 66.3332C119.468 65.7506 108.97 67.8662 108.142 69.4811C107.314 71.0959 108.995 73.1758 109.015 73.1962C109.056 73.2505 109.074 73.3183 109.067 73.3858C109.059 73.4532 109.026 73.5152 108.975 73.559C108.928 73.5942 108.871 73.6138 108.812 73.6152Z" fill="white"/>
<path d="M135.208 66.2667H135.157C132.394 65.8848 129.603 65.7565 126.817 65.8835C126.784 65.8863 126.75 65.8822 126.718 65.8715C126.686 65.8608 126.657 65.8437 126.632 65.8213C126.606 65.7988 126.586 65.7715 126.572 65.7409C126.557 65.7103 126.549 65.6771 126.548 65.6433C126.546 65.5761 126.57 65.5109 126.614 65.4606C126.659 65.4104 126.72 65.3789 126.787 65.3724C129.608 65.2429 132.435 65.3747 135.233 65.7659C135.3 65.7707 135.363 65.8021 135.407 65.8534C135.452 65.9047 135.474 65.9716 135.469 66.0393C135.464 66.1071 135.433 66.1702 135.382 66.2148C135.331 66.2593 135.265 66.2817 135.197 66.277L135.208 66.2667Z" fill="white"/>
<path d="M124.638 64.9125C124.591 64.9131 124.545 64.9005 124.505 64.8762C124.464 64.8518 124.431 64.8166 124.41 64.7746C123.861 63.6759 121.804 61.9742 121.784 61.9537C121.758 61.9322 121.737 61.9059 121.721 61.8762C121.706 61.8464 121.696 61.8139 121.693 61.7805C121.69 61.747 121.694 61.7133 121.704 61.6812C121.713 61.6491 121.73 61.6193 121.751 61.5935C121.772 61.5676 121.798 61.5463 121.828 61.5306C121.857 61.515 121.89 61.5053 121.923 61.5022C121.956 61.4992 121.99 61.5027 122.022 61.5126C122.054 61.5226 122.083 61.5388 122.109 61.5602C122.195 61.6318 124.267 63.3488 124.862 64.5446C124.877 64.5744 124.887 64.607 124.89 64.6405C124.892 64.674 124.889 64.7077 124.878 64.7397C124.868 64.7716 124.851 64.8012 124.829 64.8265C124.807 64.8518 124.78 64.8724 124.75 64.887C124.716 64.9051 124.677 64.9139 124.638 64.9125Z" fill="#263238"/>
<path d="M113.17 67.2326C113.131 67.2321 113.093 67.2231 113.058 67.2064C113.023 67.1896 112.992 67.1654 112.967 67.1355C111.347 64.9994 104.571 60.1447 104.505 60.0987C104.45 60.0594 104.413 59.9996 104.401 59.9325C104.39 59.8655 104.405 59.7965 104.444 59.741C104.483 59.6854 104.543 59.6477 104.609 59.6362C104.676 59.6247 104.745 59.6404 104.8 59.6797C105.079 59.879 111.702 64.6264 113.373 66.834C113.413 66.8882 113.431 66.9563 113.421 67.0234C113.412 67.0905 113.376 67.151 113.322 67.1917C113.278 67.2223 113.224 67.2367 113.17 67.2326Z" fill="white"/>
<path d="M127.965 75.7258C127.931 75.7333 127.897 75.7333 127.863 75.7258C127.817 75.7258 123.246 73.605 120.803 73.1042C119.935 72.9254 119.31 72.8436 118.812 72.7823C117.852 72.7094 116.916 72.438 116.065 71.9851C116.033 71.9716 116.003 71.9515 115.979 71.9262C115.955 71.9009 115.936 71.8708 115.924 71.8378C115.912 71.8048 115.907 71.7697 115.909 71.7347C115.911 71.6996 115.92 71.6653 115.936 71.6339C115.952 71.6026 115.974 71.5748 116 71.5524C116.027 71.53 116.059 71.5134 116.092 71.5037C116.126 71.494 116.161 71.4913 116.195 71.4959C116.23 71.5005 116.263 71.5122 116.293 71.5303C117.092 71.957 117.971 72.2112 118.873 72.2764C119.381 72.3377 120.016 72.4195 120.905 72.6034C123.399 73.1145 127.878 75.1586 128.066 75.2659C128.128 75.2938 128.175 75.3449 128.199 75.4081C128.223 75.4713 128.221 75.5415 128.193 75.6031C128.169 75.6416 128.135 75.6731 128.095 75.6946C128.055 75.7161 128.01 75.7268 127.965 75.7258Z" fill="white"/>
<path d="M114.221 73.1962C113.713 73.1962 113.317 73.1655 113.276 73.1604C113.209 73.155 113.147 73.1229 113.103 73.0711C113.059 73.0194 113.037 72.9522 113.043 72.8845C113.048 72.8167 113.08 72.7539 113.132 72.7098C113.183 72.6657 113.25 72.644 113.317 72.6494C113.342 72.6494 115.638 72.8283 116.847 72.2815C116.907 72.2585 116.974 72.2595 117.034 72.2844C117.094 72.3093 117.142 72.3562 117.168 72.4155C117.195 72.4748 117.198 72.542 117.177 72.6035C117.156 72.665 117.112 72.7162 117.055 72.7465C116.147 73.0756 115.186 73.2282 114.221 73.1962Z" fill="white"/>
<path d="M115.283 32.2889C115.283 32.2889 111.926 34.5885 111.22 36.2646C110.514 37.9408 107.928 43.0459 107.928 43.0459L112.464 45.4988C112.464 45.4988 116.888 53.1079 117.975 55.5557C118.622 57.0147 119.756 58.2003 121.179 58.908C121.179 58.908 121.56 59.8074 122.195 59.9301C122.83 60.0527 136.482 58.5759 136.482 58.5759C136.333 57.6589 136.12 56.7538 135.842 55.8674C135.456 54.7739 133.597 52.3209 133.277 50.9054C132.957 49.4899 131.932 41.8807 130.139 38.5949C128.346 35.309 124.247 32.4626 123.536 31.7625C122.825 31.0624 123.155 31.1186 122.449 30.8631C121.743 30.6076 117.848 30.628 115.283 32.2889Z" fill="white"/>
<path d="M122.327 60.2111C122.27 60.2182 122.212 60.2182 122.154 60.2111C121.895 60.1229 121.657 59.9808 121.456 59.7942C121.255 59.6076 121.095 59.3805 120.986 59.1278C119.546 58.3847 118.402 57.1697 117.741 55.6835C116.725 53.3941 112.708 46.4493 112.281 45.7185L107.811 43.2963C107.753 43.2648 107.708 43.2112 107.688 43.1471C107.668 43.083 107.674 43.0136 107.705 42.9539C107.73 42.9028 110.295 37.8437 110.986 36.188C111.677 34.5322 115.003 32.1969 115.14 32.0998C117.721 30.4134 121.743 30.3623 122.54 30.6587C123.048 30.8375 123.094 30.8886 123.292 31.1339C123.426 31.3048 123.57 31.467 123.724 31.6194C123.861 31.7625 124.171 32.0129 124.567 32.3348C126.091 33.5715 128.93 35.8814 130.362 38.508C131.794 41.1347 132.754 46.5413 133.257 49.4183C133.374 50.0878 133.465 50.609 133.526 50.885C133.896 51.9373 134.399 52.937 135.024 53.8591C135.43 54.481 135.783 55.1357 136.081 55.8163C136.364 56.7172 136.582 57.6378 136.731 58.5707C136.741 58.639 136.725 58.7086 136.685 58.7649C136.664 58.7927 136.637 58.8158 136.607 58.8325C136.576 58.8492 136.542 58.8593 136.508 58.862C134.344 59.092 123.917 60.2111 122.327 60.2111ZM108.269 42.9539L112.586 45.2893C112.626 45.3134 112.661 45.3466 112.687 45.3864C112.865 45.6981 117.126 53.0517 118.208 55.4637C118.825 56.8591 119.901 57.9978 121.255 58.6883C121.316 58.7143 121.364 58.7615 121.393 58.8212C121.484 59.0358 121.814 59.6184 122.231 59.7001C122.739 59.7819 130.748 58.9642 136.167 58.3766C136.033 57.564 135.838 56.7628 135.583 55.9799C135.297 55.3307 134.957 54.7068 134.567 54.1146C133.911 53.1468 133.387 52.095 133.008 50.9872C132.947 50.701 132.856 50.1695 132.734 49.5001C132.277 46.853 131.317 41.3237 129.895 38.7431C128.473 36.1624 125.725 33.9395 124.227 32.7181C123.805 32.3757 123.5 32.1304 123.343 31.972C123.175 31.8113 123.018 31.6407 122.871 31.461C122.744 31.2975 122.739 31.2924 122.363 31.1493C121.697 30.904 117.868 30.9346 115.415 32.5393C115.318 32.6057 112.103 34.8286 111.443 36.3975C110.828 37.8641 108.782 41.9421 108.269 42.9539Z" fill="#263238"/>
<path d="M133.567 58.862H133.511C132.541 58.6576 126.401 58.0853 123.795 57.84C123.729 57.8335 123.667 57.8009 123.625 57.7492C123.582 57.6976 123.561 57.631 123.567 57.564C123.574 57.4976 123.607 57.4367 123.658 57.3939C123.709 57.3511 123.775 57.3297 123.841 57.3341C127.081 57.6254 132.658 58.1466 133.618 58.3561C133.685 58.3629 133.747 58.3963 133.79 58.449C133.833 58.5017 133.853 58.5694 133.846 58.6372C133.84 58.705 133.806 58.7672 133.754 58.8104C133.702 58.8535 133.634 58.8739 133.567 58.8672V58.862Z" fill="#263238"/>
<path d="M123.074 57.7838L122.007 57.6918C121.94 57.6853 121.879 57.6529 121.835 57.6014C121.791 57.5499 121.769 57.4834 121.774 57.4159C121.776 57.3823 121.785 57.3495 121.801 57.3195C121.816 57.2895 121.837 57.2628 121.862 57.2409C121.888 57.2191 121.917 57.2025 121.949 57.1922C121.981 57.1819 122.015 57.178 122.048 57.1808L123.115 57.2779C123.182 57.2779 123.247 57.3048 123.294 57.3527C123.342 57.4006 123.369 57.4656 123.369 57.5334C123.369 57.6012 123.342 57.6661 123.294 57.7141C123.247 57.762 123.182 57.7889 123.115 57.7889L123.074 57.7838Z" fill="#263238"/>
<path d="M134.649 58.1773H134.593L133.384 57.9115C133.318 57.8957 133.261 57.855 133.224 57.798C133.187 57.7409 133.174 57.6718 133.186 57.6049C133.193 57.572 133.207 57.5408 133.226 57.5131C133.245 57.4855 133.27 57.462 133.298 57.4439C133.327 57.4259 133.358 57.4136 133.391 57.4079C133.424 57.4022 133.458 57.4032 133.491 57.4107L134.705 57.6816C134.737 57.6882 134.768 57.7014 134.796 57.7202C134.823 57.7391 134.846 57.7633 134.864 57.7914C134.882 57.8195 134.895 57.8509 134.9 57.8838C134.906 57.9168 134.905 57.9505 134.898 57.9831C134.884 58.0389 134.852 58.0884 134.807 58.1237C134.762 58.1589 134.706 58.1778 134.649 58.1773Z" fill="#263238"/>
<path d="M131.728 57.5283H131.672L126.766 56.4449C126.699 56.43 126.64 56.3888 126.603 56.3303C126.566 56.2718 126.553 56.2009 126.568 56.1332C126.583 56.0654 126.624 56.0063 126.682 55.969C126.74 55.9316 126.811 55.919 126.878 55.9339L131.779 57.0172C131.846 57.024 131.908 57.0574 131.951 57.1101C131.994 57.1629 132.014 57.2305 132.008 57.2983C132.001 57.3661 131.968 57.4284 131.915 57.4715C131.863 57.5146 131.796 57.535 131.728 57.5283Z" fill="#263238"/>
<path d="M131.434 49.8016H131.368C131.104 49.73 130.565 49.541 129.758 49.2395C129.695 49.2158 129.643 49.1677 129.615 49.1059C129.587 49.0441 129.584 48.9736 129.608 48.9099C129.632 48.8462 129.679 48.7945 129.741 48.7662C129.802 48.738 129.872 48.7354 129.936 48.7591C130.728 49.0555 131.251 49.2395 131.5 49.3059C131.564 49.3261 131.618 49.3701 131.651 49.4289C131.684 49.4878 131.694 49.5571 131.678 49.6227C131.661 49.6749 131.629 49.7204 131.585 49.7525C131.541 49.7847 131.488 49.8019 131.434 49.8016Z" fill="#263238"/>
<path d="M128.767 48.8307C128.737 48.8355 128.706 48.8355 128.676 48.8307C126.924 48.151 125.009 47.3742 125.009 47.3742C124.978 47.3618 124.95 47.3434 124.926 47.32C124.902 47.2966 124.883 47.2687 124.869 47.2378C124.856 47.207 124.849 47.1738 124.849 47.1402C124.848 47.1066 124.854 47.0733 124.867 47.0421C124.879 47.0109 124.897 46.9824 124.921 46.9583C124.944 46.9342 124.972 46.9149 125.002 46.9017C125.033 46.8884 125.066 46.8813 125.099 46.8808C125.133 46.8804 125.166 46.8865 125.197 46.899C125.197 46.899 127.112 47.6757 128.859 48.3554C128.89 48.3668 128.919 48.3843 128.943 48.407C128.968 48.4297 128.987 48.4571 129.001 48.4876C129.015 48.5181 129.022 48.5511 129.023 48.5845C129.024 48.618 129.018 48.6513 129.006 48.6825C128.985 48.7276 128.951 48.7656 128.908 48.7919C128.866 48.8182 128.817 48.8316 128.767 48.8307Z" fill="#263238"/>
<path d="M107.852 20.5353C107.627 21.3835 107.457 22.2455 107.344 23.116C107.09 24.8535 108.05 25.4361 108.243 26.5296C108.436 27.6232 107.156 29.1716 107.227 29.6213C107.299 30.071 108.446 30.0761 108.446 30.0761C108.446 30.0761 110.712 34.0723 111.352 34.1388C111.992 34.2052 114.145 32.3297 114.145 32.3297L116.578 35.0382C116.578 35.0382 116.324 37.164 116.903 36.9034C118.022 36.253 119.001 35.3843 119.783 34.3483C120.558 33.4236 121.465 32.6193 122.474 31.9618C122.474 31.9618 120.87 29.9177 120.55 28.6759C120.23 27.4341 121.565 28.4204 121.835 25.4565C122.104 22.4926 120.936 19.59 118.889 17.9802C116.842 16.3705 112.865 15.6602 110.046 17.2035C107.227 18.7468 107.659 19.9937 107.852 20.5353Z" fill="white"/>
<path d="M116.796 37.1589C116.708 37.1585 116.623 37.1299 116.553 37.0771C116.182 36.8012 116.227 35.7638 116.299 35.0995L114.11 32.6619C113.434 33.2291 111.941 34.4403 111.311 34.3636C110.681 34.287 109.163 31.8494 108.264 30.301C107.847 30.301 107.024 30.1783 106.948 29.6315C106.981 29.2459 107.114 28.8757 107.334 28.5584C107.649 27.9605 108.076 27.1377 107.974 26.5501C107.895 26.199 107.761 25.8627 107.578 25.5536C107.116 24.807 106.936 23.9185 107.07 23.0496C107.188 22.1967 107.357 21.3519 107.578 20.52C107.283 19.6615 107.263 18.3839 109.899 16.9429C112.85 15.328 116.928 16.0997 119.016 17.74C121.103 19.3804 122.322 22.421 122.063 25.4412C121.906 27.2655 121.342 27.7101 120.966 27.9963C120.733 28.1802 120.687 28.216 120.778 28.5686C121.083 29.7286 122.637 31.7472 122.652 31.7676C122.675 31.7948 122.692 31.8269 122.701 31.8614C122.709 31.8959 122.71 31.932 122.703 31.9669C122.697 32.0024 122.683 32.0362 122.663 32.0661C122.643 32.096 122.617 32.1214 122.586 32.1407C121.602 32.7834 120.717 33.5686 119.96 34.4709C118.696 36.004 117.594 36.8472 116.984 37.118C116.925 37.1446 116.861 37.1585 116.796 37.1589ZM114.13 32.0487C114.165 32.049 114.2 32.0565 114.232 32.0705C114.264 32.0845 114.293 32.1049 114.318 32.1304L116.756 34.8389C116.779 34.8668 116.797 34.8995 116.807 34.9346C116.818 34.9698 116.821 35.0068 116.817 35.0433C116.726 35.5657 116.726 36.0999 116.817 36.6223C117.88 35.9782 118.811 35.1352 119.559 34.1388C120.289 33.2649 121.135 32.4962 122.073 31.8545C121.647 31.277 120.55 29.7286 120.275 28.6964C120.192 28.4984 120.183 28.2766 120.25 28.0725C120.318 27.8683 120.457 27.6959 120.641 27.5874C120.966 27.337 121.413 26.9896 121.55 25.3849C121.794 22.5334 120.677 19.687 118.701 18.1335C116.725 16.58 112.906 15.8646 110.138 17.3823C107.487 18.8387 107.913 19.9885 108.076 20.4229C108.094 20.476 108.094 20.5334 108.076 20.5864C107.851 21.4261 107.682 22.2796 107.568 23.1416C107.447 23.9034 107.608 24.6833 108.02 25.3339C108.225 25.6884 108.374 26.0728 108.462 26.4734C108.594 27.2348 108.142 28.1087 107.776 28.8088C107.633 29.0508 107.52 29.3101 107.441 29.5804C107.441 29.6673 107.888 29.8104 108.406 29.8104C108.45 29.8096 108.494 29.8211 108.533 29.8436C108.571 29.8661 108.603 29.8988 108.624 29.9382C109.64 31.7472 110.981 33.7657 111.347 33.873C111.712 33.9803 112.941 32.9941 113.942 32.1253C113.966 32.1 113.995 32.0801 114.028 32.0669C114.06 32.0537 114.095 32.0475 114.13 32.0487Z" fill="#263238"/>
<path d="M118.874 17.9342C116.842 16.3194 112.85 15.6142 110.031 17.1575C107.212 18.7008 107.659 19.9937 107.852 20.5098C108.578 20.9271 109.353 21.2515 110.158 21.4756C111.123 21.6698 112.723 20.8982 112.784 22.7685C112.845 24.6388 114.963 26.5041 115.796 25.4718C116.629 24.4395 117.909 24.3782 118.229 25.5382C118.549 26.6983 117.655 27.5363 118.168 28.0934C118.681 28.6504 120.281 28.1598 120.281 28.1598H120.504C120.616 27.5823 121.601 27.8685 121.819 25.3747C122.073 22.4414 120.936 19.5439 118.874 17.9342Z" fill="#263238"/>
<path d="M119.031 28.6453C118.84 28.6615 118.648 28.6381 118.466 28.5766C118.284 28.5151 118.117 28.4167 117.975 28.2876C117.624 27.889 117.756 27.4137 117.888 26.9589C118.052 26.5268 118.085 26.0558 117.985 25.6047C117.958 25.4491 117.886 25.3049 117.779 25.1896C117.671 25.0743 117.533 24.993 117.38 24.9557C117.11 24.9346 116.839 24.9865 116.595 25.106C116.352 25.2254 116.144 25.4082 115.994 25.6354C115.842 25.8177 115.637 25.946 115.407 26.0013C115.177 26.0565 114.936 26.0357 114.719 25.942C114.104 25.662 113.575 25.2196 113.19 24.6618C112.805 24.1039 112.576 23.4514 112.53 22.7736C112.542 22.6226 112.524 22.4707 112.477 22.3268C112.43 22.1829 112.355 22.0499 112.256 21.9355C111.886 21.7245 111.452 21.659 111.037 21.7516C110.729 21.7819 110.418 21.7733 110.112 21.726C109.28 21.4983 108.48 21.1652 107.73 20.7346C107.678 20.706 107.638 20.6586 107.619 20.6018C107.299 19.7433 107.187 18.4299 109.909 16.9326C112.86 15.3178 116.939 16.0894 119.026 17.7298C121.139 19.3907 122.332 22.4108 122.073 25.4309C121.916 27.2553 121.352 27.6999 120.976 27.986C120.829 28.1036 120.773 28.1547 120.758 28.2365C120.745 28.2963 120.711 28.3497 120.663 28.3871C120.615 28.4244 120.555 28.4435 120.494 28.4409H120.316C119.899 28.5676 119.467 28.6364 119.031 28.6453ZM117.203 24.4293C117.296 24.4274 117.39 24.436 117.482 24.4549C117.732 24.5078 117.96 24.6326 118.141 24.8141C118.321 24.9955 118.445 25.2258 118.498 25.4769C118.621 26.0205 118.586 26.5883 118.396 27.1122C118.274 27.5415 118.218 27.7765 118.396 27.9554C118.701 28.2978 119.773 28.0985 120.245 27.9554C120.275 27.9503 120.306 27.9503 120.336 27.9554H120.377C120.464 27.8253 120.574 27.7127 120.702 27.6232C121.022 27.3677 121.469 27.0202 121.606 25.4156C121.85 22.5641 120.733 19.7177 118.757 18.1642C116.791 16.6311 112.962 15.8953 110.194 17.413C107.705 18.7774 107.929 19.8761 108.101 20.3616C108.776 20.7516 109.498 21.0522 110.25 21.2559C110.516 21.2874 110.786 21.2874 111.052 21.2559C111.603 21.1458 112.174 21.2598 112.642 21.5727C112.792 21.7326 112.908 21.9215 112.983 22.128C113.058 22.3344 113.091 22.5541 113.079 22.7736C113.125 23.3463 113.319 23.8968 113.643 24.3702C113.966 24.8437 114.407 25.2235 114.922 25.4718C115.041 25.5307 115.175 25.5485 115.304 25.5227C115.434 25.4968 115.551 25.4286 115.638 25.3287C115.82 25.0748 116.053 24.863 116.323 24.7078C116.593 24.5527 116.893 24.4577 117.203 24.4293Z" fill="#263238"/>
<path d="M124.765 19.4162C124.772 20.0746 124.585 20.7203 124.226 21.2713C123.868 21.8222 123.355 22.2535 122.752 22.5104C122.15 22.7673 121.485 22.8382 120.842 22.7141C120.199 22.59 119.608 22.2765 119.142 21.8134C118.677 21.3503 118.359 20.7586 118.229 20.1133C118.099 19.468 118.162 18.7983 118.411 18.1892C118.659 17.5802 119.083 17.0593 119.626 16.6927C120.17 16.3261 120.81 16.1304 121.464 16.1303C122.335 16.1263 123.171 16.47 123.79 17.0861C124.409 17.7021 124.76 18.5402 124.765 19.4162Z" fill="#263238"/>
<path d="M121.444 22.9576C120.749 22.9505 120.072 22.7368 119.498 22.3434C118.924 21.95 118.478 21.3945 118.217 20.7468C117.956 20.0991 117.892 19.3882 118.031 18.7036C118.171 18.0191 118.509 17.3914 119.003 16.8997C119.497 16.408 120.124 16.0742 120.805 15.9405C121.487 15.8067 122.193 15.8789 122.834 16.148C123.475 16.417 124.023 16.8709 124.408 17.4525C124.793 18.0341 124.999 18.7173 124.999 19.4162C124.99 20.3587 124.611 21.2594 123.945 21.9225C123.279 22.5857 122.38 22.9576 121.444 22.9576ZM121.444 16.3858C120.85 16.3929 120.271 16.5766 119.78 16.9138C119.29 17.2511 118.909 17.7268 118.687 18.2811C118.464 18.8354 118.409 19.4436 118.53 20.029C118.65 20.6145 118.939 21.1511 119.362 21.5713C119.785 21.9915 120.321 22.2766 120.905 22.3907C121.488 22.5047 122.092 22.4427 122.64 22.2123C123.188 21.9819 123.656 21.5935 123.986 21.096C124.315 20.5985 124.491 20.014 124.491 19.4162C124.482 18.6092 124.156 17.8385 123.586 17.2712C123.015 16.7039 122.246 16.3858 121.444 16.3858Z" fill="#263238"/>
<path d="M110.011 27.1224C110.138 27.4699 110.097 27.8072 109.919 27.8787C109.742 27.9503 109.483 27.7203 109.35 27.3677C109.218 27.0151 109.259 26.6778 109.442 26.6063C109.625 26.5347 109.879 26.7698 110.011 27.1224Z" fill="#263238"/>
<path d="M109.838 31.5275C109.771 31.5376 109.702 31.5204 109.647 31.4797C109.593 31.439 109.556 31.378 109.546 31.3103C109.536 31.2425 109.553 31.1735 109.593 31.1184C109.634 31.0633 109.695 31.0266 109.762 31.0164C109.981 30.9338 110.179 30.8014 110.339 30.6294C110.5 30.4575 110.618 30.2507 110.686 30.025C110.695 29.993 110.71 29.9631 110.73 29.937C110.751 29.9108 110.776 29.8891 110.805 29.8729C110.834 29.8567 110.866 29.8465 110.898 29.8428C110.931 29.8391 110.964 29.842 110.996 29.8513C111.061 29.8704 111.116 29.9141 111.149 29.9733C111.182 30.0325 111.191 30.1024 111.174 30.1681C111.082 30.474 110.92 30.754 110.702 30.9857C110.483 31.2173 110.213 31.3941 109.914 31.5019C109.891 31.5156 109.865 31.5243 109.838 31.5275Z" fill="#263238"/>
<path d="M110.158 26.4377C110.091 26.4367 110.027 26.4091 109.98 26.361C109.833 26.1841 109.627 26.0663 109.401 26.0288C109.174 25.9913 108.942 26.0366 108.746 26.1566C108.69 26.1867 108.625 26.1947 108.564 26.1792C108.503 26.1637 108.449 26.1256 108.414 26.0726C108.379 26.0195 108.365 25.9552 108.375 25.8923C108.385 25.8294 108.417 25.7724 108.467 25.7325C108.761 25.5543 109.109 25.4858 109.449 25.5391C109.788 25.5923 110.099 25.7638 110.326 26.0237C110.372 26.0715 110.398 26.1357 110.398 26.2026C110.398 26.2695 110.372 26.3337 110.326 26.3814C110.278 26.4194 110.219 26.4393 110.158 26.4377Z" fill="#263238"/>
<path d="M116.568 28.7117H115.989C115.921 28.7117 115.857 28.6848 115.809 28.6369C115.761 28.5889 115.735 28.524 115.735 28.4562C115.735 28.3884 115.761 28.3234 115.809 28.2755C115.857 28.2276 115.921 28.2007 115.989 28.2007H116.568C116.877 28.2007 117.461 27.6539 117.776 27.2655C117.819 27.2127 117.88 27.1789 117.948 27.1717C118.015 27.1645 118.082 27.1845 118.134 27.2272C118.187 27.2699 118.22 27.3318 118.228 27.3994C118.235 27.4669 118.215 27.5346 118.173 27.5874C118.02 27.7561 117.228 28.7117 116.568 28.7117Z" fill="#263238"/>
<path d="M123.135 35.5185C123.135 35.5185 120.641 36.6581 119.828 37.3838C119.016 38.1094 114.333 42.1771 114.333 42.1771L123.536 48.0897L129.951 43.2707" fill="white"/>
<path d="M123.531 48.3452C123.482 48.3451 123.435 48.3309 123.394 48.3043L114.191 42.3918C114.157 42.3716 114.128 42.3433 114.108 42.3095C114.088 42.2756 114.076 42.2372 114.074 42.1976C114.071 42.1576 114.078 42.1175 114.093 42.0803C114.107 42.0432 114.131 42.0099 114.16 41.983C114.206 41.9421 118.858 37.8948 119.656 37.1947C120.453 36.4946 122.926 35.3294 123.028 35.2835C123.089 35.2558 123.159 35.2537 123.222 35.2777C123.285 35.3016 123.335 35.3496 123.363 35.4112C123.378 35.4416 123.386 35.4747 123.387 35.5083C123.388 35.542 123.383 35.5755 123.371 35.607C123.359 35.6385 123.341 35.6673 123.318 35.6916C123.295 35.7159 123.267 35.7352 123.236 35.7485C123.236 35.7485 120.773 36.883 119.996 37.578C119.3 38.2014 115.745 41.2829 114.749 42.1465L123.516 47.7677L129.793 43.0561C129.82 43.036 129.85 43.0213 129.882 43.013C129.915 43.0047 129.948 43.0028 129.981 43.0076C130.014 43.0123 130.046 43.0236 130.075 43.0407C130.104 43.0578 130.129 43.0804 130.149 43.1072C130.169 43.1341 130.183 43.1646 130.192 43.1971C130.2 43.2296 130.202 43.2634 130.197 43.2967C130.192 43.3299 130.181 43.3618 130.164 43.3907C130.147 43.4196 130.125 43.4448 130.098 43.4649L123.678 48.2839C123.637 48.3194 123.585 48.3408 123.531 48.3452Z" fill="#263238"/>
<path d="M114.333 42.1771L106.46 45.3557C106.46 45.3557 101.635 45.9332 97.2726 46.0865C92.9098 46.2398 88.74 46.2449 88.3235 46.1478C87.907 46.0507 83.9404 43.8329 83.5848 43.7255C83.2293 43.6182 79.7705 44.8549 79.7705 44.8549C79.7705 44.8549 79.2169 46.6486 79.288 46.9603C79.3592 47.272 79.9737 47.0574 79.9737 47.0574C80.0737 47.5234 80.2271 47.9761 80.4308 48.4065C80.6137 48.6263 80.9387 49.3468 81.2485 49.0708C81.7025 48.5367 82.1167 47.9696 82.4878 47.3742C83.484 47.7977 84.5011 48.1695 85.5351 48.4883C86.3732 48.6825 91.0458 49.1986 92.1378 49.3315C93.2297 49.4643 105.907 50.9463 106.232 50.6652C106.557 50.3842 118.929 45.1104 118.929 45.1104L114.333 42.1771Z" fill="white"/>
<path d="M105.8 50.9207C103.134 50.9207 92.214 49.5921 92.087 49.5768L91.0712 49.4541C89.2377 49.2395 86.165 48.8869 85.4844 48.7285C84.5044 48.4326 83.5414 48.0829 82.5995 47.6809C82.2535 48.238 81.861 48.7646 81.4263 49.2548C81.3746 49.3019 81.3131 49.3368 81.2464 49.3571C81.1796 49.3774 81.1093 49.3826 81.0403 49.3723C80.7457 49.3264 80.5324 49.0044 80.375 48.7489C80.3378 48.6837 80.2971 48.6205 80.2531 48.5598C80.0438 48.1849 79.8931 47.7799 79.8061 47.3589C79.6351 47.3932 79.4577 47.3735 79.2982 47.3027C79.242 47.2736 79.1929 47.2324 79.1543 47.1821C79.1157 47.1317 79.0885 47.0735 79.0747 47.0114C78.9935 46.6793 79.3439 45.4784 79.5572 44.768C79.5688 44.7302 79.5891 44.6956 79.6164 44.6672C79.6438 44.6388 79.6775 44.6173 79.7147 44.6045C81.3298 44.0219 83.3258 43.3576 83.6915 43.47C83.8642 43.5211 84.5295 43.8789 85.6926 44.4921C86.7084 45.0287 88.1965 45.831 88.4098 45.8821C88.7806 45.9689 92.8285 45.9587 97.2929 45.8156C101.422 45.6828 105.993 45.1564 106.435 45.1002L114.272 41.937C114.307 41.9182 114.346 41.9084 114.386 41.9084C114.426 41.9084 114.465 41.9182 114.5 41.937L119.097 44.86C119.135 44.886 119.165 44.9212 119.185 44.9623C119.206 45.0035 119.216 45.0492 119.214 45.0951C119.21 45.1414 119.194 45.1859 119.167 45.2237C119.14 45.2615 119.104 45.2913 119.061 45.3097C114.185 47.3896 106.796 50.5733 106.415 50.8339C106.219 50.9074 106.009 50.937 105.8 50.9207ZM82.4878 47.1085C82.5196 47.1013 82.5525 47.1013 82.5843 47.1085C82.5843 47.1085 84.7733 48.0232 85.5809 48.2072C86.2361 48.3605 89.4104 48.7182 91.1118 48.9278L92.153 49.0453C94.4335 49.3264 105.287 50.5784 106.11 50.4046C106.907 49.9396 115.15 46.4135 118.376 45.0338L114.312 42.4429L106.552 45.5755C106.53 45.5783 106.508 45.5783 106.486 45.5755C106.44 45.5755 101.62 46.1529 97.2777 46.296C93.0266 46.434 88.7298 46.4595 88.2676 46.3522C87.2943 45.926 86.3448 45.4466 85.4234 44.9162C84.5905 44.4716 83.6509 43.9657 83.5087 43.9197C82.2978 44.189 81.1093 44.5512 79.9534 45.0031C79.7489 45.6059 79.6026 46.2271 79.5166 46.8581C79.5166 46.8581 79.7299 46.8223 79.8671 46.7712C79.9 46.7573 79.9354 46.7502 79.9712 46.7502C80.0069 46.7502 80.0423 46.7573 80.0753 46.7712C80.1055 46.7888 80.1319 46.8124 80.1528 46.8405C80.1738 46.8686 80.1889 46.9007 80.1972 46.9348C80.2881 47.3638 80.4243 47.7818 80.6035 48.1817C80.6638 48.2585 80.7198 48.3387 80.7711 48.4219C80.8371 48.5292 81.0047 48.7898 81.086 48.8153C81.5075 48.2924 81.8976 47.7447 82.2542 47.175C82.2839 47.1443 82.3212 47.122 82.3622 47.1104C82.4032 47.0987 82.4465 47.0981 82.4878 47.1085Z" fill="#263238"/>
<path d="M79.9739 47.3027C79.9315 47.3023 79.8897 47.2918 79.8521 47.272C79.8228 47.2565 79.797 47.2353 79.776 47.2095C79.755 47.1838 79.7393 47.1542 79.7299 47.1223C79.7204 47.0904 79.7174 47.057 79.7209 47.0239C79.7244 46.9908 79.7345 46.9588 79.7505 46.9297L80.5225 45.4783C80.5502 45.4257 80.595 45.3842 80.6494 45.3608L82.2696 44.7016C82.3323 44.6758 82.4025 44.6762 82.4649 44.7025C82.5273 44.7289 82.5767 44.7791 82.6023 44.8421C82.6279 44.9052 82.6276 44.9758 82.6014 45.0386C82.5752 45.1014 82.5253 45.1511 82.4626 45.1768L80.9389 45.8003L80.2127 47.1698C80.19 47.213 80.1554 47.2485 80.113 47.2721C80.0706 47.2957 80.0223 47.3063 79.9739 47.3027Z" fill="#263238"/>
<path d="M80.4309 48.6416C80.3991 48.6488 80.3661 48.6488 80.3344 48.6416C80.2725 48.6155 80.2232 48.5663 80.1967 48.5044C80.1701 48.4424 80.1685 48.3725 80.1922 48.3094L80.888 46.5515C80.9048 46.5089 80.9329 46.4718 80.9692 46.4442L82.4675 45.2791C82.5218 45.2467 82.586 45.2354 82.648 45.2472C82.7101 45.2591 82.7656 45.2934 82.8043 45.3436C82.843 45.3938 82.8621 45.4565 82.8581 45.5199C82.854 45.5833 82.8271 45.643 82.7824 45.6879L81.3197 46.7917L80.6493 48.4883C80.631 48.532 80.6008 48.5697 80.5622 48.5968C80.5235 48.6239 80.478 48.6395 80.4309 48.6416Z" fill="#263238"/>
<path d="M81.2485 49.3161H81.1977C81.1324 49.3014 81.0752 49.2617 81.0383 49.2055C81.0014 49.1493 80.9875 49.0809 80.9996 49.0146L81.3552 47.2056C81.3658 47.1502 81.3944 47.0999 81.4364 47.0625L82.9043 45.7747C82.9279 45.7508 82.9559 45.7318 82.9869 45.7188C83.0178 45.7058 83.051 45.6992 83.0846 45.6992C83.1181 45.6992 83.1513 45.7058 83.1822 45.7188C83.2132 45.7318 83.2413 45.7508 83.2649 45.7747C83.3085 45.8266 83.3302 45.8936 83.3255 45.9613C83.3207 46.0291 83.2899 46.0924 83.2395 46.1376L81.8275 47.3845L81.4872 49.1066C81.4761 49.1632 81.4466 49.2144 81.4034 49.2524C81.3602 49.2903 81.3057 49.3127 81.2485 49.3161Z" fill="#263238"/>
<path d="M79.4361 85.1019C79.3687 85.1019 79.3041 85.0749 79.2565 85.027C79.2089 84.9791 79.1821 84.9141 79.1821 84.8464V45.5794C79.1821 45.5116 79.2089 45.4466 79.2565 45.3987C79.3041 45.3508 79.3687 45.3239 79.4361 45.3239C79.5034 45.3239 79.568 45.3508 79.6156 45.3987C79.6633 45.4466 79.69 45.5116 79.69 45.5794V84.8668C79.6849 84.931 79.6559 84.9908 79.6088 85.0344C79.5617 85.078 79.5 85.1021 79.4361 85.1019Z" fill="#263238"/>
<path d="M79.702 72.305C79.6524 72.3053 79.6038 72.2911 79.5622 72.264C79.5206 72.2369 79.4878 72.1981 79.4678 72.1525C79.4479 72.1069 79.4416 72.0563 79.4498 72.0072C79.458 71.958 79.4803 71.9123 79.514 71.8757L90.4236 59.8872C90.4472 59.8632 90.4753 59.8442 90.5063 59.8312C90.5372 59.8183 90.5704 59.8116 90.6039 59.8116C90.6374 59.8116 90.6706 59.8183 90.7016 59.8312C90.7325 59.8442 90.7606 59.8632 90.7842 59.8872C90.8079 59.9105 90.8267 59.9383 90.8395 59.969C90.8523 59.9997 90.8589 60.0327 90.8589 60.066C90.8589 60.0993 90.8523 60.1323 90.8395 60.163C90.8267 60.1937 90.8079 60.2216 90.7842 60.2449L79.8747 72.2437C79.8267 72.285 79.7651 72.3069 79.702 72.305Z" fill="#263238"/>
<path d="M79.3608 60.7632C79.3287 60.7635 79.2969 60.7574 79.2672 60.7451C79.2376 60.7328 79.2107 60.7146 79.1881 60.6916L71.8745 53.6753C71.8316 53.6273 71.8083 53.5649 71.8094 53.5004C71.8104 53.4359 71.8356 53.3742 71.8799 53.3276C71.9243 53.2811 71.9845 53.2531 72.0485 53.2494C72.1124 53.2456 72.1755 53.2663 72.2249 53.3074L79.5386 60.3237C79.5624 60.3474 79.5813 60.3757 79.5942 60.4068C79.6071 60.438 79.6137 60.4714 79.6137 60.5051C79.6137 60.5388 79.6071 60.5722 79.5942 60.6034C79.5813 60.6345 79.5624 60.6628 79.5386 60.6865C79.4914 60.7342 79.4277 60.7617 79.3608 60.7632Z" fill="#263238"/>
<path d="M85.6663 65.8557C85.5994 65.8492 85.5376 65.8168 85.494 65.7653C85.4504 65.7138 85.4284 65.6473 85.4327 65.5798L85.9913 58.3386C85.9937 58.305 86.0026 58.2722 86.0175 58.2421C86.0324 58.212 86.053 58.1852 86.0783 58.1631C86.1035 58.1411 86.1328 58.1242 86.1645 58.1135C86.1962 58.1029 86.2297 58.0986 86.263 58.1009C86.2964 58.1033 86.329 58.1122 86.3589 58.1272C86.3888 58.1422 86.4155 58.163 86.4374 58.1884C86.4594 58.2138 86.4761 58.2433 86.4867 58.2752C86.4973 58.3071 86.5016 58.3408 86.4992 58.3743L85.9355 65.6206C85.9303 65.6875 85.8991 65.7497 85.8487 65.7937C85.7984 65.8376 85.7328 65.8599 85.6663 65.8557Z" fill="#263238"/>
<path d="M79.4719 79.4308C79.4278 79.4304 79.3843 79.42 79.3449 79.4001L71.0256 74.5301C70.9932 74.5154 70.9643 74.494 70.9406 74.4673C70.917 74.4406 70.8991 74.4092 70.8883 74.3752C70.8775 74.3411 70.8739 74.3052 70.8777 74.2696C70.8816 74.2341 70.8928 74.1997 70.9106 74.1688C70.9285 74.1379 70.9526 74.1111 70.9814 74.0902C71.0102 74.0692 71.043 74.0546 71.0778 74.0472C71.1126 74.0399 71.1485 74.0399 71.1832 74.0474C71.218 74.0549 71.2508 74.0696 71.2795 74.0906L79.6039 78.9555C79.6616 78.9897 79.7035 79.0453 79.7206 79.1104C79.7378 79.1754 79.7287 79.2447 79.6953 79.303C79.6732 79.3428 79.6407 79.3757 79.6013 79.3982C79.5619 79.4207 79.5171 79.432 79.4719 79.4308Z" fill="#263238"/>
<path d="M69.4659 57.8476C69.4007 57.8476 69.3382 57.822 69.2917 57.7761C69.2451 57.7303 69.2183 57.6679 69.217 57.6023C69.2156 57.5688 69.2209 57.5353 69.2324 57.5038C69.2439 57.4722 69.2615 57.4433 69.2841 57.4186C69.3068 57.3939 69.334 57.374 69.3644 57.3599C69.3947 57.3459 69.4274 57.3379 69.4608 57.3366L76.0939 57.1118C76.1614 57.1116 76.2264 57.1375 76.2755 57.1841C76.3246 57.2307 76.3541 57.2944 76.358 57.3622C76.3594 57.4291 76.3346 57.4939 76.289 57.5426C76.2434 57.5913 76.1807 57.6201 76.1142 57.6228L69.476 57.8476H69.4659Z" fill="#263238"/>
<path d="M71.3548 50.1798C73.1477 51.626 73.4118 54.268 73.4118 54.268C73.4118 54.268 70.7707 54.5899 68.9779 53.1437C67.185 51.6975 66.9463 49.0555 66.9463 49.0555C66.9463 49.0555 69.5619 48.754 71.3548 50.1798Z" fill="#0E9769"/>
<path d="M68.2677 55.5833C70.5685 55.5833 72.4172 57.5201 72.4172 57.5201C72.4172 57.5201 70.538 59.416 68.2423 59.4007C65.9466 59.3853 64.0979 57.4639 64.0979 57.4639C64.0979 57.4639 65.972 55.568 68.2677 55.5833Z" fill="#0E9769"/>
<path d="M88.3288 58.1645C88.0952 60.4641 86.0179 62.1301 86.0179 62.1301C86.0179 62.1301 84.3165 60.086 84.5552 57.771C84.7939 55.4561 86.8661 53.8055 86.8661 53.8055C86.8661 53.8055 88.5625 55.8649 88.3288 58.1645Z" fill="#0E9769"/>
<path d="M75.792 69.9101C76.9602 71.898 79.5403 72.5419 79.5403 72.5419C79.5403 72.5419 80.231 69.9561 79.0629 67.9427C77.8947 65.9293 75.3146 65.3109 75.3146 65.3109C75.3146 65.3109 74.6239 67.9171 75.792 69.9101Z" fill="#0E9769"/>
<path d="M83.2157 58.2386C82.0475 60.2264 79.4674 60.8703 79.4674 60.8703C79.4674 60.8703 78.7767 58.2846 79.9449 56.2711C81.113 54.2577 83.6982 53.6394 83.6982 53.6394C83.6982 53.6394 84.3635 56.2456 83.2157 58.2386Z" fill="#0E9769"/>
<path d="M70.9045 71.3308C72.7939 72.6544 73.2409 75.2912 73.2409 75.2912C73.2409 75.2912 70.6252 75.8023 68.7409 74.4685C66.8566 73.1347 66.4097 70.5132 66.4097 70.5132C66.4097 70.5132 69.0203 70.0124 70.9045 71.3308Z" fill="#0E9769"/>
<path d="M93.917 59.1722C92.3933 60.8944 89.7319 61.0272 89.7319 61.0272C89.7319 61.0272 89.5542 58.3546 91.0829 56.6273C92.6117 54.9001 95.2629 54.7774 95.2629 54.7774C95.2629 54.7774 95.4457 57.445 93.917 59.1722Z" fill="#0E9769"/>
<path d="M68.1104 85.3051C68.1104 85.3051 76.3636 81.9834 79.665 81.9834C82.9663 81.9834 90.8082 85.5095 90.8082 85.5095L68.1104 85.3051Z" fill="#263238"/>
<path d="M49.4835 60.648C49.4835 60.648 42.1546 70.8684 42.3729 71.3795C42.5913 71.8905 45.72 74.0879 49.0568 75.4676C52.3937 76.8474 57.432 76.1984 60.7689 74.6296C60.7689 74.6296 60.9263 69.8106 55.8525 64.3734C52.7086 61.0057 49.4835 60.648 49.4835 60.648Z" fill="#0E9769"/>
<path d="M53.3843 76.4743C51.8673 76.5025 50.3589 76.2388 48.9402 75.6976C45.6999 74.374 42.3986 72.1204 42.1192 71.4919C42.0532 71.3283 41.8449 70.8429 49.2297 60.4998C49.2559 60.4632 49.2914 60.4343 49.3326 60.4163C49.3737 60.3983 49.4189 60.3919 49.4634 60.3976C49.6005 60.3976 52.8205 60.8013 55.9898 64.1945C61.0688 69.6471 60.9824 74.4149 60.9773 74.6347C60.9755 74.6821 60.9607 74.7281 60.9348 74.7677C60.9088 74.8073 60.8726 74.8391 60.83 74.8595C58.4857 75.9098 55.9505 76.4597 53.3843 76.4743ZM42.6119 71.3284C42.9471 71.7985 45.8218 73.8835 49.1332 75.2274C52.4447 76.5714 57.356 75.8918 60.4898 74.466C60.4593 73.6024 60.0784 69.2945 55.6444 64.542C52.9831 61.6905 50.2252 61.0415 49.5497 60.929C46.9594 64.6084 42.8709 70.5005 42.6322 71.3284H42.6119Z" fill="#263238"/>
<path d="M58.2194 70.3574C58.2194 70.3574 56.4113 69.9384 55.7205 70.6385C55.0298 71.3386 54.334 72.8717 54.7504 73.4287C55.1669 73.9857 55.7205 74.8238 55.7205 74.8238C55.7205 74.8238 54.334 74.6858 54.334 75.7998C54.334 76.9139 53.501 78.866 55.1669 80.1282C56.8328 81.3904 58.2143 79.5712 58.6308 79.2901C59.0472 79.009 59.1894 77.1949 59.1894 77.1949C59.1894 77.1949 60.8553 77.0569 61.4089 75.9429C61.7608 75.3205 61.9338 74.612 61.9087 73.8964C61.8836 73.1808 61.6614 72.4864 61.2667 71.8905C60.2967 70.3574 58.2194 70.3574 58.2194 70.3574Z" fill="#263238"/>
<path d="M60.1597 78.8711C60.1597 78.8711 57.5237 81.5233 58.2195 82.0854C58.9787 82.6363 59.7653 83.148 60.5761 83.6185C60.5761 83.6185 62.242 83.6185 62.5163 82.3614C62.7906 81.1042 63.075 80.1282 62.3792 79.5712C61.6833 79.0141 61.6833 78.452 60.1597 78.8711Z" fill="#263238"/>
<path d="M60.5759 83.6185C59.4009 83.8724 58.2425 84.1983 57.107 84.5945C56.2965 84.9026 55.4602 85.1369 54.6082 85.2946H71.6683C71.6683 85.2946 71.1147 83.3374 69.586 83.0614C68.0572 82.7855 64.4562 83.4805 64.4562 83.4805C64.4562 83.4805 64.0499 82.6424 62.5262 82.3716C62.105 82.2955 61.6707 82.3814 61.3094 82.6124C60.9482 82.8433 60.6864 83.2024 60.5759 83.6185Z" fill="#263238"/>
<path d="M56.2743 82.7089C56.2753 82.8334 56.2395 82.9554 56.1715 83.0595C56.1035 83.1635 56.0063 83.2448 55.8922 83.2932C55.7781 83.3416 55.6524 83.3547 55.5309 83.3311C55.4093 83.3074 55.2976 83.2479 55.2097 83.1602C55.1218 83.0725 55.0618 82.9606 55.0373 82.8385C55.0128 82.7164 55.0248 82.5898 55.072 82.4746C55.1191 82.3595 55.1992 82.261 55.302 82.1917C55.4048 82.1224 55.5258 82.0854 55.6496 82.0854C55.8144 82.0854 55.9725 82.1509 56.0895 82.2677C56.2066 82.3845 56.273 82.543 56.2743 82.7089Z" fill="#263238"/>
<path d="M54.0547 79.3054C54.0557 79.5272 53.9911 79.7443 53.8693 79.9291C53.7475 80.1139 53.5738 80.2582 53.3704 80.3435C53.1669 80.4288 52.9428 80.4514 52.7266 80.4084C52.5104 80.3654 52.3117 80.2587 52.1559 80.1019C52 79.945 51.894 79.7452 51.8512 79.5276C51.8084 79.31 51.8309 79.0846 51.9157 78.8799C52.0005 78.6752 52.1439 78.5004 52.3276 78.3779C52.5113 78.2553 52.727 78.1904 52.9474 78.1914C53.2407 78.1927 53.5215 78.3105 53.7289 78.5192C53.9362 78.7278 54.0533 79.0104 54.0547 79.3054Z" fill="#263238"/>
<path d="M33.3783 80.1231C33.3783 80.1231 36.0346 82.6782 36.771 83.133C37.5075 83.5878 39.0819 84.293 38.9296 85.4786C38.7772 86.6641 34.9985 87.4716 34.196 86.6591C33.3935 85.8465 26.9737 83.5111 26.7757 82.8826C26.5776 82.254 27.0398 81.1911 27.0398 81.1911L32.7739 80.3224L33.3783 80.1231Z" fill="white"/>
<path d="M35.425 87.2416C34.9225 87.2875 34.421 87.1436 34.0181 86.8379C33.6626 86.4751 31.8748 85.6881 30.3054 84.9982C27.5476 83.782 26.6638 83.3476 26.5368 82.9899C26.288 82.3 26.7552 81.2269 26.8111 81.1042C26.8292 81.0658 26.8561 81.0323 26.8897 81.0065C26.9233 80.9807 26.9625 80.9634 27.0041 80.956L32.7382 80.0924L33.2918 79.8829C33.3367 79.8663 33.3852 79.8628 33.4319 79.8728C33.4786 79.8827 33.5216 79.9057 33.556 79.9391C33.556 79.9646 36.2021 82.4687 36.9081 82.9184C37.0147 82.9899 37.1468 83.0615 37.2839 83.1432C38.0965 83.6185 39.3155 84.3339 39.1834 85.5093C39.0869 86.24 38.0864 86.6846 37.5023 86.8839C36.8322 87.1096 36.1316 87.2302 35.425 87.2416ZM27.2225 81.4415C27.0211 81.8694 26.9487 82.3473 27.0143 82.8162C27.192 83.0717 29.1068 83.9149 30.5086 84.5281C32.2811 85.3099 33.9521 86.0611 34.3787 86.4751C34.8054 86.889 36.1462 86.8072 37.3398 86.3984C38.1118 86.1378 38.6349 85.7596 38.6755 85.4428C38.7873 84.6098 37.7715 84.0171 37.03 83.5827C36.8827 83.5009 36.7506 83.4243 36.6389 83.3527C35.9685 82.9235 33.8455 80.9151 33.3172 80.4195L32.8601 80.583L27.2225 81.4415Z" fill="#263238"/>
<path d="M27.7915 32.1789C27.7915 32.1789 32.2559 52.1497 32.3626 56.2532C32.4692 60.3567 31.5855 74.3894 31.5855 74.3894C31.5855 74.3894 33.5764 78.171 33.6171 78.5185C33.6577 78.866 33.3733 79.7807 33.353 80.1231C33.353 80.1231 26.5472 82.0343 25.8615 82.0803C25.1758 82.1263 24.0839 82.0803 24.0839 82.0803C24.0839 82.0803 23.449 75.3041 22.8141 73.0454C22.1793 70.7867 19.6957 57.7607 19.6957 57.7607L14.4237 43.5339C14.4237 43.5339 12.062 35.8021 11.6506 34.0697C11.2392 32.3374 11.6506 28.0959 11.6506 28.0959C11.6506 28.0959 21.8593 29.1179 23.7741 29.7311C25.6888 30.3444 27.7915 32.1789 27.7915 32.1789Z" fill="#263238"/>
<path d="M25.2775 82.3716C24.7036 82.3716 24.1297 82.3358 24.0941 82.3358C24.0333 82.3335 23.9754 82.3088 23.9314 82.2664C23.8874 82.224 23.8603 82.1669 23.8554 82.1058C23.8554 82.0394 23.2206 75.3246 22.5958 73.1169C21.9711 70.9093 19.5739 58.3382 19.4723 57.7863L14.1851 43.6105C14.0835 43.2834 11.8132 35.8378 11.4018 34.1208C10.9904 32.4038 11.4018 28.2338 11.4018 28.0601C11.4114 27.9933 11.4437 27.9318 11.4933 27.8863C11.548 27.8473 11.6141 27.8275 11.6812 27.8301C12.0977 27.871 21.9356 28.8522 23.8707 29.4807C25.8057 30.1093 27.8881 31.903 27.9744 31.9796C28.018 32.0144 28.0485 32.063 28.0608 32.1176C28.2385 32.9301 32.5303 52.1599 32.6318 56.243C32.7334 60.1574 31.9259 73.2345 31.8598 74.3281C32.3677 75.2888 33.8406 78.1147 33.8914 78.4622C33.9082 78.8411 33.8584 79.22 33.7441 79.5814C33.6971 79.7632 33.6598 79.9474 33.6324 80.1333C33.6292 80.1859 33.6099 80.2362 33.5772 80.2774C33.5445 80.3186 33.4999 80.3486 33.4495 80.3632C32.7487 80.5625 26.593 82.2847 25.9073 82.3307C25.7143 82.3716 25.4959 82.3716 25.2775 82.3716ZM24.343 81.835C24.8506 81.8607 25.3591 81.8607 25.8667 81.835C26.339 81.8043 30.4377 80.7005 33.1448 79.934C33.1702 79.8011 33.2058 79.6478 33.2413 79.4792C33.3293 79.1854 33.3788 78.8813 33.3886 78.5747C33.3277 78.3345 32.2966 76.3057 31.357 74.5171C31.3363 74.4742 31.3259 74.4269 31.3266 74.3792C31.3266 74.2412 32.2052 60.3158 32.1036 56.2685C32.0021 52.3745 27.8729 33.7427 27.5326 32.3271C27.172 32.0256 25.3283 30.5181 23.6624 29.9815C21.9965 29.445 13.4385 28.5404 11.8488 28.382C11.7726 29.3172 11.5288 32.5877 11.8488 34.0033C12.25 35.705 14.5914 43.3703 14.6117 43.447L19.9091 57.6483C19.9446 57.822 22.4079 70.7356 23.0326 72.9534C23.6624 75.0077 24.2262 80.6188 24.343 81.8197V81.835Z" fill="#263238"/>
<path d="M27.0398 81.2115C27.8391 81.7149 28.7017 82.1084 29.6047 82.3818C30.8592 82.7088 34.6836 83.9557 34.8207 84.6456C34.854 85.0061 34.816 85.3697 34.7087 85.7153C34.6015 86.0609 34.4272 86.3816 34.196 86.659C33.8354 87.0628 30.5951 87.3898 28.3908 87.3489C26.1865 87.308 22.4484 85.8976 21.8694 85.6932C21.2904 85.4888 20.3762 85.0953 20.3762 85.0953C20.3762 85.0953 25.8615 81.0582 27.0398 81.2115Z" fill="white"/>
<path d="M28.721 87.6044H28.3858C27.0094 87.5789 24.8559 87.0372 21.9762 85.9998L21.7832 85.9334C21.1991 85.729 20.3103 85.3457 20.2595 85.3304C20.2178 85.3124 20.1817 85.2834 20.1549 85.2466C20.1281 85.2097 20.1116 85.1663 20.1071 85.1209C20.103 85.0763 20.1101 85.0313 20.1279 84.9902C20.1456 84.9491 20.1734 84.9132 20.2087 84.8858C21.1381 84.201 25.8514 80.7976 27.0602 80.956C27.0966 80.9621 27.1313 80.976 27.1618 80.9969C27.9411 81.4813 28.7793 81.8626 29.6555 82.1314C29.7063 82.1314 34.8564 83.5571 35.0544 84.5945C35.0948 84.994 35.0549 85.3976 34.9371 85.7812C34.8193 86.1648 34.626 86.5207 34.3688 86.8277C33.9117 87.3592 30.5901 87.6044 28.721 87.6044ZM20.8893 85.0493C21.1991 85.1771 21.6308 85.3508 21.9508 85.4684L22.1488 85.5348C24.9727 86.5568 27.0754 87.0679 28.3959 87.1087C30.7577 87.1496 33.7085 86.7868 33.9828 86.5006C34.3953 85.9992 34.5975 85.3558 34.5466 84.707C34.3942 84.2573 31.3925 83.133 29.5133 82.6629C28.6059 82.3909 27.7383 81.9991 26.9332 81.4977C26.1257 81.462 22.9615 83.5367 20.8791 85.034L20.8893 85.0493Z" fill="#263238"/>
<path d="M24.9777 36.8906L22.3721 37.9126L22.2909 39.3588L25.1706 52.9264C25.1706 52.9264 25.3383 57.4592 25.6785 58.931C26.0188 60.4027 26.5521 76.3926 26.5521 76.3926C26.5521 76.3926 27.8879 78.2629 28.0403 78.5236C28.1926 78.7842 28.218 81.3546 28.218 81.3546C28.218 81.3546 23.1746 83.5367 21.7678 84.4821C20.3609 85.4275 19.787 84.9625 19.787 84.9625C19.0792 84.737 18.3855 84.4691 17.7097 84.1601C17.4659 83.9762 17.4608 82.6271 17.4608 82.6271C17.4608 82.6271 14.3169 67.7665 13.8751 65.0939C13.4332 62.4212 12.2193 53.9025 12.2193 53.9025C12.2193 53.9025 7.90731 37.2687 7.55686 35.9707C7.20641 34.6727 7.24705 27.9272 7.24705 27.9272C7.24705 27.9272 16.0793 29.2916 17.9128 29.399C19.7463 29.5063 25.384 31.2693 25.384 31.2693L25.9477 31.7292" fill="#263238"/>
<path d="M20.2339 85.3406C20.0391 85.3488 19.8458 85.3028 19.6752 85.2077C18.9504 84.9812 18.2427 84.7028 17.5573 84.3748C17.278 84.1653 17.2119 83.3272 17.2069 82.6475C17.0596 81.9525 14.0528 67.7257 13.6516 65.1297C13.2504 62.5337 12.006 54.02 11.9959 53.9383C11.9857 53.8565 7.68382 37.3147 7.33846 36.0525C6.99309 34.7902 7.01848 28.2185 7.01848 27.9425C7.02219 27.8682 7.05507 27.7983 7.10991 27.7484C7.13743 27.7243 7.16998 27.7068 7.20514 27.697C7.2403 27.6873 7.27718 27.6856 7.31306 27.6921C7.39941 27.6921 16.1504 29.0515 17.9789 29.1588C19.8073 29.2661 25.2519 30.9729 25.4855 31.0496C25.5153 31.0568 25.5431 31.0708 25.5668 31.0904L26.1356 31.5504C26.1882 31.5931 26.2217 31.655 26.2288 31.7226C26.236 31.7901 26.2162 31.8578 26.1737 31.9106C26.1313 31.9635 26.0697 31.9972 26.0026 32.0044C25.9354 32.0116 25.8682 31.9916 25.8157 31.949L25.3078 31.5197C24.7694 31.3511 19.6905 29.7669 17.9687 29.6647C16.2469 29.5625 9.11609 28.4791 7.54669 28.2389C7.54669 29.5523 7.54669 34.8158 7.84635 35.9043C8.19172 37.1869 12.4682 53.6725 12.5139 53.8412C12.5596 54.0098 13.7329 62.4161 14.1696 65.053C14.6064 67.6899 17.7249 82.4278 17.7554 82.576C17.7581 82.5929 17.7581 82.6102 17.7554 82.6271C17.7355 83.0864 17.7922 83.5459 17.923 83.9864C18.571 84.2726 19.2339 84.5234 19.9089 84.7376C19.9363 84.747 19.962 84.7608 19.985 84.7785C19.985 84.7785 20.4929 85.08 21.6662 84.2675C22.9562 83.4038 27.1311 81.5693 28.0047 81.2013C28.0191 80.3471 27.9699 79.493 27.8574 78.6462C27.7406 78.4469 26.7553 77.0569 26.3845 76.5408C26.3545 76.4992 26.3384 76.4491 26.3388 76.3977C26.3388 76.2393 25.8004 60.418 25.4703 58.9872C25.1402 57.5563 24.9624 53.1206 24.9624 52.9367L22.042 39.4457C22.0395 39.4236 22.0395 39.4013 22.042 39.3792L22.1233 37.933C22.1271 37.8841 22.1443 37.8372 22.173 37.7975C22.2017 37.7578 22.2407 37.7269 22.2858 37.7082L24.8913 36.6606C24.9541 36.6381 25.0231 36.6404 25.0843 36.6669C25.1455 36.6934 25.1945 36.7423 25.2214 36.8037C25.2451 36.8668 25.2434 36.9367 25.2169 36.9986C25.1904 37.0606 25.141 37.1098 25.0792 37.1358L22.621 38.1221L22.555 39.3741L25.4246 52.906C25.4246 52.9929 25.5973 57.4745 25.9325 58.9054C26.2677 60.3363 26.7654 74.9873 26.8111 76.3364C27.0702 76.6992 28.1266 78.1761 28.2688 78.4265C28.411 78.6769 28.477 80.399 28.4821 81.3802C28.484 81.431 28.4704 81.4813 28.4432 81.5242C28.416 81.5671 28.3764 81.6007 28.3297 81.6204C28.279 81.6204 23.2914 83.8024 21.915 84.7223C21.4275 85.0906 20.8426 85.3057 20.2339 85.3406Z" fill="#263238"/>
<path d="M25.8919 78.498C25.8588 78.4987 25.8259 78.4927 25.7951 78.4805C25.7643 78.4682 25.7363 78.4498 25.7126 78.4265C25.689 78.4032 25.6702 78.3753 25.6574 78.3446C25.6446 78.3139 25.6379 78.2809 25.638 78.2476C25.638 78.0688 25.4551 60.2801 25.4246 58.9463C25.4246 57.8987 22.489 46.1247 20.9552 40.0385C20.9408 39.9782 20.9482 39.9147 20.9761 39.8595C21.0041 39.8042 21.0506 39.7608 21.1075 39.737L24.1549 38.4696C24.1855 38.4563 24.2185 38.4494 24.2518 38.4491C24.2852 38.4489 24.3182 38.4554 24.349 38.4683C24.3798 38.4811 24.4077 38.5001 24.4311 38.524C24.4544 38.548 24.4728 38.5764 24.485 38.6076C24.4983 38.6384 24.5052 38.6716 24.5054 38.7051C24.5056 38.7387 24.4992 38.7719 24.4864 38.8029C24.4736 38.8339 24.4547 38.862 24.431 38.8855C24.4072 38.909 24.3789 38.9274 24.3479 38.9398L21.4885 40.1253C21.9963 42.2358 25.8817 57.633 25.9173 58.931C25.9528 60.229 26.1255 78.0585 26.1306 78.2374C26.1306 78.3052 26.1039 78.3702 26.0562 78.4181C26.0086 78.466 25.944 78.4929 25.8767 78.4929L25.8919 78.498Z" fill="white"/>
<path d="M41.149 4.08291C41.149 4.08291 34.648 2.03882 33.5306 1.9775C32.4132 1.91617 27.3546 1.51758 24.5663 3.22951C21.7779 4.94143 13.6313 13.7361 11.1528 17.3388C8.67425 20.9415 6.70361 28.3207 6.70361 28.3207C6.70361 28.3207 12.6003 30.0122 14.1494 30.0991C15.6984 30.1859 19.4975 30.6101 19.4975 30.6101C19.4975 30.6101 23.2915 33.0119 26.1763 33.1652C29.0611 33.3185 26.3185 34.315 31.5752 30.978C34.3214 29.1757 37.209 27.6017 40.2094 26.2715L36.4713 31.9899C37.2999 32.9597 38.3611 33.7002 39.5542 34.1413C41.2811 34.6523 44.5215 35.8838 44.5215 35.8838C44.5215 35.8838 46.4972 28.4025 47.3352 26.3686C48.1732 24.3347 49.3109 20.7474 49.2144 18.7799C49.1179 16.8125 47.9497 11.9424 47.9497 11.9424C47.9497 11.9424 43.1755 4.82389 41.149 4.08291Z" fill="white"/>
<path d="M44.5114 36.1598H44.42C44.3895 36.1598 41.1695 34.9282 39.4731 34.4223C38.2309 33.9664 37.1257 33.1975 36.2632 32.1892C36.231 32.1446 36.2137 32.0909 36.2137 32.0359C36.2137 31.9808 36.231 31.9271 36.2632 31.8826L39.529 26.8899C36.8274 28.1598 34.2127 29.6092 31.7023 31.2284C30.1075 32.2505 29.2594 32.8535 28.7515 33.2163C28.0404 33.7273 27.949 33.7887 27.4716 33.6558C27.0423 33.5381 26.6008 33.4712 26.1561 33.4565C23.383 33.2981 19.8836 31.1773 19.4062 30.9014C18.9237 30.8452 15.5462 30.4721 14.1292 30.3904C12.575 30.3035 6.86628 28.6682 6.62757 28.6018C6.56383 28.5827 6.50983 28.5397 6.47674 28.4817C6.44365 28.4237 6.434 28.355 6.4498 28.2901C6.53106 27.9886 8.48138 20.8291 10.9396 17.2315C13.4791 13.5368 21.6968 4.72681 24.4293 3.05065C26.2425 1.93662 29.2543 1.51759 33.3733 1.74755H33.5409C34.6938 1.81398 40.9714 3.79163 41.2406 3.86318C43.3179 4.6246 47.96 11.5285 48.153 11.8402C48.1712 11.8643 48.1834 11.8923 48.1886 11.922C48.2394 12.1213 49.372 16.8227 49.4634 18.8106C49.5701 21.008 48.2698 24.81 47.5639 26.5066C46.7411 28.5047 44.7806 35.9145 44.7603 35.9912C44.7517 36.0258 44.7359 36.0583 44.7141 36.0865C44.6922 36.1146 44.6647 36.1379 44.6333 36.1547C44.5935 36.1648 44.552 36.1665 44.5114 36.1598ZM36.7813 31.9847C37.5522 32.8551 38.5261 33.5189 39.6153 33.9164C41.0476 34.3457 43.5312 35.2655 44.3387 35.567C44.7044 34.1873 46.3348 28.1214 47.0915 26.292C47.8889 24.3603 49.0469 20.7729 48.9504 18.8106C48.8641 16.976 47.8178 12.5608 47.701 12.0702C46.0605 9.61218 42.6221 4.91588 41.0679 4.32309C38.8281 3.62299 34.3688 2.279 33.4952 2.23301H33.3276C29.3101 1.98772 26.405 2.40165 24.6934 3.45946C22.0015 5.11518 13.8752 13.8332 11.3561 17.4922C9.18227 20.6554 7.37417 26.849 7.00849 28.1521C8.13601 28.4689 12.834 29.7771 14.1596 29.8538C15.6833 29.9458 19.4824 30.3648 19.5179 30.3648C19.5562 30.3658 19.5934 30.3783 19.6246 30.4006C19.6652 30.4261 23.3982 32.7717 26.1866 32.9301C26.6661 32.9451 27.1419 33.0189 27.6036 33.1499C27.8525 33.2163 27.8525 33.2214 28.4569 32.7871C28.9648 32.4191 29.8231 31.8059 31.4331 30.7838C34.1956 28.9733 37.1003 27.3924 40.1181 26.0569C40.1683 26.0372 40.2234 26.034 40.2755 26.0479C40.3275 26.0617 40.3739 26.0919 40.4078 26.134C40.4417 26.176 40.4615 26.2279 40.4642 26.282C40.4669 26.3362 40.4524 26.3897 40.4229 26.435L36.7813 31.9847Z" fill="#263238"/>
<path d="M20.4928 28.6835C20.4583 28.6837 20.4242 28.6765 20.3927 28.6624C20.3611 28.6483 20.333 28.6276 20.31 28.6018C19.6492 27.8069 19.1178 26.9117 18.7355 25.9496C18.722 25.9187 18.7148 25.8855 18.7142 25.8518C18.7135 25.8181 18.7195 25.7846 18.7318 25.7533C18.7441 25.7219 18.7624 25.6933 18.7857 25.6691C18.809 25.6449 18.8368 25.6256 18.8675 25.6123C18.929 25.586 18.9982 25.5846 19.0607 25.6084C19.1231 25.6322 19.174 25.6794 19.2028 25.74C19.5616 26.6508 20.0604 27.4992 20.6807 28.2543C20.717 28.2899 20.7416 28.3358 20.7513 28.3859C20.7609 28.4359 20.7552 28.4878 20.7347 28.5345C20.7143 28.5812 20.6802 28.6204 20.6369 28.6471C20.5937 28.6737 20.5434 28.6864 20.4928 28.6835Z" fill="#263238"/>
<path d="M18.2786 24.3807C18.2267 24.3793 18.1764 24.3626 18.134 24.3326C18.0915 24.3026 18.0588 24.2607 18.0399 24.2121C17.2933 22.168 16.7905 20.2057 16.7854 20.1852C16.777 20.153 16.7752 20.1194 16.7799 20.0865C16.7846 20.0535 16.7958 20.0219 16.8128 19.9933C16.8298 19.9648 16.8523 19.9399 16.879 19.9202C16.9057 19.9005 16.936 19.8864 16.9682 19.8786C17.0006 19.8702 17.0343 19.8682 17.0674 19.8729C17.1004 19.8776 17.1323 19.8888 17.1611 19.9059C17.1899 19.923 17.215 19.9456 17.2351 19.9725C17.2552 19.9994 17.2697 20.03 17.278 20.0626C17.278 20.0626 17.7859 22.0045 18.5173 24.0332C18.5403 24.0976 18.5373 24.1686 18.5088 24.2307C18.4803 24.2929 18.4286 24.3413 18.3649 24.3654C18.3373 24.3758 18.3081 24.381 18.2786 24.3807Z" fill="#263238"/>
<path d="M18.8983 30.3852C18.8363 30.384 18.7769 30.3604 18.7307 30.3188C16.4046 28.193 14.1901 23.5733 14.0936 23.3791C14.0742 23.3192 14.0769 23.2542 14.1015 23.1961C14.126 23.1381 14.1706 23.091 14.2271 23.0635C14.2835 23.0361 14.3479 23.0301 14.4084 23.0468C14.4688 23.0635 14.5212 23.1017 14.5558 23.1543C14.5558 23.2054 16.821 27.8863 19.071 29.9406C19.0946 29.964 19.1134 29.9918 19.1263 30.0225C19.1391 30.0532 19.1457 30.0862 19.1457 30.1195C19.1457 30.1528 19.1391 30.1858 19.1263 30.2165C19.1134 30.2472 19.0946 30.275 19.071 30.2984C19.0496 30.3239 19.0233 30.3448 18.9936 30.3597C18.9639 30.3747 18.9315 30.3833 18.8983 30.3852Z" fill="#263238"/>
<path d="M42.8252 21.6416L37.5634 21.5957C37.517 21.5965 37.4712 21.5839 37.4317 21.5595C37.3921 21.535 37.3602 21.4997 37.3399 21.4577C37.3151 21.4178 37.302 21.3718 37.302 21.3248C37.302 21.2778 37.3151 21.2318 37.3399 21.1919L41.1339 15.9386L44.7806 11.4927C44.8144 11.4544 44.8586 11.427 44.9077 11.4139C44.9569 11.4007 45.0088 11.4024 45.0571 11.4188C45.1053 11.4351 45.1476 11.4654 45.1788 11.5058C45.2101 11.5462 45.2288 11.595 45.2326 11.6461L45.4104 15.1568L45.1666 19.4289C45.1641 19.4775 45.1478 19.5243 45.1198 19.5639C45.0917 19.6035 45.0531 19.6342 45.0083 19.6525C44.9635 19.6707 44.9144 19.6757 44.8669 19.6669C44.8194 19.6581 44.7753 19.6358 44.7399 19.6027L43.5667 18.5091L43.0588 21.4219C43.0508 21.4799 43.0232 21.5334 42.9807 21.5734C42.9382 21.6134 42.8833 21.6375 42.8252 21.6416ZM38.0611 21.0897L42.6322 21.1306L43.1655 17.9725C43.1727 17.9265 43.1921 17.8832 43.2215 17.8473C43.251 17.8113 43.2895 17.784 43.3331 17.7681C43.3767 17.7551 43.4228 17.7535 43.4673 17.7633C43.5117 17.7731 43.5529 17.7941 43.587 17.8243L44.7095 18.8719L44.9228 15.167L44.7501 12.3615L41.525 16.2861L38.0611 21.0897Z" fill="#263238"/>
<path d="M43.0486 4.66037C43.0486 4.66037 47.2184 1.13431 49.6513 0.475094C52.0841 -0.184126 55.294 0.914573 56.2539 2.00816C57.2138 3.10175 58.0722 7.93091 58.1077 9.30556C58.1433 10.6802 57.9452 12.1468 57.0157 12.5506C56.0863 12.9543 54.7708 14.1296 54.3137 14.2216C53.8994 14.2741 53.4811 14.2877 53.0643 14.2625L52.2466 16.7256L50.1185 16.2606C50.1185 16.2606 46.0554 18.1922 45.4815 18.0441C44.9075 17.8959 43.1553 15.0597 43.1553 15.0597C43.1553 15.0597 42.2614 18.7748 41.0831 19.618C39.9734 20.3097 38.7998 20.8915 37.5786 21.3555C37.5786 21.3555 39.8946 18.5244 40.753 13.4397C41.238 10.4463 42.0067 7.50642 43.0486 4.66037Z" fill="white"/>
<path d="M37.5686 21.5956C37.5284 21.596 37.4886 21.587 37.4525 21.5693C37.4163 21.5515 37.3848 21.5256 37.3603 21.4934C37.3261 21.4488 37.3076 21.394 37.3076 21.3376C37.3076 21.2812 37.3261 21.2264 37.3603 21.1817C37.3603 21.1511 39.6408 18.3302 40.4737 13.3835C40.9733 10.3762 41.7539 7.42301 42.805 4.56326C42.8221 4.52504 42.8463 4.49039 42.8761 4.46106C43.0488 4.31798 47.117 0.883906 49.56 0.229798C52.0994 -0.465193 55.4211 0.699936 56.4165 1.82419C57.412 2.94843 58.3008 7.95645 58.3364 9.28C58.3872 11.2168 57.9656 12.387 57.092 12.7703C56.5561 13.0372 56.046 13.3537 55.5684 13.7157C55.1973 14.0304 54.7768 14.2809 54.324 14.4567C53.9541 14.5105 53.5799 14.5276 53.2066 14.5078L52.4499 16.792C52.43 16.8517 52.389 16.9019 52.3346 16.933C52.2803 16.9642 52.2164 16.974 52.1553 16.9607L50.1237 16.511C48.8337 17.1242 45.9692 18.4273 45.3952 18.2791C44.8873 18.1462 43.8715 16.6643 43.2316 15.6729C42.9218 16.7716 42.1701 19.1223 41.2 19.8122C40.0746 20.516 38.884 21.1082 37.6448 21.5803C37.6203 21.5893 37.5946 21.5944 37.5686 21.5956ZM43.2621 4.81367C42.2408 7.621 41.4791 10.5171 40.9867 13.4653C40.5834 16.0599 39.6626 18.5456 38.2796 20.7729C39.2009 20.397 40.0851 19.935 40.9207 19.3931C41.8247 18.7493 42.6526 15.9948 42.8913 14.983C42.9037 14.9344 42.9301 14.8906 42.9671 14.8569C43.0042 14.8233 43.0502 14.8014 43.0995 14.7939C43.1487 14.785 43.1995 14.7914 43.2449 14.8125C43.2903 14.8335 43.3283 14.868 43.3535 14.9115C44.1661 16.2197 45.2327 17.6863 45.5273 17.7834C45.8219 17.8805 48.0668 16.9249 49.9917 16.0153C50.0444 15.9974 50.1015 15.9974 50.1542 16.0153L52.0588 16.4292L52.8105 14.1858C52.8282 14.1329 52.8626 14.0873 52.9084 14.0559C52.9543 14.0246 53.0091 14.0092 53.0644 14.0121C53.461 14.0347 53.8588 14.021 54.2529 13.9712C54.6268 13.7967 54.9781 13.577 55.2992 13.3171C55.8012 12.9365 56.3367 12.603 56.899 12.3206C57.732 11.9578 57.8691 10.486 57.8386 9.31578C57.8031 7.83892 56.9194 3.1835 56.0509 2.18701C55.1824 1.19051 52.0334 0.107152 49.7022 0.74082C47.503 1.31828 43.7344 4.41507 43.2621 4.81367Z" fill="#263238"/>
<path d="M56.2388 1.99282C55.2789 0.914558 52.0538 -0.184141 49.6362 0.459747C47.2186 1.10364 43.0336 4.64502 43.0336 4.64502C43.0336 4.64502 42.4596 6.776 43.2418 6.93953L44.029 7.09794C44.029 7.09794 45.954 5.15095 46.5685 6.0759C47.1831 7.00085 47.8281 7.85935 47.4573 8.41126C47.0866 8.96316 46.4415 10.0619 46.4415 10.0619L47.2135 10.4502L48.7372 9.39754L49.9359 10.2663L52.2468 9.48441C52.2468 9.48441 54.5425 10.9868 55.7462 11.738C56.2024 12.0597 56.7434 12.2375 57.3003 12.249C57.9301 11.6614 58.0723 10.4145 58.0419 9.23913C58.0571 7.91558 57.1988 3.07618 56.2388 1.99282Z" fill="#263238"/>
<path d="M57.2748 12.5557C56.6975 12.5223 56.1404 12.3295 55.6648 11.9986C54.6134 11.3394 52.724 10.1079 52.2619 9.80636L50.0678 10.5473C50.0289 10.5609 49.9873 10.5647 49.9466 10.5585C49.9059 10.5522 49.8673 10.5361 49.8341 10.5116L48.7828 9.75015L47.3962 10.7006C47.3567 10.723 47.3121 10.7348 47.2667 10.7348C47.2214 10.7348 47.1767 10.723 47.1372 10.7006L46.3703 10.3123C46.3387 10.2977 46.3105 10.2764 46.2878 10.25C46.265 10.2235 46.2481 10.1925 46.2382 10.159C46.2127 10.0932 46.2127 10.0203 46.2382 9.95456C46.2687 9.90856 46.8782 8.83541 47.254 8.2835C47.4927 7.9309 47.0255 7.23591 46.5379 6.50004L46.3601 6.23941C46.3374 6.19674 46.3038 6.16096 46.2627 6.1358C46.2216 6.11063 46.1746 6.097 46.1265 6.09633C45.6186 6.02989 44.679 6.79133 44.2016 7.27169C44.172 7.30123 44.1358 7.32316 44.096 7.33561C44.0562 7.34807 44.014 7.35067 43.973 7.34322L43.1858 7.18481C43.0952 7.16524 43.0096 7.12699 42.9344 7.07246C42.8592 7.01793 42.7961 6.9483 42.749 6.86798C42.3528 6.22409 42.749 4.73702 42.7846 4.57349C42.7966 4.52148 42.8251 4.47483 42.8658 4.44062C43.0385 4.29753 47.1067 0.863462 49.5497 0.209353C52.0892 -0.485638 55.4108 0.679491 56.4063 1.80374C57.4018 2.92799 58.2906 7.93601 58.3261 9.25956C58.3668 10.8386 58.0874 11.9169 57.5033 12.4637C57.4592 12.5053 57.4013 12.529 57.3408 12.5301L57.2748 12.5557ZM52.2974 9.29533C52.346 9.29627 52.3933 9.31039 52.4346 9.33621C52.4599 9.33621 54.7404 10.8693 55.9289 11.5898C56.3195 11.86 56.7723 12.0254 57.2443 12.0702C57.6659 11.6052 57.8741 10.6598 57.8386 9.32088C57.803 7.84402 56.9193 3.18862 56.0508 2.19212C55.1823 1.19563 52.0333 0.112252 49.7021 0.74592C47.5232 1.33871 43.8003 4.39462 43.2721 4.8341C43.135 5.39623 42.9979 6.32119 43.201 6.64824C43.2117 6.66893 43.2268 6.68697 43.2453 6.70111C43.2637 6.71524 43.285 6.72512 43.3077 6.73001L43.9629 6.86286C44.3133 6.5307 45.4002 5.54443 46.1976 5.63641C46.3203 5.64727 46.4389 5.68605 46.5444 5.74979C46.65 5.81353 46.7398 5.90057 46.8071 6.00435L46.9798 6.26497C47.5943 7.18481 48.1276 7.98201 47.6908 8.62589C47.4318 9.00916 47.0407 9.67349 46.8376 10.0261L47.2337 10.2254L48.6457 9.25956C48.6882 9.22989 48.7387 9.21399 48.7904 9.21399C48.8421 9.21399 48.8927 9.22989 48.9352 9.25956L50.0271 10.0517L52.2162 9.29533C52.243 9.29045 52.2706 9.29045 52.2974 9.29533Z" fill="#263238"/>
<path d="M52.9475 13.8383C52.9044 13.8382 52.8621 13.8268 52.8247 13.8053C52.7873 13.7838 52.7561 13.7529 52.7342 13.7157C52.4586 13.2957 52.048 12.9836 51.5711 12.8316C51.5377 12.8242 51.5062 12.8103 51.4782 12.7907C51.4502 12.771 51.4263 12.746 51.4079 12.717C51.3895 12.6881 51.377 12.6558 51.371 12.6219C51.365 12.5881 51.3657 12.5534 51.373 12.5199C51.3804 12.4863 51.3942 12.4546 51.4137 12.4264C51.4333 12.3982 51.4581 12.3742 51.4869 12.3557C51.5157 12.3372 51.5478 12.3245 51.5814 12.3185C51.615 12.3125 51.6495 12.3132 51.6828 12.3206C52.2923 12.5043 52.8176 12.8989 53.1659 13.4346C53.2004 13.4925 53.2112 13.5617 53.196 13.6274C53.1809 13.6932 53.1409 13.7505 53.0846 13.7872C53.0441 13.816 52.9968 13.8336 52.9475 13.8383Z" fill="#263238"/>
<path d="M51.3526 14.4056H51.2612C51.0769 14.3133 50.9147 14.182 50.7858 14.0205C50.6569 13.859 50.5644 13.6714 50.5146 13.4704C50.5046 13.4369 50.5013 13.4016 50.5048 13.3668C50.5083 13.3319 50.5186 13.2981 50.5351 13.2673C50.5516 13.2364 50.574 13.2091 50.601 13.187C50.628 13.1649 50.659 13.1483 50.6924 13.1382C50.7257 13.1282 50.7607 13.1248 50.7953 13.1284C50.83 13.1319 50.8636 13.1423 50.8942 13.1589C50.9249 13.1755 50.952 13.198 50.974 13.2251C50.996 13.2523 51.0125 13.2835 51.0225 13.3171C51.0853 13.5346 51.2108 13.7284 51.3831 13.8741L51.9215 13.5675C51.9801 13.5344 52.0494 13.526 52.1141 13.5442C52.1788 13.5624 52.2338 13.6057 52.2668 13.6646C52.2997 13.7236 52.3081 13.7933 52.29 13.8584C52.2719 13.9235 52.2289 13.9788 52.1703 14.0121L51.505 14.3902C51.4567 14.4098 51.4038 14.4151 51.3526 14.4056Z" fill="#263238"/>
<path d="M48.3511 16.3014C48.3099 16.3011 48.2695 16.2907 48.2332 16.2711C48.1969 16.2515 48.1659 16.2233 48.1429 16.189C48.0006 16.0008 47.8972 15.7858 47.8388 15.5567C47.7804 15.3277 47.768 15.0892 47.8026 14.8553C47.8194 14.7906 47.8607 14.7351 47.9176 14.7007C47.9746 14.6663 48.0427 14.6557 48.1073 14.6713C48.1394 14.6785 48.1698 14.6921 48.1966 14.7112C48.2235 14.7303 48.2463 14.7546 48.2638 14.7826C48.2813 14.8106 48.293 14.8419 48.2984 14.8745C48.3038 14.9072 48.3027 14.9406 48.2952 14.9728C48.2629 15.3061 48.3592 15.6392 48.5644 15.9029C48.6012 15.9592 48.6143 16.0279 48.601 16.0939C48.5877 16.1599 48.549 16.218 48.4933 16.2555C48.452 16.2857 48.4022 16.3018 48.3511 16.3014Z" fill="#263238"/>
<path d="M43.14 15.2999C43.0726 15.2999 43.008 15.2729 42.9604 15.225C42.9128 15.1771 42.886 15.1121 42.886 15.0443V12.4892C42.8854 12.4552 42.8914 12.4215 42.9039 12.3899C42.9164 12.3583 42.935 12.3295 42.9586 12.3052C42.9822 12.281 43.0105 12.2617 43.0416 12.2485C43.0728 12.2354 43.1062 12.2286 43.14 12.2286C43.2073 12.2286 43.2719 12.2555 43.3195 12.3034C43.3672 12.3514 43.3939 12.4163 43.3939 12.4841V15.0392C43.3939 15.107 43.3672 15.172 43.3195 15.2199C43.2719 15.2678 43.2073 15.2947 43.14 15.2947V15.2999Z" fill="#263238"/>
<path d="M44.0439 7.11328C43.6946 7.6156 43.4795 8.19981 43.4192 8.80986C43.4649 9.51507 44.308 10.0006 44.308 10.0006" fill="white"/>
<path d="M44.308 10.2561C44.264 10.2557 44.2205 10.2452 44.1811 10.2254C44.1455 10.1998 43.2212 9.65815 43.1653 8.8303C43.2209 8.16223 43.4504 7.52068 43.8306 6.97018C43.8688 6.91382 43.9274 6.87477 43.9939 6.86139C44.0603 6.84801 44.1294 6.86138 44.1861 6.89863C44.214 6.9176 44.2379 6.94196 44.2563 6.97028C44.2747 6.9986 44.2874 7.03032 44.2935 7.0636C44.2997 7.09688 44.2992 7.13105 44.2921 7.16414C44.285 7.19723 44.2714 7.22858 44.2522 7.25635C43.9303 7.70818 43.7307 8.23651 43.6732 8.78942C43.7037 9.24934 44.2369 9.65816 44.435 9.77569C44.4926 9.8099 44.5347 9.86515 44.5527 9.92991C44.5707 9.99467 44.5631 10.0639 44.5315 10.1232C44.5092 10.1632 44.4768 10.1965 44.4375 10.2198C44.3983 10.2431 44.3536 10.2556 44.308 10.2561Z" fill="#263238"/>
<path d="M43.2466 4.08802L41.4994 3.3266L36.2478 12.9645L40.1535 15.4583L43.2466 4.08802Z" fill="white"/>
<path d="M40.1791 15.7138C40.131 15.7146 40.0836 15.7023 40.042 15.678L36.1159 13.1791C36.0609 13.1452 36.021 13.091 36.0049 13.028C35.9888 12.9651 35.9977 12.8983 36.0296 12.8418L41.2761 3.20394C41.3073 3.14845 41.3576 3.10638 41.4175 3.08566C41.4774 3.06495 41.5427 3.06703 41.6012 3.09151L43.3484 3.85805C43.4034 3.88362 43.4477 3.92781 43.4737 3.9829C43.4997 4.03799 43.5057 4.10051 43.4906 4.15956L40.3975 15.5298C40.3872 15.568 40.368 15.6033 40.3415 15.6326C40.315 15.6619 40.282 15.6845 40.2451 15.6984C40.2238 15.7061 40.2016 15.7113 40.1791 15.7138ZM36.6238 12.8776L40.0369 15.0597L42.9776 4.23621L41.6114 3.67408L36.6238 12.8776Z" fill="#263238"/>
<path d="M37.5633 21.5957H37.5328C37.4843 21.5902 37.4385 21.5703 37.4014 21.5384C37.3642 21.5065 37.3375 21.4642 37.3246 21.4168L36.1158 17.4717C36.0974 17.4145 36.1002 17.3525 36.1235 17.2972C36.1468 17.2418 36.1891 17.1967 36.2427 17.1702L40.0215 15.213C40.0604 15.1915 40.1041 15.1803 40.1484 15.1803C40.1928 15.1803 40.2365 15.1915 40.2754 15.213C40.3131 15.2378 40.3436 15.272 40.3641 15.3124C40.3846 15.3527 40.3943 15.3977 40.3922 15.4429C40.2754 17.487 37.8528 21.289 37.7664 21.4475C37.7478 21.4874 37.7194 21.522 37.6839 21.548C37.6483 21.5739 37.6068 21.5903 37.5633 21.5957ZM36.6795 17.5483L37.6445 20.7269C38.2337 19.7406 39.5288 17.4462 39.8386 15.9131L36.6795 17.5483Z" fill="#263238"/>
<path d="M14.7536 11.8505C14.7536 11.8505 7.60754 17.4717 7.1352 18.2791C6.66285 19.0865 1.07093 34.3354 1.07093 34.3354C1.07093 34.3354 0.126249 36.3795 0.293854 37.1001C0.46146 37.8206 1.78706 39.8903 2.1883 40.1202C2.58954 40.3502 4.35701 40.1202 5.02235 39.3486C5.81455 38.4438 6.28143 37.2973 6.34796 36.0934C6.2835 35.3088 6.04392 34.5489 5.64707 33.8704L5.60643 32.7206L14.4946 20.1239L18.7457 18.0798L14.7536 11.8505Z" fill="white"/>
<path d="M2.73203 40.4677C2.49993 40.4803 2.26824 40.4365 2.05653 40.34C1.54863 40.0589 0.207793 37.9126 0.0249505 37.1563C-0.157892 36.4 0.720766 34.4428 0.822345 34.223C1.04074 33.62 6.44982 18.9332 6.91708 18.1156C7.38434 17.298 13.8498 12.1928 14.5863 11.6154C14.6133 11.5923 14.6452 11.5757 14.6795 11.5669C14.7138 11.558 14.7497 11.5571 14.7844 11.5643C14.8195 11.5696 14.853 11.5823 14.8828 11.6017C14.9126 11.6211 14.9379 11.6467 14.957 11.6767L18.944 17.9419C18.9636 17.9716 18.9764 18.0054 18.9817 18.0407C18.987 18.076 18.9845 18.112 18.9745 18.1463C18.9644 18.1817 18.947 18.2146 18.9234 18.2428C18.8997 18.271 18.8704 18.2938 18.8374 18.3098L14.6472 20.3232L5.86066 32.8024L5.89113 33.7989C6.29617 34.4982 6.53759 35.2811 6.5971 36.0883C6.63774 37.3505 5.8759 38.7251 5.21563 39.5172C4.67219 40.1713 3.51418 40.4677 2.73203 40.4677ZM14.6879 12.1877C11.8335 14.4413 7.67892 17.809 7.36911 18.3711C7.01358 18.9946 3.245 29.1435 1.30484 34.4223C0.944238 35.194 0.431266 36.5686 0.532845 37.0439C0.947539 38.097 1.54997 39.0652 2.31048 39.9005C2.58474 40.0538 4.22524 39.9005 4.84995 39.18C5.59889 38.328 6.04393 37.249 6.11461 36.1138C6.05405 35.372 5.82653 34.6538 5.44927 34.0135C5.42745 33.9744 5.41526 33.9306 5.41371 33.8857L5.37308 32.7411C5.37196 32.684 5.38984 32.6283 5.42387 32.5826L14.2765 19.9859C14.2997 19.9495 14.3333 19.921 14.373 19.9042L18.365 17.9827L14.6879 12.1877Z" fill="#263238"/>
<path d="M30.0465 2.92289C30.0465 2.92289 25.831 2.47319 23.1646 3.8785C20.4981 5.28382 14.0225 11.6818 14.0225 11.6818C14.0225 11.6818 14.571 14.748 15.6274 16.143C16.7414 17.4462 17.9519 18.6625 19.2487 19.7815C19.2487 19.7815 28.0556 15.816 30.3919 12.9338" fill="white"/>
<path d="M19.2638 20.0268C19.2026 20.0265 19.1434 20.0049 19.0962 19.9655C17.7859 18.8363 16.5649 17.6061 15.4445 16.2861C14.3627 14.8399 13.8091 11.8402 13.7887 11.7125C13.7808 11.672 13.7832 11.6302 13.7957 11.5909C13.8081 11.5516 13.8302 11.5161 13.8598 11.4876C14.1239 11.227 20.3812 5.05386 23.0477 3.64343C25.7141 2.23301 29.8992 2.62139 30.0718 2.65716C30.1052 2.66052 30.1376 2.67045 30.1671 2.68639C30.1966 2.70233 30.2227 2.72396 30.244 2.75006C30.2652 2.77616 30.2811 2.8062 30.2908 2.83849C30.3005 2.87077 30.3037 2.90467 30.3004 2.93822C30.2971 2.97177 30.2872 3.00434 30.2713 3.03405C30.2555 3.06377 30.234 3.09005 30.2081 3.1114C30.1821 3.13276 30.1523 3.14878 30.1202 3.15852C30.0881 3.16826 30.0544 3.17154 30.0211 3.16819C29.9753 3.16819 25.8512 2.74403 23.2864 4.09824C20.8586 5.37579 15.1296 10.951 14.3119 11.7636C14.4338 12.3615 14.962 14.8042 15.8356 15.9897C16.897 17.2431 18.0552 18.4102 19.2994 19.48C20.4574 18.969 28.0961 15.3918 30.1988 12.7703C30.2431 12.7192 30.305 12.687 30.3721 12.6804C30.4391 12.6737 30.5061 12.6931 30.5594 12.7345C30.611 12.7774 30.6436 12.839 30.6503 12.906C30.657 12.973 30.6371 13.0399 30.595 13.0922C28.2587 15.9897 19.7311 19.8531 19.3553 20.0268C19.325 20.0322 19.2941 20.0322 19.2638 20.0268Z" fill="#263238"/>
<path d="M11.5845 42.9155H11.5084C11.3661 42.9155 11.0919 42.8695 10.7516 42.8491C9.20383 42.7571 7.66348 42.566 6.13991 42.2767C2.73702 41.6482 1.8482 40.5853 1.75678 40.4677C1.69138 40.3752 1.65625 40.2644 1.65625 40.1509C1.65625 40.0373 1.69138 39.9266 1.75678 39.8341L6.35831 33.1908C6.4147 33.1104 6.49176 33.047 6.58124 33.0074C6.67072 32.9678 6.76923 32.9535 6.8662 32.9659C8.05467 33.1346 10.3402 35.1531 11.229 36.8241C12.0569 38.3879 12.9203 40.4882 12.9559 40.575C12.9886 40.6463 13.0056 40.7239 13.0056 40.8024C13.0056 40.881 12.9886 40.9586 12.9559 41.0299L12.1127 42.66C12.0617 42.7523 11.9836 42.8264 11.889 42.8722C11.7944 42.9179 11.688 42.9331 11.5845 42.9155ZM2.89954 40.0334C3.33633 40.3297 4.33688 40.8357 6.33291 41.2036C7.8146 41.4855 9.31247 41.6732 10.8176 41.7657L11.3255 41.7964L11.8791 40.7283C11.6302 40.1356 10.9446 38.5207 10.2945 37.3045C9.50243 35.9649 8.3745 34.8583 7.02365 34.0953L2.89954 40.0334Z" fill="#263238"/>
<path d="M11.615 42.3789L47.1676 67.8943C47.1676 67.8943 53.5772 70.9604 52.9627 70.0712C52.3481 69.1821 48.7675 66.1415 48.3916 65.8655L12.4987 40.7488L11.615 42.3789Z" fill="white"/>
<path d="M52.9019 70.4699C52.4498 70.4699 51.1598 70.0815 47.0458 68.1243L11.4678 42.5731C11.4171 42.5378 11.3809 42.4852 11.366 42.425C11.351 42.3648 11.3583 42.3012 11.3866 42.2461L12.2297 40.6159C12.2469 40.5842 12.2705 40.5565 12.2989 40.5344C12.3274 40.5124 12.3601 40.4965 12.3949 40.4879C12.4298 40.4792 12.4661 40.478 12.5015 40.4842C12.5368 40.4904 12.5705 40.5039 12.6004 40.5239L48.4933 65.6407C48.8692 65.8962 52.5057 68.9879 53.1507 69.9077C53.2029 69.9689 53.2316 70.0469 53.2316 70.1275C53.2316 70.2081 53.2029 70.286 53.1507 70.3472C53.1224 70.3866 53.0849 70.4184 53.0415 70.4398C52.9981 70.4612 52.9502 70.4715 52.9019 70.4699ZM11.9402 42.3023L47.2896 67.6848C48.9688 68.507 50.6896 69.2405 52.4448 69.8822C51.0968 68.539 49.6795 67.2682 48.1988 66.0751C47.8128 65.8144 15.8916 43.4776 12.5395 41.1269L11.9402 42.3023Z" fill="#263238"/>
<path d="M42.4492 64.5164L47.1523 67.8943C47.1523 67.8943 53.562 70.9604 52.9474 70.0712C52.3328 69.1821 48.7522 66.1415 48.3763 65.8655L43.7342 62.6512L42.4492 64.5164Z" fill="#ADADAD"/>
<path d="M52.9018 70.4698C52.4498 70.4698 51.1597 70.0815 47.0458 68.1243L42.302 64.726C42.2477 64.686 42.2109 64.6263 42.1995 64.5595C42.1881 64.4927 42.2031 64.4241 42.2411 64.3682L43.5464 62.503C43.5852 62.4486 43.6436 62.4118 43.7092 62.4003C43.7747 62.3888 43.8421 62.4037 43.8968 62.4417L48.4933 65.656C48.8691 65.9115 52.5057 69.0032 53.1507 69.9231C53.2029 69.9842 53.2316 70.0622 53.2316 70.1428C53.2316 70.2234 53.2029 70.3014 53.1507 70.3625C53.1208 70.3991 53.0825 70.428 53.0392 70.4467C52.9959 70.4653 52.9488 70.4733 52.9018 70.4698ZM42.8049 64.4551L47.2997 67.6848C48.9789 68.507 50.6997 69.2405 52.4549 69.8822C51.1069 68.539 49.6896 67.2682 48.2089 66.075L43.8156 63.0089L42.8049 64.4551Z" fill="#263238"/>
<path d="M35.7703 60.0297C35.9375 60.8179 36.4064 61.5081 37.0755 61.9511C37.3729 62.1686 37.7334 62.281 38.1008 62.2708C38.4683 62.2606 38.8221 62.1285 39.1071 61.8949L35.7703 60.0297Z" fill="white"/>
<path d="M38.0612 62.5132C37.6607 62.5096 37.2701 62.3869 36.9387 62.1606C36.5768 61.924 36.2652 61.6173 36.0219 61.2585C35.7787 60.8998 35.6086 60.4959 35.5217 60.0705C35.5142 60.0229 35.5202 59.9742 35.5391 59.9298C35.558 59.8855 35.5889 59.8475 35.6283 59.8201C35.6689 59.7953 35.7155 59.7822 35.7629 59.7822C35.8104 59.7822 35.857 59.7953 35.8975 59.8201L39.2039 61.6905C39.2394 61.7098 39.2696 61.7376 39.2917 61.7715C39.3139 61.8054 39.3273 61.8443 39.3309 61.8847C39.3358 61.9252 39.3309 61.9662 39.3168 62.0045C39.3027 62.0427 39.2796 62.077 39.2496 62.1044C38.9128 62.3757 38.4925 62.5203 38.0612 62.5132ZM36.2226 60.5765C36.4463 61.0514 36.7983 61.4534 37.2384 61.7365C37.4322 61.8769 37.658 61.9659 37.895 61.9954C38.132 62.0249 38.3725 61.9938 38.5945 61.9051L36.2226 60.5765Z" fill="#263238"/>
<path d="M38.1015 51.5927L42.9976 35.3422C41.9209 34.9538 40.4988 34.4479 39.5439 34.1617C38.591 33.8375 37.7229 33.3013 37.0045 32.5929C36.4052 34.6727 34.9069 39.9822 34.8459 41.0349C34.7697 42.3534 34.9475 52.4461 34.9475 52.4461C34.9475 52.4461 34.1857 54.2858 34.3482 54.7661C34.5462 55.1955 34.8082 55.5918 35.1253 55.9415C35.091 56.5734 34.9923 57.2002 34.8307 57.8118C34.6072 58.4608 34.724 59.6924 35.303 59.3449C35.9257 58.8915 36.5116 58.3891 37.0553 57.8425L40.2042 60.0961C40.2042 60.0961 39.3255 56.1817 39.1122 54.945C38.8596 53.8035 38.5218 52.6829 38.1015 51.5927Z" fill="white"/>
<path d="M40.2196 60.3567C40.167 60.3565 40.1157 60.3404 40.0723 60.3107L37.096 58.1798C36.5868 58.6883 36.0364 59.1532 35.4504 59.5697C35.3551 59.635 35.2415 59.6677 35.1263 59.6631C35.0111 59.6585 34.9004 59.6168 34.8105 59.5442C34.4143 59.2171 34.4245 58.2513 34.6073 57.7301C34.7563 57.1757 34.8465 56.607 34.8765 56.0335C34.5648 55.68 34.3096 55.2801 34.1198 54.8479C33.9522 54.3369 34.5007 52.9009 34.7089 52.4001C34.7089 51.5211 34.5362 42.2972 34.6073 41.0196C34.6683 39.9516 36.131 34.7187 36.776 32.5213C36.788 32.4794 36.8103 32.4412 36.8411 32.4104C36.8718 32.3796 36.9099 32.3573 36.9516 32.3455C36.9934 32.3337 37.0375 32.3329 37.0796 32.3431C37.1218 32.3533 37.1607 32.3742 37.1925 32.4038C37.8755 33.0913 38.7035 33.6153 39.6152 33.9368C40.5954 34.2332 42.0429 34.7443 43.0841 35.1224C43.1452 35.1456 43.1953 35.191 43.2245 35.2498C43.2537 35.3085 43.2598 35.3762 43.2415 35.4393L38.3708 51.6029C38.7918 52.6829 39.1314 53.7933 39.3866 54.9245C39.5898 56.1408 40.4634 60.0348 40.4735 60.0654C40.4846 60.1161 40.4803 60.169 40.4613 60.2173C40.4423 60.2655 40.4094 60.3069 40.3669 60.3363C40.3206 60.3566 40.2696 60.3637 40.2196 60.3567ZM37.0706 57.5921C37.1232 57.5923 37.1745 57.6083 37.2179 57.6381L39.8285 59.5084C39.5695 58.3382 39.0362 55.9313 38.8787 54.991C38.6227 53.8649 38.2831 52.7597 37.8629 51.6847C37.8451 51.6299 37.8451 51.5708 37.8629 51.516L42.6879 35.5006C41.6721 35.1377 40.377 34.6778 39.478 34.407C38.6192 34.1228 37.8287 33.6615 37.157 33.0528C35.9177 37.3862 35.1609 40.3655 35.1254 41.0503C35.0492 42.3432 35.227 52.3388 35.227 52.441C35.2346 52.4746 35.2346 52.5095 35.227 52.5432C34.8765 53.3915 34.5565 54.4544 34.6327 54.6895C34.8186 55.0857 35.0635 55.451 35.359 55.7728C35.3811 55.7977 35.3978 55.8269 35.4083 55.8585C35.4188 55.8901 35.4228 55.9236 35.42 55.9568C35.3895 56.6117 35.2873 57.2612 35.1152 57.8936C35.0402 58.0962 35.0064 58.3119 35.016 58.5279C35.0256 58.7438 35.0784 58.9557 35.1711 59.1507L35.2219 59.1252C35.8267 58.6842 36.3957 58.1955 36.9233 57.6636C36.9637 57.6247 37.0152 57.5997 37.0706 57.5921Z" fill="#263238"/>
<path d="M3.38696 37.003C3.38696 37.003 3.85931 39.7523 4.33165 39.9209C4.80399 40.0896 6.08897 40.7181 5.9366 39.8034L5.77915 38.8887C5.77915 38.8887 6.69844 36.9365 6.34291 36.1036C6.0776 35.5563 5.6793 35.0852 5.18491 34.734" fill="white"/>
<path d="M5.57625 40.5444C5.19143 40.5067 4.81553 40.4048 4.46396 40.2429L4.25065 40.1611C3.74275 39.9822 3.36691 38.3674 3.13836 37.049C3.12796 36.982 3.14389 36.9136 3.18277 36.8583C3.22164 36.803 3.2804 36.7651 3.3466 36.7526C3.37963 36.7467 3.41348 36.7475 3.44621 36.7549C3.47894 36.7623 3.5099 36.7761 3.53729 36.7956C3.56468 36.815 3.58796 36.8398 3.60579 36.8684C3.62362 36.897 3.63565 36.9288 3.64117 36.9621C3.84433 38.1528 4.21002 39.5172 4.43349 39.6858L4.65189 39.7676C5.40357 40.064 5.62704 40.064 5.66768 40.0129C5.66768 40.0129 5.66768 39.9771 5.66768 39.8443L5.51531 38.9295C5.49788 38.8799 5.49788 38.8258 5.51531 38.7762C5.85052 38.0608 6.30254 36.7321 6.07399 36.2211C5.82706 35.7199 5.46063 35.288 5.00741 34.964C4.95174 34.9265 4.91304 34.8685 4.89972 34.8024C4.8864 34.7364 4.89955 34.6677 4.93631 34.6114C4.95428 34.5831 4.97772 34.5588 5.00524 34.5398C5.03275 34.5208 5.06377 34.5076 5.09646 34.5009C5.12916 34.4942 5.16285 34.4942 5.19554 34.5009C5.22823 34.5076 5.25925 34.5209 5.28675 34.5398C5.82467 34.9149 6.25686 35.4237 6.54125 36.0167C6.90186 36.865 6.19588 38.5258 6.03336 38.9346L6.17557 39.7727C6.20874 39.8881 6.20919 40.0104 6.17688 40.126C6.14457 40.2416 6.08079 40.3458 5.99273 40.4268C5.87062 40.5112 5.72417 40.5526 5.57625 40.5444Z" fill="#263238"/>
</svg>
