<svg width="25" height="24" viewBox="0 0 25 24" fill="none" xmlns="http://www.w3.org/2000/svg">
<path d="M13.8258 2.53318C12.9878 1.82618 11.7622 1.82618 10.9242 2.53318L4.17416 8.22772C3.66741 8.65523 3.375 9.28447 3.375 9.94747V19.2526C3.375 20.2191 4.1585 21.0026 5.125 21.0026H8.125C9.0915 21.0026 9.875 20.2191 9.875 19.2526V15.25C9.875 14.5707 10.4168 14.018 11.0919 14.0004H13.6581C14.3332 14.018 14.875 14.5707 14.875 15.25V19.2526C14.875 20.2191 15.6585 21.0026 16.625 21.0026H19.625C20.5915 21.0026 21.375 20.2191 21.375 19.2526V9.94747C21.375 9.28447 21.0826 8.65523 20.5758 8.22772L13.8258 2.53318Z" fill="#FC5001"/>
</svg>
