<svg width="25" height="24" viewBox="0 0 25 24" fill="none" xmlns="http://www.w3.org/2000/svg">
<path d="M15.8786 2C17.0369 2 17.9907 2.87524 18.1149 4.00044L19.3826 4C20.3008 4 21.0538 4.70711 21.1268 5.60647L21.1326 5.75V8.75C21.1326 10.483 19.7762 11.8992 18.0671 11.9949L17.8568 12.0007C17.189 14.0909 15.3584 15.6615 13.1257 15.9517L13.1251 17.5H14.8786C16.6116 17.5 18.0278 18.8565 18.1234 20.5656L18.1286 20.75V21.25C18.1286 21.6297 17.8464 21.9435 17.4804 21.9932L17.3786 22H7.37556C6.99586 22 6.68207 21.7178 6.63241 21.3518L6.62556 21.25V20.75C6.62556 19.017 7.98202 17.6008 9.69114 17.5051L9.87556 17.5H11.6251L11.6254 15.9513C9.39415 15.6601 7.56487 14.09 6.89735 12.0007L6.87109 12C5.07617 12 3.62109 10.5449 3.62109 8.75V5.75C3.62109 4.7835 4.4046 4 5.37109 4L6.63924 4.00044C6.76341 2.87524 7.71727 2 8.87556 2H15.8786ZM19.3826 5.5H18.1286V10.4829C18.9286 10.3703 19.555 9.71683 19.6259 8.90415L19.6326 8.75V5.75C19.6326 5.63165 19.5504 5.53251 19.44 5.5066L19.3826 5.5ZM6.62556 5.5H5.37109C5.23302 5.5 5.12109 5.61193 5.12109 5.75V8.75C5.12109 9.63317 5.77531 10.3635 6.62556 10.4829V5.5Z" fill="#49454F"/>
</svg>
