<svg width="25" height="24" viewBox="0 0 25 24" fill="none" xmlns="http://www.w3.org/2000/svg">
<path d="M18.6295 14.0002C19.8716 14.0002 20.8784 15.007 20.8784 16.2491V16.8245C20.8784 17.7188 20.5588 18.5836 19.9773 19.263C18.4079 21.0965 16.0207 22.0013 12.8754 22.0013C9.7295 22.0013 7.34349 21.0962 5.77719 19.2619C5.19742 18.583 4.87891 17.7195 4.87891 16.8267V16.2491C4.87891 15.007 5.88576 14.0002 7.12778 14.0002H18.6295ZM12.8754 2.00488C15.6368 2.00488 17.8754 4.24346 17.8754 7.00488C17.8754 9.76631 15.6368 12.0049 12.8754 12.0049C10.1139 12.0049 7.87536 9.76631 7.87536 7.00488C7.87536 4.24346 10.1139 2.00488 12.8754 2.00488Z" fill="#49454F"/>
</svg>
