<svg width="182" height="156" viewBox="0 0 182 156" fill="none" xmlns="http://www.w3.org/2000/svg">
<rect width="182" height="156" rx="8" fill="#DFF9E8"/>
<path d="M27.2578 33.0264H29.3203C29.2129 34.0146 28.93 34.8991 28.4717 35.6797C28.0133 36.4603 27.3652 37.0798 26.5273 37.5381C25.6895 37.9893 24.6439 38.2148 23.3906 38.2148C22.474 38.2148 21.6396 38.043 20.8877 37.6992C20.1429 37.3555 19.502 36.8685 18.9648 36.2383C18.4277 35.6009 18.0124 34.8382 17.7188 33.9502C17.4323 33.055 17.2891 32.0596 17.2891 30.9639V29.4062C17.2891 28.3105 17.4323 27.3187 17.7188 26.4307C18.0124 25.5355 18.4313 24.7692 18.9756 24.1318C19.527 23.4945 20.1895 23.0039 20.9629 22.6602C21.7363 22.3164 22.6064 22.1445 23.5732 22.1445C24.7549 22.1445 25.7539 22.3665 26.5703 22.8105C27.3867 23.2546 28.0205 23.8704 28.4717 24.6582C28.93 25.4388 29.2129 26.3447 29.3203 27.376H27.2578C27.1576 26.6455 26.9714 26.0189 26.6992 25.4961C26.4271 24.9661 26.0404 24.5579 25.5391 24.2715C25.0378 23.985 24.3825 23.8418 23.5732 23.8418C22.8786 23.8418 22.2663 23.9743 21.7363 24.2393C21.2135 24.5042 20.7731 24.8802 20.415 25.3672C20.0641 25.8542 19.7992 26.4378 19.6201 27.1182C19.4411 27.7985 19.3516 28.554 19.3516 29.3848V30.9639C19.3516 31.7301 19.4303 32.4499 19.5879 33.123C19.7526 33.7962 19.9997 34.387 20.3291 34.8955C20.6585 35.404 21.0775 35.805 21.5859 36.0986C22.0944 36.3851 22.696 36.5283 23.3906 36.5283C24.2715 36.5283 24.9733 36.3887 25.4961 36.1094C26.0189 35.8301 26.4128 35.429 26.6777 34.9062C26.9499 34.3835 27.1432 33.7568 27.2578 33.0264ZM33.832 28.2031V38H31.8447V26.377H33.7783L33.832 28.2031ZM37.4629 26.3125L37.4521 28.1602C37.2874 28.1243 37.1299 28.1029 36.9795 28.0957C36.8363 28.0814 36.6715 28.0742 36.4854 28.0742C36.027 28.0742 35.6224 28.1458 35.2715 28.2891C34.9206 28.4323 34.6234 28.6328 34.3799 28.8906C34.1364 29.1484 33.943 29.4564 33.7998 29.8145C33.6637 30.1654 33.5742 30.5521 33.5312 30.9746L32.9727 31.2969C32.9727 30.5951 33.0407 29.9362 33.1768 29.3203C33.32 28.7044 33.5384 28.1602 33.832 27.6875C34.1257 27.2077 34.498 26.8353 34.9492 26.5703C35.4076 26.2982 35.9518 26.1621 36.582 26.1621C36.7253 26.1621 36.89 26.18 37.0762 26.2158C37.2624 26.2445 37.3913 26.2767 37.4629 26.3125ZM43.9082 38.2148C43.099 38.2148 42.3649 38.0788 41.7061 37.8066C41.0544 37.5273 40.4922 37.137 40.0195 36.6357C39.554 36.1344 39.196 35.54 38.9453 34.8525C38.6947 34.165 38.5693 33.4131 38.5693 32.5967V32.1455C38.5693 31.2002 38.709 30.3587 38.9883 29.6211C39.2676 28.8763 39.6471 28.2461 40.127 27.7305C40.6068 27.2148 41.151 26.8245 41.7598 26.5596C42.3685 26.2946 42.9987 26.1621 43.6504 26.1621C44.4811 26.1621 45.1973 26.3053 45.7988 26.5918C46.4076 26.8783 46.9053 27.2793 47.292 27.7949C47.6787 28.3034 47.9652 28.9049 48.1514 29.5996C48.3376 30.2871 48.4307 31.0391 48.4307 31.8555V32.7471H39.751V31.125H46.4434V30.9746C46.4147 30.459 46.3073 29.9577 46.1211 29.4707C45.9421 28.9837 45.6556 28.5827 45.2617 28.2676C44.8678 27.9525 44.3307 27.7949 43.6504 27.7949C43.1992 27.7949 42.7839 27.8916 42.4043 28.085C42.0247 28.2712 41.6989 28.5505 41.4268 28.9229C41.1546 29.2952 40.9434 29.75 40.793 30.2871C40.6426 30.8242 40.5674 31.4437 40.5674 32.1455V32.5967C40.5674 33.1481 40.6426 33.6673 40.793 34.1543C40.9505 34.6341 41.1761 35.0566 41.4697 35.4219C41.7705 35.7871 42.1322 36.0736 42.5547 36.2812C42.9844 36.4889 43.4714 36.5928 44.0156 36.5928C44.7174 36.5928 45.3118 36.4495 45.7988 36.1631C46.2858 35.8766 46.7119 35.4935 47.0771 35.0137L48.2803 35.9697C48.0296 36.3493 47.7109 36.7109 47.3242 37.0547C46.9375 37.3984 46.4613 37.6777 45.8955 37.8926C45.3369 38.1074 44.6745 38.2148 43.9082 38.2148ZM57.6045 36.0127V30.0293C57.6045 29.571 57.5114 29.1735 57.3252 28.8369C57.1462 28.4932 56.874 28.2282 56.5088 28.042C56.1436 27.8558 55.6924 27.7627 55.1553 27.7627C54.654 27.7627 54.2135 27.8486 53.834 28.0205C53.4616 28.1924 53.168 28.418 52.9531 28.6973C52.7454 28.9766 52.6416 29.2773 52.6416 29.5996H50.6543C50.6543 29.1842 50.7617 28.7725 50.9766 28.3643C51.1914 27.9561 51.4993 27.5872 51.9004 27.2578C52.3086 26.9212 52.7956 26.6562 53.3613 26.4629C53.9342 26.2624 54.5716 26.1621 55.2734 26.1621C56.1185 26.1621 56.8633 26.3053 57.5078 26.5918C58.1595 26.8783 58.668 27.3115 59.0332 27.8916C59.4056 28.4645 59.5918 29.1842 59.5918 30.0508V35.4648C59.5918 35.8516 59.624 36.2633 59.6885 36.7002C59.7601 37.137 59.8639 37.513 60 37.8281V38H57.9268C57.8265 37.7708 57.7477 37.4665 57.6904 37.0869C57.6331 36.7002 57.6045 36.3421 57.6045 36.0127ZM57.9482 30.9531L57.9697 32.3496H55.9609C55.3952 32.3496 54.8903 32.3962 54.4463 32.4893C54.0023 32.5752 53.6299 32.7077 53.3291 32.8867C53.0283 33.0658 52.7992 33.2913 52.6416 33.5635C52.484 33.8285 52.4053 34.14 52.4053 34.498C52.4053 34.8633 52.4876 35.1963 52.6523 35.4971C52.8171 35.7979 53.0641 36.0378 53.3936 36.2168C53.7301 36.3887 54.1419 36.4746 54.6289 36.4746C55.2376 36.4746 55.7747 36.3457 56.2402 36.0879C56.7057 35.8301 57.0745 35.515 57.3467 35.1426C57.626 34.7702 57.7764 34.4085 57.7979 34.0576L58.6465 35.0137C58.5964 35.3145 58.4603 35.6475 58.2383 36.0127C58.0163 36.3779 57.7191 36.7288 57.3467 37.0654C56.9814 37.3949 56.5446 37.6706 56.0361 37.8926C55.5348 38.1074 54.9691 38.2148 54.3389 38.2148C53.5511 38.2148 52.86 38.0609 52.2656 37.7529C51.6784 37.445 51.2201 37.0332 50.8906 36.5176C50.5684 35.9948 50.4072 35.4111 50.4072 34.7666C50.4072 34.1436 50.529 33.5957 50.7725 33.123C51.016 32.6432 51.3669 32.2458 51.8252 31.9307C52.2835 31.6084 52.835 31.3649 53.4795 31.2002C54.124 31.0355 54.8438 30.9531 55.6387 30.9531H57.9482ZM67.584 26.377V27.9023H61.2998V26.377H67.584ZM63.4268 23.5518H65.4141V35.1211C65.4141 35.515 65.4749 35.8122 65.5967 36.0127C65.7184 36.2132 65.876 36.3457 66.0693 36.4102C66.2627 36.4746 66.4704 36.5068 66.6924 36.5068C66.8571 36.5068 67.029 36.4925 67.208 36.4639C67.3942 36.4281 67.5339 36.3994 67.627 36.3779L67.6377 38C67.4801 38.0501 67.2725 38.0967 67.0146 38.1396C66.764 38.1898 66.4596 38.2148 66.1016 38.2148C65.6146 38.2148 65.167 38.1182 64.7588 37.9248C64.3506 37.7314 64.0247 37.4092 63.7812 36.958C63.5449 36.4997 63.4268 35.8838 63.4268 35.1104V23.5518ZM74.7383 38.2148C73.929 38.2148 73.195 38.0788 72.5361 37.8066C71.8844 37.5273 71.3223 37.137 70.8496 36.6357C70.3841 36.1344 70.026 35.54 69.7754 34.8525C69.5247 34.165 69.3994 33.4131 69.3994 32.5967V32.1455C69.3994 31.2002 69.5391 30.3587 69.8184 29.6211C70.0977 28.8763 70.4772 28.2461 70.957 27.7305C71.4368 27.2148 71.9811 26.8245 72.5898 26.5596C73.1986 26.2946 73.8288 26.1621 74.4805 26.1621C75.3112 26.1621 76.0273 26.3053 76.6289 26.5918C77.2376 26.8783 77.7354 27.2793 78.1221 27.7949C78.5088 28.3034 78.7952 28.9049 78.9814 29.5996C79.1676 30.2871 79.2607 31.0391 79.2607 31.8555V32.7471H70.5811V31.125H77.2734V30.9746C77.2448 30.459 77.1374 29.9577 76.9512 29.4707C76.7721 28.9837 76.4857 28.5827 76.0918 28.2676C75.6979 27.9525 75.1608 27.7949 74.4805 27.7949C74.0293 27.7949 73.6139 27.8916 73.2344 28.085C72.8548 28.2712 72.529 28.5505 72.2568 28.9229C71.9847 29.2952 71.7734 29.75 71.623 30.2871C71.4727 30.8242 71.3975 31.4437 71.3975 32.1455V32.5967C71.3975 33.1481 71.4727 33.6673 71.623 34.1543C71.7806 34.6341 72.0062 35.0566 72.2998 35.4219C72.6006 35.7871 72.9622 36.0736 73.3848 36.2812C73.8145 36.4889 74.3014 36.5928 74.8457 36.5928C75.5475 36.5928 76.1419 36.4495 76.6289 36.1631C77.1159 35.8766 77.542 35.4935 77.9072 35.0137L79.1104 35.9697C78.8597 36.3493 78.541 36.7109 78.1543 37.0547C77.7676 37.3984 77.2913 37.6777 76.7256 37.8926C76.167 38.1074 75.5046 38.2148 74.7383 38.2148ZM93.8916 36.0127V30.0293C93.8916 29.571 93.7985 29.1735 93.6123 28.8369C93.4333 28.4932 93.1611 28.2282 92.7959 28.042C92.4307 27.8558 91.9795 27.7627 91.4424 27.7627C90.9411 27.7627 90.5007 27.8486 90.1211 28.0205C89.7487 28.1924 89.4551 28.418 89.2402 28.6973C89.0326 28.9766 88.9287 29.2773 88.9287 29.5996H86.9414C86.9414 29.1842 87.0488 28.7725 87.2637 28.3643C87.4785 27.9561 87.7865 27.5872 88.1875 27.2578C88.5957 26.9212 89.0827 26.6562 89.6484 26.4629C90.2214 26.2624 90.8587 26.1621 91.5605 26.1621C92.4056 26.1621 93.1504 26.3053 93.7949 26.5918C94.4466 26.8783 94.9551 27.3115 95.3203 27.8916C95.6927 28.4645 95.8789 29.1842 95.8789 30.0508V35.4648C95.8789 35.8516 95.9111 36.2633 95.9756 36.7002C96.0472 37.137 96.151 37.513 96.2871 37.8281V38H94.2139C94.1136 37.7708 94.0348 37.4665 93.9775 37.0869C93.9202 36.7002 93.8916 36.3421 93.8916 36.0127ZM94.2354 30.9531L94.2568 32.3496H92.248C91.6823 32.3496 91.1774 32.3962 90.7334 32.4893C90.2894 32.5752 89.917 32.7077 89.6162 32.8867C89.3154 33.0658 89.0863 33.2913 88.9287 33.5635C88.7712 33.8285 88.6924 34.14 88.6924 34.498C88.6924 34.8633 88.7747 35.1963 88.9395 35.4971C89.1042 35.7979 89.3512 36.0378 89.6807 36.2168C90.0173 36.3887 90.429 36.4746 90.916 36.4746C91.5247 36.4746 92.0618 36.3457 92.5273 36.0879C92.9928 35.8301 93.3617 35.515 93.6338 35.1426C93.9131 34.7702 94.0635 34.4085 94.085 34.0576L94.9336 35.0137C94.8835 35.3145 94.7474 35.6475 94.5254 36.0127C94.3034 36.3779 94.0062 36.7288 93.6338 37.0654C93.2686 37.3949 92.8317 37.6706 92.3232 37.8926C91.8219 38.1074 91.2562 38.2148 90.626 38.2148C89.8382 38.2148 89.1471 38.0609 88.5527 37.7529C87.9655 37.445 87.5072 37.0332 87.1777 36.5176C86.8555 35.9948 86.6943 35.4111 86.6943 34.7666C86.6943 34.1436 86.8161 33.5957 87.0596 33.123C87.3031 32.6432 87.654 32.2458 88.1123 31.9307C88.5706 31.6084 89.1221 31.3649 89.7666 31.2002C90.4111 31.0355 91.1309 30.9531 91.9258 30.9531H94.2354ZM100.992 28.8584V38H99.0049V26.377H100.885L100.992 28.8584ZM100.52 31.748L99.6924 31.7158C99.6995 30.9209 99.8177 30.1868 100.047 29.5137C100.276 28.8333 100.598 28.2425 101.014 27.7412C101.429 27.2399 101.923 26.8532 102.496 26.5811C103.076 26.3018 103.717 26.1621 104.419 26.1621C104.992 26.1621 105.507 26.2409 105.966 26.3984C106.424 26.5488 106.814 26.7923 107.137 27.1289C107.466 27.4655 107.717 27.9023 107.889 28.4395C108.061 28.9694 108.146 29.6175 108.146 30.3838V38H106.148V30.3623C106.148 29.7536 106.059 29.2666 105.88 28.9014C105.701 28.529 105.439 28.2604 105.096 28.0957C104.752 27.9238 104.329 27.8379 103.828 27.8379C103.334 27.8379 102.883 27.9417 102.475 28.1494C102.074 28.3571 101.726 28.6436 101.433 29.0088C101.146 29.374 100.921 29.793 100.756 30.2656C100.598 30.7311 100.52 31.2253 100.52 31.748ZM22.3379 66.2148C21.5286 66.2148 20.7946 66.0788 20.1357 65.8066C19.484 65.5273 18.9219 65.137 18.4492 64.6357C17.9837 64.1344 17.6257 63.54 17.375 62.8525C17.1243 62.165 16.999 61.4131 16.999 60.5967V60.1455C16.999 59.2002 17.1387 58.3587 17.418 57.6211C17.6973 56.8763 18.0768 56.2461 18.5566 55.7305C19.0365 55.2148 19.5807 54.8245 20.1895 54.5596C20.7982 54.2946 21.4284 54.1621 22.0801 54.1621C22.9108 54.1621 23.627 54.3053 24.2285 54.5918C24.8372 54.8783 25.335 55.2793 25.7217 55.7949C26.1084 56.3034 26.3949 56.9049 26.5811 57.5996C26.7673 58.2871 26.8604 59.0391 26.8604 59.8555V60.7471H18.1807V59.125H24.873V58.9746C24.8444 58.459 24.737 57.9577 24.5508 57.4707C24.3717 56.9837 24.0853 56.5827 23.6914 56.2676C23.2975 55.9525 22.7604 55.7949 22.0801 55.7949C21.6289 55.7949 21.2135 55.8916 20.834 56.085C20.4544 56.2712 20.1286 56.5505 19.8564 56.9229C19.5843 57.2952 19.373 57.75 19.2227 58.2871C19.0723 58.8242 18.9971 59.4437 18.9971 60.1455V60.5967C18.9971 61.1481 19.0723 61.6673 19.2227 62.1543C19.3802 62.6341 19.6058 63.0566 19.8994 63.4219C20.2002 63.7871 20.5618 64.0736 20.9844 64.2812C21.4141 64.4889 21.901 64.5928 22.4453 64.5928C23.1471 64.5928 23.7415 64.4495 24.2285 64.1631C24.7155 63.8766 25.1416 63.4935 25.5068 63.0137L26.71 63.9697C26.4593 64.3493 26.1406 64.7109 25.7539 65.0547C25.3672 65.3984 24.891 65.6777 24.3252 65.8926C23.7666 66.1074 23.1042 66.2148 22.3379 66.2148ZM32.5645 64.2061L35.7441 54.377H37.7744L33.5957 66H32.2637L32.5645 64.2061ZM29.9111 54.377L33.1875 64.2598L33.4131 66H32.0811L27.8701 54.377H29.9111ZM44.3594 66.2148C43.5501 66.2148 42.8161 66.0788 42.1572 65.8066C41.5055 65.5273 40.9434 65.137 40.4707 64.6357C40.0052 64.1344 39.6471 63.54 39.3965 62.8525C39.1458 62.165 39.0205 61.4131 39.0205 60.5967V60.1455C39.0205 59.2002 39.1602 58.3587 39.4395 57.6211C39.7188 56.8763 40.0983 56.2461 40.5781 55.7305C41.0579 55.2148 41.6022 54.8245 42.2109 54.5596C42.8197 54.2946 43.4499 54.1621 44.1016 54.1621C44.9323 54.1621 45.6484 54.3053 46.25 54.5918C46.8587 54.8783 47.3564 55.2793 47.7432 55.7949C48.1299 56.3034 48.4163 56.9049 48.6025 57.5996C48.7887 58.2871 48.8818 59.0391 48.8818 59.8555V60.7471H40.2021V59.125H46.8945V58.9746C46.8659 58.459 46.7585 57.9577 46.5723 57.4707C46.3932 56.9837 46.1068 56.5827 45.7129 56.2676C45.319 55.9525 44.7819 55.7949 44.1016 55.7949C43.6504 55.7949 43.235 55.8916 42.8555 56.085C42.4759 56.2712 42.1501 56.5505 41.8779 56.9229C41.6058 57.2952 41.3945 57.75 41.2441 58.2871C41.0938 58.8242 41.0186 59.4437 41.0186 60.1455V60.5967C41.0186 61.1481 41.0938 61.6673 41.2441 62.1543C41.4017 62.6341 41.6273 63.0566 41.9209 63.4219C42.2217 63.7871 42.5833 64.0736 43.0059 64.2812C43.4355 64.4889 43.9225 64.5928 44.4668 64.5928C45.1686 64.5928 45.763 64.4495 46.25 64.1631C46.737 63.8766 47.1631 63.4935 47.5283 63.0137L48.7314 63.9697C48.4808 64.3493 48.1621 64.7109 47.7754 65.0547C47.3887 65.3984 46.9124 65.6777 46.3467 65.8926C45.7881 66.1074 45.1257 66.2148 44.3594 66.2148ZM53.1895 56.8584V66H51.2021V54.377H53.082L53.1895 56.8584ZM52.7168 59.748L51.8896 59.7158C51.8968 58.9209 52.015 58.1868 52.2441 57.5137C52.4733 56.8333 52.7956 56.2425 53.2109 55.7412C53.6263 55.2399 54.1204 54.8532 54.6934 54.5811C55.2734 54.3018 55.9144 54.1621 56.6162 54.1621C57.1891 54.1621 57.7048 54.2409 58.1631 54.3984C58.6214 54.5488 59.0117 54.7923 59.334 55.1289C59.6634 55.4655 59.9141 55.9023 60.0859 56.4395C60.2578 56.9694 60.3438 57.6175 60.3438 58.3838V66H58.3457V58.3623C58.3457 57.7536 58.2562 57.2666 58.0771 56.9014C57.8981 56.529 57.6367 56.2604 57.293 56.0957C56.9492 55.9238 56.5267 55.8379 56.0254 55.8379C55.5312 55.8379 55.0801 55.9417 54.6719 56.1494C54.2708 56.3571 53.9235 56.6436 53.6299 57.0088C53.3434 57.374 53.1178 57.793 52.9531 58.2656C52.7956 58.7311 52.7168 59.2253 52.7168 59.748ZM68.2285 54.377V55.9023H61.9443V54.377H68.2285ZM64.0713 51.5518H66.0586V63.1211C66.0586 63.515 66.1195 63.8122 66.2412 64.0127C66.363 64.2132 66.5205 64.3457 66.7139 64.4102C66.9072 64.4746 67.1149 64.5068 67.3369 64.5068C67.5016 64.5068 67.6735 64.4925 67.8525 64.4639C68.0387 64.4281 68.1784 64.3994 68.2715 64.3779L68.2822 66C68.1247 66.0501 67.917 66.0967 67.6592 66.1396C67.4085 66.1898 67.1042 66.2148 66.7461 66.2148C66.2591 66.2148 65.8115 66.1182 65.4033 65.9248C64.9951 65.7314 64.6693 65.4092 64.4258 64.958C64.1895 64.4997 64.0713 63.8838 64.0713 63.1104V51.5518Z" fill="black"/>
<path d="M131.278 112.213L129.325 115.149L113.276 122.13C113.276 122.13 111.043 122.551 111.043 123.248C111.043 123.945 110.623 125.903 111.043 126.184C111.463 126.464 114.245 125.483 114.245 125.483C114.245 125.483 113.409 126.46 114.245 126.741C115.081 127.021 115.918 125.763 115.918 125.763C116.737 125.247 117.53 124.688 118.291 124.089C118.684 123.572 119.012 123.008 119.268 122.411L134.076 118.642L137.146 114.031C137.146 114.031 130.862 113.33 131.278 112.213Z" fill="#B5B5B5" stroke="#263238" stroke-width="0.3" stroke-linecap="round" stroke-linejoin="round"/>
<path d="M132.395 105.628L130.578 111.596L135.329 114.428L137.246 109.773L132.395 105.628Z" fill="white" stroke="#263238" stroke-width="0.3" stroke-linecap="round" stroke-linejoin="round"/>
<path d="M130.766 109.673L136.529 113.114L135.517 114.933L130.062 112.101C130.1 111.247 130.341 110.415 130.766 109.673Z" fill="white" stroke="#263238" stroke-width="0.3" stroke-linecap="round" stroke-linejoin="round"/>
<path d="M119.36 141.22C119.36 141.22 115.318 143.243 114.205 144.152C113.092 145.062 112.892 144.954 113.193 145.671H126.132L125.827 141.016L119.36 141.22Z" fill="white" stroke="#263238" stroke-width="0.3" stroke-linecap="round" stroke-linejoin="round"/>
<path d="M126.084 144.974H113.193C113.016 145.162 113.036 145.314 113.193 145.683H126.132L126.084 144.974Z" fill="white" stroke="#263238" stroke-width="0.3" stroke-linecap="round" stroke-linejoin="round"/>
<path d="M136.741 117.16C136.741 117.16 131.791 115.137 127.749 114.732C123.706 114.328 115.318 114.528 114.913 116.334C114.509 118.141 120.877 137.964 120.877 137.964C120.877 137.964 119.764 138.673 119.676 139.166C119.588 139.658 119.376 141.168 119.376 141.168L125.843 142.178C125.843 142.178 126.044 140.155 126.044 138.236C126.044 136.318 123.822 124.478 123.822 124.478L136.858 128.627L132.007 138.941C132.007 138.941 130.494 141.977 132.211 143.496C133.928 145.014 136.757 144.697 136.757 144.697L159.802 145.002L159.402 141.256C159.402 141.256 156.068 140.752 155.46 140.752C154.851 140.752 143.229 137.82 143.229 137.82C143.229 137.82 152.53 128.107 153.539 126.488C154.139 125.592 154.547 124.582 154.739 123.52C154.93 122.459 154.901 121.369 154.651 120.32C154.043 117.893 153.639 117.384 153.639 117.384C153.639 117.384 146.547 120.793 142.909 119.991C140.681 119.481 138.581 118.517 136.741 117.16Z" fill="#263238" stroke="#263238" stroke-width="0.3" stroke-linecap="round" stroke-linejoin="round"/>
<path d="M120.268 86.1051C120.268 86.1051 120.977 88.4323 120.977 88.7367C120.977 89.0411 120.468 90.5552 120.877 91.0599C121.285 91.5646 122.478 91.6687 122.478 91.6687C122.478 91.6687 124.295 93.7916 125.103 94.6007C125.911 95.4098 126.82 95.7142 127.832 95.2095C128.845 94.7049 129.753 93.3871 129.753 93.3871L131.675 95.3097L136.121 90.1506L134.52 88.1279C134.52 88.1279 134.92 85.8007 133.408 82.7685C131.895 79.7364 126.636 78.9233 123.198 79.5321C119.76 80.1409 118.956 82.1597 118.956 82.5643C118.956 82.9688 120.268 86.1051 120.268 86.1051Z" fill="white" stroke="#263238" stroke-width="0.3" stroke-linecap="round" stroke-linejoin="round"/>
<path d="M122.089 76.9005C122.089 76.9005 119.964 75.2983 118.551 75.9913C117.139 76.6842 117.751 77.3051 117.539 78.5187C117.327 79.7324 113.801 79.8325 113.801 81.8553C113.801 83.8781 116.326 84.587 116.83 84.6872C117.335 84.7873 116.935 87.0144 118.431 87.0144C119.928 87.0144 120.252 86.1051 120.252 86.1051C120.252 86.1051 119.14 82.8687 120.352 82.364C121.565 81.8593 124.295 80.8459 123.89 82.7645C123.486 84.6832 124.903 85.292 125.711 85.0917C126.52 84.8914 127.528 84.9876 127.712 85.3921C127.897 85.7967 128.913 86.5057 128.913 85.4963C128.913 84.4869 129.417 83.5736 130.326 83.5736C131.234 83.5736 131.927 85.0917 131.843 86.3054C131.774 87.0363 131.496 87.7318 131.042 88.3081L134.48 88.1038C134.48 88.1038 135.389 83.5536 134.58 80.3172C133.772 77.0808 129.966 75.2823 127.644 74.9779C125.323 74.6735 122.39 75.9913 122.089 76.9005Z" fill="#263238" stroke="#263238" stroke-width="0.3" stroke-linecap="round" stroke-linejoin="round"/>
<path d="M122.958 87.9116C123.21 88.3122 123.27 88.7127 123.098 88.8128C122.926 88.913 122.574 88.7127 122.325 88.3282C122.077 87.9437 122.009 87.5271 122.185 87.4269C122.362 87.3268 122.706 87.5471 122.958 87.9116Z" fill="#263238"/>
<path d="M124.271 92.4538C124.753 92.3576 125.191 92.1044 125.515 91.7335C125.84 91.3626 126.032 90.8948 126.063 90.403" stroke="#263238" stroke-width="0.3" stroke-linecap="round" stroke-linejoin="round"/>
<path d="M121.193 87.0664C121.193 87.0664 121.361 86.1252 122.474 86.5537" stroke="#263238" stroke-width="0.3" stroke-linecap="round" stroke-linejoin="round"/>
<path d="M131.891 97.0281C131.891 97.0281 131.09 103.705 131.991 105.728C132.891 107.751 136.137 115.842 136.137 115.842C136.137 115.842 135.429 120.793 137.45 122.114C139.471 123.436 147.151 123.632 150.085 121.81C153.018 119.987 154.227 118.574 154.227 117.26C154.227 115.946 152.306 110.178 149.276 104.414C147.058 100.193 143.995 96.4735 140.279 93.4872C138.158 91.7689 137.35 90.9598 136.945 90.9598C136.541 90.9598 131.69 95.1094 131.891 97.0281Z" fill="white" stroke="#263238" stroke-width="0.3" stroke-linecap="round" stroke-linejoin="round"/>
<path d="M136.137 89.646L130.678 95.8144L131.791 99.155L137.954 91.164L136.137 89.646Z" fill="white" stroke="#263238" stroke-width="0.3" stroke-linecap="round" stroke-linejoin="round"/>
<path d="M136.237 112.201C136.237 112.201 125.119 118.573 123.706 119.082C122.293 119.591 117.743 119.587 116.426 119.483C116.265 119.454 116.099 119.461 115.94 119.504C115.782 119.546 115.635 119.623 115.51 119.729C115.384 119.835 115.284 119.967 115.215 120.116C115.147 120.266 115.112 120.428 115.113 120.592L114.913 124.438C114.913 124.438 116.022 124.742 116.514 124.438C117.006 124.133 117.523 123.02 117.523 123.02C117.523 123.02 119.344 123.224 119.948 122.819C120.345 122.549 120.717 122.245 121.061 121.91C122.928 121.755 124.784 121.487 126.62 121.109C128.641 120.6 137.938 117.568 139.355 117.264C140.772 116.959 141.276 116.15 141.376 115.662C141.476 115.173 136.237 112.201 136.237 112.201Z" fill="white" stroke="#263238" stroke-width="0.3" stroke-linecap="round" stroke-linejoin="round"/>
<path d="M123.562 119.122C122.017 119.583 117.703 119.583 116.426 119.487C116.265 119.458 116.099 119.465 115.94 119.508C115.782 119.55 115.635 119.627 115.51 119.733C115.384 119.839 115.284 119.971 115.215 120.12C115.147 120.27 115.112 120.432 115.113 120.596L114.913 124.441C114.913 124.441 116.022 124.746 116.514 124.441C117.006 124.137 117.523 123.024 117.523 123.024C117.523 123.024 119.344 123.228 119.948 122.823C120.345 122.553 120.717 122.249 121.061 121.914C121.061 121.914 122.758 121.766 124.475 121.513L123.562 119.122Z" fill="#92E3A9" stroke="#263238" stroke-width="0.3" stroke-linecap="round" stroke-linejoin="round"/>
<path d="M137.046 97.1322C137.046 97.1322 135.329 99.0508 135.529 100.469C135.729 101.887 136.237 112.201 136.237 112.201L141.996 114.528L143.597 106.337C143.597 106.337 144.914 104.21 144.71 102.187" fill="white"/>
<path d="M137.046 97.1322C137.046 97.1322 135.329 99.0508 135.529 100.469C135.729 101.887 136.237 112.201 136.237 112.201L141.996 114.528L143.597 106.337C143.597 106.337 144.914 104.21 144.71 102.187" stroke="#263238" stroke-width="0.3" stroke-linecap="round" stroke-linejoin="round"/>
<path d="M135.733 112.709L141.592 116.246C141.592 116.246 142.392 116.246 142.504 114.933C142.617 113.619 143.209 113.414 142.705 112.709C142.2 112.005 136.841 109.773 136.337 109.773C135.833 109.773 135.329 110.987 135.733 112.709Z" fill="white" stroke="#263238" stroke-width="0.3" stroke-linecap="round" stroke-linejoin="round"/>
<path d="M159.382 141.333C159.382 141.333 162.411 138.705 162.92 138.805C163.428 138.905 167.466 142.751 167.466 142.751C167.466 142.751 171.204 144.773 171.204 145.078C171.204 145.382 170.6 145.478 170.6 145.478L159.794 145.078L159.382 141.333Z" fill="white" stroke="#263238" stroke-width="0.3" stroke-linecap="round" stroke-linejoin="round"/>
<path d="M171.188 145.078C171.188 144.773 167.45 142.751 167.45 142.751C167.45 142.751 163.408 138.905 162.904 138.805C162.724 138.769 162.219 139.081 161.651 139.498L166.542 142.951L170.104 145.462L170.584 145.482C170.584 145.482 171.188 145.378 171.188 145.078Z" fill="white" stroke="#263238" stroke-width="0.3" stroke-linecap="round" stroke-linejoin="round"/>
<path d="M136.841 128.691L135.833 124.441" stroke="#999999" stroke-width="0.3" stroke-linecap="round" stroke-linejoin="round"/>
<path d="M101.678 111.852C100.477 111.171 98.7125 110.25 98.7125 110.25C98.7125 110.25 96.3352 104.242 94.4702 101.438C92.6052 98.6342 91.5005 98.2938 89.4634 98.1256C87.4263 97.9573 81.323 99.5675 81.0588 99.9921C81.0588 99.9921 75.3757 102.624 73.9349 104.494C72.4941 106.365 72.9984 120.877 72.9984 120.877C72.9984 120.877 66.899 125.01 65.2902 129.605C64.2656 132.517 65.4583 137.327 70.9733 138.773C72.8132 139.266 74.7446 139.308 76.6044 138.897C78.0372 140.107 79.6238 141.121 81.323 141.913C87.0061 144.629 90.7361 145.138 94.214 145.31C97.692 145.482 101.254 144.377 101.934 143.708C102.615 143.039 103.971 140.395 100.493 136.578C97.4958 133.282 88.4509 129.613 86.0095 128.663C86.2524 127.238 86.3861 125.795 86.4098 124.349C86.4098 124.349 91.6686 118.341 92.0128 116.963C92.357 115.585 93.2135 110.002 93.2135 110.002C93.2135 110.002 96.0991 115.269 96.9475 116.03C97.796 116.791 102.715 116.202 103.223 116.202C103.731 116.202 103.987 113.995 103.987 113.995C103.342 113.157 102.562 112.433 101.678 111.852Z" fill="white" stroke="#263238" stroke-width="0.3" stroke-linecap="round" stroke-linejoin="round"/>
<path d="M100.493 136.558C97.4958 133.262 88.4509 129.593 86.0095 128.643C86.0856 128.199 86.1496 127.766 86.1976 127.358C83.9154 127.862 81.5458 127.814 79.2858 127.217C72.8383 125.519 71.4816 122.038 71.4816 122.038H71.4335C69.5085 123.6 66.3748 126.496 65.2902 129.593C64.2656 132.505 65.4583 137.315 70.9733 138.761C72.8132 139.254 74.7446 139.296 76.6044 138.885C78.0372 140.095 79.6238 141.109 81.323 141.901C87.0061 144.617 90.7361 145.126 94.214 145.298C97.692 145.47 101.254 144.365 101.934 143.696C102.615 143.027 103.971 140.375 100.493 136.558Z" fill="#696969" stroke="#263238" stroke-width="0.3" stroke-linecap="round" stroke-linejoin="round"/>
<path d="M68.6799 130.189C68.6799 130.189 71.7336 126.452 75.7238 127.982C89.6634 133.33 93.1974 139.274 94.1339 141.649C95.0704 144.024 94.7262 145.302 93.9658 145.811C93.2054 146.319 85.229 144.453 81.4109 143.095C77.5928 141.737 72.502 142.414 68.1756 138.765C63.8493 135.116 64.5296 131.555 65.8864 128.491" fill="#696969"/>
<path d="M68.6799 130.189C68.6799 130.189 71.7336 126.452 75.7238 127.982C89.6634 133.33 93.1974 139.274 94.1339 141.649C95.0704 144.024 94.7262 145.302 93.9658 145.811C93.2054 146.319 85.229 144.453 81.4109 143.095C77.5928 141.737 72.502 142.414 68.1756 138.765C63.8493 135.116 64.5296 131.555 65.8864 128.491" stroke="#263238" stroke-width="0.3" stroke-linecap="round" stroke-linejoin="round"/>
<path d="M103.971 113.983C103.33 113.153 102.555 112.436 101.678 111.86C100.477 111.179 98.7125 110.258 98.7125 110.258C98.7125 110.258 98.0281 108.528 97.1116 106.489C96.083 107.346 94.3981 108.992 93.7498 110.991C94.6302 112.553 96.3192 115.477 96.9515 116.03C97.796 116.795 102.719 116.202 103.227 116.202C103.735 116.202 103.971 113.983 103.971 113.983Z" fill="white" stroke="#263238" stroke-width="0.3" stroke-linecap="round" stroke-linejoin="round"/>
<path d="M93.1976 109.982L93.1135 105.399" stroke="#263238" stroke-width="0.3" stroke-linecap="round" stroke-linejoin="round"/>
<path d="M106.725 121.509C105.772 121.851 104.857 122.292 103.995 122.823C103.195 123.428 103.087 123.937 103.087 124.846C103.087 125.755 101.266 126.969 102.178 126.969C103.091 126.969 103.779 126.665 104.604 125.15C105.428 123.636 106.421 123.188 106.421 123.188C106.483 123.92 106.618 124.644 106.821 125.351C107.103 125.954 107.141 126.643 106.925 127.273C106.721 128.074 107.725 127.882 108.033 125.671C108.197 124.26 107.988 122.831 107.429 121.526L106.725 121.509Z" fill="white" stroke="#263238" stroke-width="0.3" stroke-linecap="round" stroke-linejoin="round"/>
<path d="M106.525 119.074C106.525 119.074 106.825 120.781 106.725 121.169C106.625 121.558 105.208 122.643 104.704 123.572C104.502 123.95 104.38 124.366 104.346 124.793C104.312 125.22 104.365 125.65 104.504 126.056C104.704 126.677 105.304 128.691 105.612 128.151C105.92 127.61 106.013 126.985 106.013 125.823C106.013 124.662 105.812 123.648 106.413 123.184L107.021 122.719C107.314 123.397 107.551 124.097 107.729 124.814C108.13 126.288 107.425 127.53 107.625 127.762C107.826 127.994 108.638 127.838 108.738 127.217C108.838 126.596 109.242 125.9 109.242 124.658C109.236 123.9 109.009 123.161 108.59 122.531C108.401 122.008 108.249 121.473 108.134 120.929C107.954 119.991 107.333 118.221 106.525 119.074Z" fill="white" stroke="#263238" stroke-width="0.3" stroke-linecap="round" stroke-linejoin="round"/>
<path d="M109.654 116.35C110.094 117.093 110.494 117.858 110.855 118.642C111.107 119.323 111.279 120.088 110.855 120.244C110.431 120.4 110.091 119.226 109.835 118.718C109.578 118.209 108.722 116.01 109.654 116.35Z" fill="#92E3A9" stroke="#263238" stroke-width="0.3" stroke-linecap="round" stroke-linejoin="round"/>
<path d="M109.655 116.35C109.146 115.249 106.261 113.547 105.496 113.126C104.964 112.826 103.263 112.782 102.294 112.778C102.062 112.741 101.826 112.741 101.594 112.778C101.594 112.778 100.237 113.795 100.321 114.9C100.353 115.216 100.488 115.512 100.705 115.742C100.922 115.973 101.209 116.124 101.522 116.174H101.922C101.857 116.586 101.929 117.008 102.126 117.376C102.803 118.421 103.215 119.616 103.327 120.857C103.327 121.962 104.6 121.538 104.768 120.688C104.936 119.839 104.516 118.313 104.516 117.973C104.516 117.632 105.192 116.699 105.192 116.699C105.192 116.699 107.061 118.65 107.313 119.074C107.565 119.499 107.653 121.706 108.334 121.878C109.014 122.05 109.01 120.676 109.01 120.676C109.151 120.688 109.292 120.67 109.426 120.624C109.559 120.579 109.681 120.506 109.785 120.41C109.889 120.314 109.972 120.198 110.029 120.069C110.085 119.94 110.115 119.8 110.115 119.659C110.255 118.535 110.096 117.394 109.655 116.35Z" fill="#92E3A9" stroke="#263238" stroke-width="0.3" stroke-linecap="round" stroke-linejoin="round"/>
<path d="M107.79 116.607C107.79 116.607 109.058 117.368 109.058 118.133C109.058 118.898 108.974 120.68 108.974 120.68" stroke="#263238" stroke-width="0.3" stroke-linecap="round" stroke-linejoin="round"/>
<path d="M94.386 143.624C94.386 144.825 95.0624 144.982 92.433 146.596C89.8035 148.21 85.8173 147.104 81.9152 146.255C78.013 145.406 73.3465 144.725 71.5655 144.725C69.7845 144.725 65.5302 145.386 63.9293 145.386C62.3284 145.386 59.691 145.218 60.0312 144.369C60.3714 143.52 64.6937 142.158 65.0339 141.821C65.3741 141.485 65.2901 140.8 66.1385 139.526C66.3304 139.177 66.6411 138.908 67.0141 138.768C67.3871 138.629 67.7978 138.628 68.1716 138.765C69.6701 140.139 71.5317 141.052 73.5346 141.397C76.7363 141.905 82.6076 142.158 84.9008 142.158C87.1941 142.158 90.0757 143.179 90.3278 143.179" fill="#696969"/>
<path d="M94.386 143.624C94.386 144.825 95.0624 144.982 92.433 146.596C89.8035 148.21 85.8173 147.104 81.9152 146.255C78.013 145.406 73.3465 144.725 71.5655 144.725C69.7845 144.725 65.5302 145.386 63.9293 145.386C62.3284 145.386 59.691 145.218 60.0312 144.369C60.3714 143.52 64.6937 142.158 65.0339 141.821C65.3741 141.485 65.2901 140.8 66.1385 139.526C66.3304 139.177 66.6411 138.908 67.0141 138.768C67.3871 138.629 67.7978 138.628 68.1716 138.765C69.6701 140.139 71.5317 141.052 73.5346 141.397C76.7363 141.905 82.6076 142.158 84.9008 142.158C87.1941 142.158 90.0757 143.179 90.3278 143.179" stroke="#263238" stroke-width="0.3" stroke-linecap="round" stroke-linejoin="round"/>
<path d="M73.5347 141.397C71.5375 141.05 69.6818 140.136 68.1878 138.765C67.8139 138.628 67.4033 138.629 67.0302 138.768C66.6572 138.908 66.3466 139.177 66.1546 139.526C65.3062 140.8 65.3902 141.481 65.05 141.821C64.7099 142.162 60.3835 143.52 60.0473 144.369C59.7111 145.218 62.3285 145.386 63.9294 145.386C65.5303 145.386 69.7846 144.705 71.5656 144.705C72.4909 144.731 73.4141 144.807 74.3311 144.934C74.3311 144.857 74.2991 144.781 74.2791 144.705C74.031 143.648 74.7434 142.266 75.1396 141.609C74.5513 141.545 74.003 141.473 73.5347 141.397Z" fill="white" stroke="#263238" stroke-width="0.3" stroke-linecap="round" stroke-linejoin="round"/>
<path d="M68.1717 138.765C67.7979 138.628 67.3872 138.629 67.0142 138.768C66.6412 138.908 66.3305 139.177 66.1386 139.526C65.2901 140.8 65.3742 141.481 65.034 141.821C64.6938 142.162 60.3674 143.52 60.0312 144.369C59.9072 144.669 60.1633 144.881 60.6116 145.034C61.6081 143.964 64.7738 143.075 65.6583 142.43C66.5428 141.785 65.8825 141.565 66.815 140.291C67.0472 139.994 67.3363 139.746 67.6655 139.561C67.9946 139.377 68.3572 139.26 68.732 139.218C68.3638 138.953 68.1717 138.765 68.1717 138.765Z" stroke="#263238" stroke-width="0.3" stroke-linecap="round" stroke-linejoin="round"/>
<path d="M75.9759 102.768C75.9759 102.768 72.498 104.126 71.8216 106.926C71.1452 109.725 72.4139 127.133 72.4139 127.558C72.4139 127.982 74.7032 128.407 78.2691 128.759C81.8351 129.112 88.4467 129.184 88.4467 129.184C88.4467 129.184 91.3323 130.454 91.9246 130.454C92.517 130.454 93.7896 129.693 93.7896 129.693C93.7896 129.693 93.6216 130.454 94.2979 130.285C94.9743 130.117 97.2676 128.247 97.2676 127.91C97.2676 127.574 95.7427 125.956 94.8102 125.787C93.8777 125.619 89.7194 127.229 89.2952 127.229C88.871 127.229 81.4909 125.627 80.1342 125.022C79.0553 124.584 77.9498 124.215 76.8243 123.917L77.4207 109.233" fill="white"/>
<path d="M75.9759 102.768C75.9759 102.768 72.498 104.126 71.8216 106.926C71.1452 109.725 72.4139 127.133 72.4139 127.558C72.4139 127.982 74.7032 128.407 78.2691 128.759C81.8351 129.112 88.4467 129.184 88.4467 129.184C88.4467 129.184 91.3323 130.454 91.9246 130.454C92.517 130.454 93.7896 129.693 93.7896 129.693C93.7896 129.693 93.6216 130.454 94.2979 130.285C94.9743 130.117 97.2676 128.247 97.2676 127.91C97.2676 127.574 95.7427 125.956 94.8102 125.787C93.8777 125.619 89.7194 127.229 89.2952 127.229C88.871 127.229 81.4909 125.627 80.1342 125.022C79.0553 124.584 77.9498 124.215 76.8243 123.917L77.4207 109.233" stroke="#263238" stroke-width="0.3" stroke-linecap="round" stroke-linejoin="round"/>
<path d="M94.8102 125.775C93.8737 125.603 89.7194 127.217 89.2951 127.217C88.8709 127.217 81.4909 125.615 80.1341 125.01C79.0552 124.572 77.9498 124.203 76.8243 123.905L77.1485 115.858L71.7495 115.65C71.9776 121.213 72.4139 127.309 72.4139 127.558C72.4139 127.982 74.7031 128.407 78.2691 128.759C81.8351 129.112 88.4467 129.184 88.4467 129.184C88.4467 129.184 91.3323 130.454 91.9246 130.454C92.5169 130.454 93.7896 129.693 93.7896 129.693C93.7896 129.693 93.6215 130.454 94.2979 130.286C94.9743 130.117 97.2675 128.247 97.2675 127.91C97.2675 127.574 95.7427 125.944 94.8102 125.775Z" fill="white" stroke="#263238" stroke-width="0.3" stroke-linecap="round" stroke-linejoin="round"/>
<path d="M97.2676 127.898C97.2676 127.558 95.7428 125.944 94.8102 125.775C93.8777 125.607 89.7195 127.217 89.2952 127.217C89.1632 127.217 88.3547 127.061 87.2621 126.817C86.8619 127.217 86.4817 127.906 86.6098 129.124L88.4468 129.16C88.4468 129.16 91.3323 130.43 91.9247 130.43C92.517 130.43 93.7897 129.669 93.7897 129.669C93.7897 129.669 93.6216 130.43 94.298 130.261C94.9743 130.093 97.2676 128.235 97.2676 127.898Z" fill="#92E3A9" stroke="#263238" stroke-width="0.3" stroke-linecap="round" stroke-linejoin="round"/>
<path d="M78.7774 86.1251C78.7774 86.1251 75.5517 83.5817 74.279 84.4308C73.0063 85.28 67.6633 92.0693 67.1551 93.9358C66.6468 95.8024 69.4443 96.231 68.4278 97.757C67.4112 99.2831 65.4581 99.8799 66.2225 101.763C66.987 103.645 70.0406 103.801 70.717 104.226C71.3934 104.65 72.498 106.265 74.9593 105.584C77.4207 104.903 76.9084 101.763 78.7774 101.338C80.6465 100.913 80.4744 98.3699 79.6259 96.3311C78.7774 94.2923 78.2692 91.4925 79.2857 90.2187C80.3023 88.945 78.7774 86.1251 78.7774 86.1251Z" fill="#263238" stroke="#263238" stroke-width="0.3" stroke-linecap="round" stroke-linejoin="round"/>
<path d="M80.6586 84.3788C80.6586 84.3788 78.0572 84.527 76.8285 87.7794C75.5999 91.0318 76.8285 95.8785 77.1887 96.6756C77.5489 97.4727 79.43 98.2778 80.5866 97.6129C81.7432 96.9479 83.3321 94.4325 84.4847 93.7796C85.6374 93.1267 87.9546 90.383 87.9546 90.383L89.6156 92.4778C89.6156 92.4778 90.7002 92.3336 91.1324 90.2388C91.5646 88.1439 89.9798 85.9008 87.3783 84.5991C84.7769 83.2973 81.9594 83.3694 80.6586 84.3788Z" fill="#263238" stroke="#263238" stroke-width="0.3" stroke-linecap="round" stroke-linejoin="round"/>
<path d="M80.3022 99.0308C80.3022 99.0308 80.3863 101.578 80.9826 102.684C81.5789 103.789 83.1038 108.692 85.0529 108.88C87.0019 109.069 86.9179 102.003 86.9179 102.003C86.9179 102.003 84.6286 102.087 83.2719 100.645C81.9151 99.203 80.4743 98.3619 80.3022 99.0308Z" stroke="#263238" stroke-width="0.3" stroke-linecap="round" stroke-linejoin="round"/>
<path d="M88.2426 88.2841C88.2426 88.2841 85.209 91.8289 82.8237 93.347C80.4383 94.8651 79.3578 95.0814 79.3578 95.0814C79.3578 95.0814 80.2943 94.9372 79.6459 95.5901C78.9976 96.243 78.8455 96.3912 78.4893 95.8064C78.1331 95.2216 76.6843 94.6488 76.3921 96.0948C76.268 96.6984 76.3604 97.3264 76.6532 97.8686C76.946 98.4107 77.4204 98.8321 77.993 99.0588C78.6095 99.3187 79.2941 99.3693 79.9421 99.203C79.9421 99.203 80.1582 101.662 83.0478 103.108C85.9374 104.554 88.6148 102.532 89.4073 101.013C90.1997 99.4954 89.9156 92.626 89.7675 91.4684C89.6194 90.3109 88.2426 88.2841 88.2426 88.2841Z" fill="white" stroke="#263238" stroke-width="0.3" stroke-linecap="round" stroke-linejoin="round"/>
<path d="M87.5141 95.1255C87.5141 95.1255 87.342 96.4833 87.5982 96.5674C87.8543 96.6515 88.7988 96.992 88.4467 97.5047C88.0945 98.0174 87.5982 98.3539 87.0059 98.0975" stroke="#263238" stroke-width="0.3" stroke-linecap="round" stroke-linejoin="round"/>
<path d="M83.6963 99.2871C83.6963 99.2871 84.3767 100.389 87.0061 99.7958" stroke="#263238" stroke-width="0.3" stroke-linecap="round" stroke-linejoin="round"/>
<path d="M85.2252 95.6782C85.2252 96.0787 85.0331 96.3992 84.8009 96.3992C84.5688 96.3992 84.3767 96.0747 84.3767 95.6782C84.3767 95.2817 84.5648 94.9572 84.8009 94.9572C85.0371 94.9572 85.2252 95.2776 85.2252 95.6782Z" fill="#263238"/>
<path d="M88.8712 95.2536C88.8712 95.6542 88.6831 95.9746 88.4469 95.9746C88.2108 95.9746 88.0227 95.6502 88.0227 95.2536C88.0227 94.8571 88.2108 94.5326 88.4469 94.5326C88.6831 94.5326 88.8712 94.8531 88.8712 95.2536Z" fill="#263238"/>
<path d="M83.54 94.3564C83.7715 94.0718 84.0727 93.852 84.4143 93.7186C84.7559 93.5853 85.1262 93.5428 85.4891 93.5954" stroke="#263238" stroke-width="0.3" stroke-linecap="round" stroke-linejoin="round"/>
<path d="M87.5984 93.5113C87.5984 93.5113 88.1067 92.4097 89.1993 93.1748" stroke="#263238" stroke-width="0.3" stroke-linecap="round" stroke-linejoin="round"/>
<path d="M115.822 123.328C115.822 123.328 107.633 125.96 105.416 126.769C103.199 127.578 95.915 127.678 95.4107 128.487C94.9065 129.296 91.2805 133.87 90.5721 136.498C89.8637 139.126 90.8042 146.243 91.4806 146.688C94.1981 148.486 101.346 147.934 104.372 147.817C109.907 147.613 115.266 149.612 118.379 143.972C119.388 142.15 117.931 135.769 117.731 133.646C117.531 131.523 116.818 127.982 116.718 127.474C116.618 126.965 117.339 123.732 115.822 123.328Z" fill="#0E9769" stroke="#263238" stroke-width="0.3" stroke-linecap="round" stroke-linejoin="round"/>
<path d="M105.58 133.61C109.911 132.08 113.605 127.602 114.753 126.849C115.902 126.096 116.53 124.445 116.53 124.445C114.716 125.669 112.747 126.644 110.675 127.345" stroke="#263238" stroke-width="0.3" stroke-linecap="round" stroke-linejoin="round"/>
<path d="M116.41 125.175C115.591 127.705 114.144 129.986 112.204 131.804" stroke="#263238" stroke-width="0.3" stroke-linecap="round" stroke-linejoin="round"/>
<path d="M97.0435 128.743C97.0435 128.743 98.3162 129.38 102.647 129.38" stroke="#263238" stroke-width="0.3" stroke-linecap="round" stroke-linejoin="round"/>
<path d="M96.531 128.872C96.531 128.872 97.5516 133.334 103.287 135.12" stroke="#263238" stroke-width="0.3" stroke-linecap="round" stroke-linejoin="round"/>
<path d="M95.5149 130.406C96.3846 131.941 97.5537 133.285 98.9528 134.359" stroke="#263238" stroke-width="0.3" stroke-linecap="round" stroke-linejoin="round"/>
</svg>
